<svg width="1120" height="792" viewBox="0 0 1120 792" fill="none" xmlns="http://www.w3.org/2000/svg">
<g clip-path="url(#clip0_499_50498)">
<path d="M742.721 700.387L742.801 700.307L743.121 700.147H743.681L744.321 700.067L744.961 700.147H745.521L745.921 700.307L746.081 700.387L746.001 700.467L745.681 700.627H745.121L744.561 700.707L743.921 700.627H743.281L742.881 700.467L742.721 700.387Z" stroke="black" stroke-width="1.92" stroke-miterlimit="10" stroke-linecap="round" stroke-linejoin="round"/>
<path d="M745.041 705.907L745.121 705.827L745.441 705.747L746.001 705.667L746.561 705.587L747.281 705.667L747.841 705.747L748.241 705.827L748.401 705.907L748.321 706.067L748.001 706.147L747.521 706.227H746.881H746.161L745.601 706.147L745.201 706.067L745.041 705.907Z" stroke="black" stroke-width="1.92" stroke-miterlimit="10" stroke-linecap="round" stroke-linejoin="round"/>
<path d="M740.48 695.028L740.56 694.868L740.88 694.788L741.44 694.708H742H742.64L743.2 694.788L743.6 694.868L743.76 695.028L743.68 695.108L743.36 695.188L742.88 695.268H742.24H741.6L741.04 695.188L740.72 695.108L740.48 695.028Z" stroke="black" stroke-width="1.92" stroke-miterlimit="10" stroke-linecap="round" stroke-linejoin="round"/>
<path d="M752 709.666H757.04L757.36 709.746L757.68 709.986" stroke="black" stroke-width="1.92" stroke-miterlimit="10" stroke-linecap="round" stroke-linejoin="round"/>
<path d="M735.361 701.906V702.066" stroke="black" stroke-width="1.92" stroke-miterlimit="10" stroke-linecap="round" stroke-linejoin="round"/>
<path d="M737.521 707.587L737.841 708.547" stroke="black" stroke-width="1.92" stroke-miterlimit="10" stroke-linecap="round" stroke-linejoin="round"/>
<path d="M749.762 691.986L749.442 691.666L748.962 691.506H732.402L732.002 691.586L731.682 691.826" stroke="black" stroke-width="1.92" stroke-miterlimit="10" stroke-linecap="round" stroke-linejoin="round"/>
<path d="M734.4 698.148L735.6 701.188" stroke="black" stroke-width="1.92" stroke-miterlimit="10" stroke-linecap="round" stroke-linejoin="round"/>
<path d="M735.36 702.066L706.32 707.586" stroke="black" stroke-width="1.92" stroke-miterlimit="10" stroke-linecap="round" stroke-linejoin="round"/>
<path d="M696.801 708.547L735.601 701.187" stroke="black" stroke-width="1.92" stroke-miterlimit="10" stroke-linecap="round" stroke-linejoin="round"/>
<path d="M706.321 707.587L701.281 708.547" stroke="black" stroke-width="1.92" stroke-miterlimit="10" stroke-linecap="round" stroke-linejoin="round"/>
<path d="M678.881 708.547L734.401 698.147" stroke="black" stroke-width="1.92" stroke-miterlimit="10" stroke-linecap="round" stroke-linejoin="round"/>
<path d="M578.561 708.547V707.587" stroke="black" stroke-width="1.92" stroke-miterlimit="10" stroke-linecap="round" stroke-linejoin="round"/>
<path d="M749.762 691.986L757.682 709.986" stroke="black" stroke-width="1.92" stroke-miterlimit="10" stroke-linecap="round" stroke-linejoin="round"/>
<path d="M737.52 707.586H706.4" stroke="black" stroke-width="1.92" stroke-miterlimit="10" stroke-linecap="round" stroke-linejoin="round"/>
<path d="M684.081 707.586H578.561" stroke="black" stroke-width="1.92" stroke-miterlimit="10" stroke-linecap="round" stroke-linejoin="round"/>
<path d="M411.041 700.387L411.201 700.307L411.601 700.147H412.161L412.801 700.067L413.441 700.147H414.001L414.321 700.307L414.401 700.387L414.241 700.467L413.841 700.627H413.201L412.561 700.707L412.001 700.627H411.441L411.121 700.467L411.041 700.387Z" stroke="black" stroke-width="1.92" stroke-miterlimit="10" stroke-linecap="round" stroke-linejoin="round"/>
<path d="M408.721 705.907L408.881 705.827L409.281 705.747L409.841 705.667L410.561 705.587L411.121 705.667L411.681 705.747L412.001 705.827L412.081 705.907L411.921 706.067L411.521 706.147L410.961 706.227H410.241H409.601L409.121 706.147L408.801 706.067L408.721 705.907Z" stroke="black" stroke-width="1.92" stroke-miterlimit="10" stroke-linecap="round" stroke-linejoin="round"/>
<path d="M413.361 695.028L413.521 694.868L413.921 694.788L414.481 694.708H415.121H415.681L416.241 694.788L416.561 694.868L416.641 695.028L416.401 695.108L416.081 695.188L415.521 695.268H414.881H414.241L413.761 695.188L413.441 695.108L413.361 695.028Z" stroke="black" stroke-width="1.92" stroke-miterlimit="10" stroke-linecap="round" stroke-linejoin="round"/>
<path d="M404.081 727.906H400.561" stroke="black" stroke-width="1.92" stroke-miterlimit="10" stroke-linecap="round" stroke-linejoin="round"/>
<path d="M404.72 710.547H400.56L400.24 710.707L400.08 710.947" stroke="black" stroke-width="1.92" stroke-miterlimit="10" stroke-linecap="round" stroke-linejoin="round"/>
<path d="M400.08 710.946V727.506L400.24 727.826L400.56 727.906" stroke="black" stroke-width="1.92" stroke-miterlimit="10" stroke-linecap="round" stroke-linejoin="round"/>
<path d="M421.521 701.188L422.721 698.148" stroke="black" stroke-width="1.92" stroke-miterlimit="10" stroke-linecap="round" stroke-linejoin="round"/>
<path d="M425.441 691.826L425.121 691.586L424.721 691.506" stroke="black" stroke-width="1.92" stroke-miterlimit="10" stroke-linecap="round" stroke-linejoin="round"/>
<path d="M405.121 709.667H400.081L399.681 709.827L399.361 710.147L399.281 710.547V727.907L399.361 728.387L399.681 728.707L400.081 728.787H404.081" stroke="black" stroke-width="1.92" stroke-miterlimit="10" stroke-linecap="round" stroke-linejoin="round"/>
<path d="M408.16 691.506H424.72" stroke="black" stroke-width="1.92" stroke-miterlimit="10" stroke-linecap="round" stroke-linejoin="round"/>
<path d="M421.762 702.066V701.906" stroke="black" stroke-width="1.92" stroke-miterlimit="10" stroke-linecap="round" stroke-linejoin="round"/>
<path d="M419.281 708.547L419.601 707.587" stroke="black" stroke-width="1.92" stroke-miterlimit="10" stroke-linecap="round" stroke-linejoin="round"/>
<path d="M408.161 691.506L407.681 691.666L407.361 691.986" stroke="black" stroke-width="1.92" stroke-miterlimit="10" stroke-linecap="round" stroke-linejoin="round"/>
<path d="M455.841 708.547L450.801 707.587" stroke="black" stroke-width="1.92" stroke-miterlimit="10" stroke-linecap="round" stroke-linejoin="round"/>
<path d="M460.321 708.547L421.521 701.187" stroke="black" stroke-width="1.92" stroke-miterlimit="10" stroke-linecap="round" stroke-linejoin="round"/>
<path d="M450.802 707.586L421.762 702.066" stroke="black" stroke-width="1.92" stroke-miterlimit="10" stroke-linecap="round" stroke-linejoin="round"/>
<path d="M478.241 708.547L422.721 698.147" stroke="black" stroke-width="1.92" stroke-miterlimit="10" stroke-linecap="round" stroke-linejoin="round"/>
<path d="M578.561 707.587V708.547" stroke="black" stroke-width="1.92" stroke-miterlimit="10" stroke-linecap="round" stroke-linejoin="round"/>
<path d="M407.361 691.987L399.361 710.227" stroke="black" stroke-width="1.92" stroke-miterlimit="10" stroke-linecap="round" stroke-linejoin="round"/>
<path d="M419.602 707.586H450.722" stroke="black" stroke-width="1.92" stroke-miterlimit="10" stroke-linecap="round" stroke-linejoin="round"/>
<path d="M473.041 707.586H578.561" stroke="black" stroke-width="1.92" stroke-miterlimit="10" stroke-linecap="round" stroke-linejoin="round"/>
<path d="M239.84 673.586L240 672.866L240.4 672.226L241.04 671.826L241.76 671.666L242.48 671.826L243.12 672.226L243.52 672.866L243.68 673.586L243.52 674.306L243.12 674.946L242.48 675.346L241.76 675.506L241.04 675.346L240.4 674.946L240 674.306L239.84 673.586Z" stroke="black" stroke-width="1.92" stroke-miterlimit="10" stroke-linecap="round" stroke-linejoin="round"/>
<path d="M240.48 672.228L240.08 672.868L240 673.588L240.24 674.228L240.64 674.868L241.28 675.188L241.92 675.348L242.64 675.188L243.28 674.788" stroke="black" stroke-width="1.92" stroke-miterlimit="10" stroke-linecap="round" stroke-linejoin="round"/>
<path d="M346.481 674.708L345.921 675.188L345.281 675.428H344.561L343.921 675.188L343.361 674.708L343.041 674.068V673.348L343.281 672.628" stroke="black" stroke-width="1.92" stroke-miterlimit="10" stroke-linecap="round" stroke-linejoin="round"/>
<path d="M343.281 672.548L343.121 673.268L343.201 673.908L343.441 674.548L344.001 675.028L344.641 675.268H345.361L346.001 675.028L346.481 674.548" stroke="black" stroke-width="1.92" stroke-miterlimit="10" stroke-linecap="round" stroke-linejoin="round"/>
<path d="M346.241 672.467L345.361 671.907" stroke="black" stroke-width="1.92" stroke-miterlimit="10" stroke-linecap="round" stroke-linejoin="round"/>
<path d="M205.681 720.068L205.361 720.708L205.281 721.428L205.521 722.148L205.921 722.708L206.561 723.028L207.281 723.188L207.921 723.028L208.561 722.628" stroke="black" stroke-width="1.92" stroke-miterlimit="10" stroke-linecap="round" stroke-linejoin="round"/>
<path d="M205.121 721.428L205.281 720.708L205.681 720.068L206.321 719.668L207.041 719.508L207.761 719.668L208.401 720.068L208.801 720.708L208.961 721.428L208.801 722.148L208.401 722.788L207.761 723.188L207.041 723.348L206.321 723.188L205.681 722.788L205.281 722.148L205.121 721.428Z" stroke="black" stroke-width="1.92" stroke-miterlimit="10" stroke-linecap="round" stroke-linejoin="round"/>
<path d="M205.761 684.308L205.441 684.868L205.281 685.588L205.441 686.308L205.841 686.868L206.481 687.268L207.201 687.428L207.921 687.348L208.481 686.948" stroke="black" stroke-width="1.92" stroke-miterlimit="10" stroke-linecap="round" stroke-linejoin="round"/>
<path d="M205.121 685.666L205.281 684.946L205.681 684.306L206.321 683.906L207.041 683.746L207.761 683.906L208.401 684.306L208.801 684.946L208.961 685.666L208.801 686.386L208.401 687.026L207.761 687.426L207.041 687.586L206.321 687.426L205.681 687.026L205.281 686.386L205.121 685.666Z" stroke="black" stroke-width="1.92" stroke-miterlimit="10" stroke-linecap="round" stroke-linejoin="round"/>
<path d="M205.681 755.907L205.361 756.547L205.281 757.267L205.521 757.907L206.001 758.467L206.641 758.787L207.361 758.867L208.001 758.707L208.561 758.307" stroke="black" stroke-width="1.92" stroke-miterlimit="10" stroke-linecap="round" stroke-linejoin="round"/>
<path d="M205.121 757.187L205.281 756.467L205.681 755.827L206.321 755.427L207.041 755.267L207.761 755.427L208.401 755.827L208.801 756.467L208.961 757.187L208.801 757.907L208.401 758.547L207.761 758.947L207.041 759.107L206.321 758.947L205.681 758.547L205.281 757.907L205.121 757.187Z" stroke="black" stroke-width="1.92" stroke-miterlimit="10" stroke-linecap="round" stroke-linejoin="round"/>
<path d="M197.92 661.746H216.48L216.88 661.666H217.04" stroke="black" stroke-width="1.92" stroke-miterlimit="10" stroke-linecap="round" stroke-linejoin="round"/>
<path d="M217.041 661.666L220.001 658.706L219.921 658.626H219.601" stroke="black" stroke-width="1.92" stroke-miterlimit="10" stroke-linecap="round" stroke-linejoin="round"/>
<path d="M219.601 658.627H201.201H200.801L200.641 658.707" stroke="black" stroke-width="1.92" stroke-miterlimit="10" stroke-linecap="round" stroke-linejoin="round"/>
<path d="M200.641 658.706L197.521 661.666H197.601L197.921 661.746" stroke="black" stroke-width="1.92" stroke-miterlimit="10" stroke-linecap="round" stroke-linejoin="round"/>
<path d="M221.04 658.626L217.92 661.746H217.68L217.28 661.826H216.8H197.28H196.8L196.56 661.746H196.48L199.76 658.626L200 658.546H200.4L200.88 658.466H220.24L220.64 658.546H220.96L221.04 658.626Z" stroke="black" stroke-width="1.92" stroke-miterlimit="10" stroke-linecap="round" stroke-linejoin="round"/>
<path d="M217.92 717.027V716.947" stroke="black" stroke-width="1.92" stroke-miterlimit="10" stroke-linecap="round" stroke-linejoin="round"/>
<path d="M221.04 776.707L217.92 780.787" stroke="black" stroke-width="1.92" stroke-miterlimit="10" stroke-linecap="round" stroke-linejoin="round"/>
<path d="M220.961 713.906V713.506L221.041 713.426" stroke="black" stroke-width="1.92" stroke-miterlimit="10" stroke-linecap="round" stroke-linejoin="round"/>
<path d="M218.16 682.867L218.08 682.707L218 682.307L217.92 681.667V665.507L218 664.707L218.08 664.147L218.16 663.827L220.72 661.267H220.8" stroke="black" stroke-width="1.92" stroke-miterlimit="10" stroke-linecap="round" stroke-linejoin="round"/>
<path d="M196.48 780.867L196.56 780.947H196.88L197.28 781.027H216.8L217.28 780.947L217.68 780.867L217.92 780.787" stroke="black" stroke-width="1.92" stroke-miterlimit="10" stroke-linecap="round" stroke-linejoin="round"/>
<path d="M217.521 737.666V717.426L217.601 717.346L217.761 717.186L217.841 717.106L217.921 717.026" stroke="black" stroke-width="1.92" stroke-miterlimit="10" stroke-linecap="round" stroke-linejoin="round"/>
<path d="M220.961 713.506L251.601 682.866L221.041 713.426" stroke="black" stroke-width="1.92" stroke-miterlimit="10" stroke-linecap="round" stroke-linejoin="round"/>
<path d="M217.92 716.947L253.28 681.667" stroke="black" stroke-width="1.92" stroke-miterlimit="10" stroke-linecap="round" stroke-linejoin="round"/>
<path d="M253.281 681.668L268.481 666.468L268.321 666.628L217.521 717.428" stroke="black" stroke-width="1.92" stroke-miterlimit="10" stroke-linecap="round" stroke-linejoin="round"/>
<path d="M268.48 666.467H288.72" stroke="black" stroke-width="1.92" stroke-miterlimit="10" stroke-linecap="round" stroke-linejoin="round"/>
<path d="M288.72 666.467L288.56 666.627H268.32" stroke="black" stroke-width="1.92" stroke-miterlimit="10" stroke-linecap="round" stroke-linejoin="round"/>
<path d="M288.561 666.626L217.521 737.666" stroke="black" stroke-width="1.92" stroke-miterlimit="10" stroke-linecap="round" stroke-linejoin="round"/>
<path d="M221.041 776.707V734.147" stroke="black" stroke-width="1.92" stroke-miterlimit="10" stroke-linecap="round" stroke-linejoin="round"/>
<path d="M221.041 713.428V682.868" stroke="black" stroke-width="1.92" stroke-miterlimit="10" stroke-linecap="round" stroke-linejoin="round"/>
<path d="M221.041 661.268V658.628" stroke="black" stroke-width="1.92" stroke-miterlimit="10" stroke-linecap="round" stroke-linejoin="round"/>
<path d="M196.48 780.867V661.747" stroke="black" stroke-width="1.92" stroke-miterlimit="10" stroke-linecap="round" stroke-linejoin="round"/>
<path d="M220.801 661.268H298.801" stroke="black" stroke-width="1.92" stroke-miterlimit="10" stroke-linecap="round" stroke-linejoin="round"/>
<path d="M218.16 682.867H252" stroke="black" stroke-width="1.92" stroke-miterlimit="10" stroke-linecap="round" stroke-linejoin="round"/>
<path d="M272.24 682.867H297.36" stroke="black" stroke-width="1.92" stroke-miterlimit="10" stroke-linecap="round" stroke-linejoin="round"/>
<path d="M913.84 674.788L914.48 675.188L915.2 675.348L915.84 675.188L916.48 674.868L916.88 674.228L917.12 673.588L917.04 672.868L916.64 672.228" stroke="black" stroke-width="1.92" stroke-miterlimit="10" stroke-linecap="round" stroke-linejoin="round"/>
<path d="M913.441 673.586L913.601 672.866L914.001 672.226L914.641 671.826L915.361 671.666L916.081 671.826L916.721 672.226L917.121 672.866L917.281 673.586L917.121 674.306L916.721 674.946L916.081 675.346L915.361 675.506L914.641 675.346L914.001 674.946L913.601 674.306L913.441 673.586Z" stroke="black" stroke-width="1.92" stroke-miterlimit="10" stroke-linecap="round" stroke-linejoin="round"/>
<path d="M811.761 671.907L810.881 672.467" stroke="black" stroke-width="1.92" stroke-miterlimit="10" stroke-linecap="round" stroke-linejoin="round"/>
<path d="M810.641 674.548L811.121 675.028L811.761 675.268H812.481L813.121 675.028L813.681 674.548L813.921 673.908L814.001 673.268L813.841 672.548" stroke="black" stroke-width="1.92" stroke-miterlimit="10" stroke-linecap="round" stroke-linejoin="round"/>
<path d="M813.841 672.628L814.081 673.348V674.068L813.761 674.708L813.201 675.188L812.561 675.428H811.841L811.201 675.188L810.641 674.708" stroke="black" stroke-width="1.92" stroke-miterlimit="10" stroke-linecap="round" stroke-linejoin="round"/>
<path d="M948.16 721.428L948.32 720.708L948.72 720.068L949.36 719.668L950.08 719.508L950.8 719.668L951.44 720.068L951.84 720.708L952 721.428L951.84 722.148L951.44 722.788L950.8 723.188L950.08 723.348L949.36 723.188L948.72 722.788L948.32 722.148L948.16 721.428Z" stroke="black" stroke-width="1.92" stroke-miterlimit="10" stroke-linecap="round" stroke-linejoin="round"/>
<path d="M948.561 722.628L949.201 723.028L949.841 723.188L950.561 723.028L951.201 722.708L951.601 722.148L951.841 721.428L951.761 720.708L951.441 720.068" stroke="black" stroke-width="1.92" stroke-miterlimit="10" stroke-linecap="round" stroke-linejoin="round"/>
<path d="M948.16 685.666L948.32 684.946L948.72 684.306L949.36 683.906L950.08 683.746L950.8 683.906L951.44 684.306L951.84 684.946L952 685.666L951.84 686.386L951.44 687.026L950.8 687.426L950.08 687.586L949.36 687.426L948.72 687.026L948.32 686.386L948.16 685.666Z" stroke="black" stroke-width="1.92" stroke-miterlimit="10" stroke-linecap="round" stroke-linejoin="round"/>
<path d="M948.641 686.948L949.201 687.348L949.921 687.428L950.641 687.268L951.281 686.868L951.681 686.308L951.841 685.588L951.681 684.868L951.361 684.308" stroke="black" stroke-width="1.92" stroke-miterlimit="10" stroke-linecap="round" stroke-linejoin="round"/>
<path d="M948.16 757.187L948.32 756.467L948.72 755.827L949.36 755.427L950.08 755.267L950.8 755.427L951.44 755.827L951.84 756.467L952 757.187L951.84 757.907L951.44 758.547L950.8 758.947L950.08 759.107L949.36 758.947L948.72 758.547L948.32 757.907L948.16 757.187Z" stroke="black" stroke-width="1.92" stroke-miterlimit="10" stroke-linecap="round" stroke-linejoin="round"/>
<path d="M948.561 758.307L949.121 758.707L949.761 758.867L950.481 758.787L951.121 758.467L951.601 757.907L951.841 757.267L951.761 756.547L951.441 755.907" stroke="black" stroke-width="1.92" stroke-miterlimit="10" stroke-linecap="round" stroke-linejoin="round"/>
<path d="M955.921 658.627H937.521H937.201L937.121 658.707" stroke="black" stroke-width="1.92" stroke-miterlimit="10" stroke-linecap="round" stroke-linejoin="round"/>
<path d="M937.121 658.706L940.081 661.666H940.241L940.641 661.746" stroke="black" stroke-width="1.92" stroke-miterlimit="10" stroke-linecap="round" stroke-linejoin="round"/>
<path d="M940.641 661.746H959.201L959.521 661.666H959.601" stroke="black" stroke-width="1.92" stroke-miterlimit="10" stroke-linecap="round" stroke-linejoin="round"/>
<path d="M959.6 661.666L956.48 658.706L956.32 658.626H955.92" stroke="black" stroke-width="1.92" stroke-miterlimit="10" stroke-linecap="round" stroke-linejoin="round"/>
<path d="M939.601 737.666V717.426L939.521 717.346L939.361 717.186L939.281 717.106L939.201 717.026" stroke="black" stroke-width="1.92" stroke-miterlimit="10" stroke-linecap="round" stroke-linejoin="round"/>
<path d="M939.201 780.787L939.441 780.867L939.841 780.947L940.321 781.027" stroke="black" stroke-width="1.92" stroke-miterlimit="10" stroke-linecap="round" stroke-linejoin="round"/>
<path d="M939.2 661.746L936.08 658.626L936.16 658.546H936.48L936.88 658.466H956.24L956.72 658.546H957.12L957.36 658.626L960.64 661.746H960.56L960.32 661.826H959.84H940.32H939.84L939.44 661.746H939.2Z" stroke="black" stroke-width="1.92" stroke-miterlimit="10" stroke-linecap="round" stroke-linejoin="round"/>
<path d="M959.84 781.027H940.32" stroke="black" stroke-width="1.92" stroke-miterlimit="10" stroke-linecap="round" stroke-linejoin="round"/>
<path d="M936.08 713.426L936.16 713.506V713.906" stroke="black" stroke-width="1.92" stroke-miterlimit="10" stroke-linecap="round" stroke-linejoin="round"/>
<path d="M939.2 780.787L936.08 776.707" stroke="black" stroke-width="1.92" stroke-miterlimit="10" stroke-linecap="round" stroke-linejoin="round"/>
<path d="M939.201 716.947V717.027" stroke="black" stroke-width="1.92" stroke-miterlimit="10" stroke-linecap="round" stroke-linejoin="round"/>
<path d="M936.32 661.267H936.4L938.96 663.827L939.04 664.147L939.12 664.707L939.2 665.507V681.667L939.12 682.307L939.04 682.707L938.96 682.867" stroke="black" stroke-width="1.92" stroke-miterlimit="10" stroke-linecap="round" stroke-linejoin="round"/>
<path d="M959.84 781.027L960.24 780.947H960.56L960.64 780.867" stroke="black" stroke-width="1.92" stroke-miterlimit="10" stroke-linecap="round" stroke-linejoin="round"/>
<path d="M939.601 717.428L888.801 666.628L888.641 666.468L903.841 681.668L939.201 716.948" stroke="black" stroke-width="1.92" stroke-miterlimit="10" stroke-linecap="round" stroke-linejoin="round"/>
<path d="M888.64 666.466H868.4L868.56 666.626L939.6 737.666" stroke="black" stroke-width="1.92" stroke-miterlimit="10" stroke-linecap="round" stroke-linejoin="round"/>
<path d="M888.801 666.627H868.561" stroke="black" stroke-width="1.92" stroke-miterlimit="10" stroke-linecap="round" stroke-linejoin="round"/>
<path d="M936.161 713.506L905.521 682.866L936.081 713.426" stroke="black" stroke-width="1.92" stroke-miterlimit="10" stroke-linecap="round" stroke-linejoin="round"/>
<path d="M960.641 780.867V661.747" stroke="black" stroke-width="1.92" stroke-miterlimit="10" stroke-linecap="round" stroke-linejoin="round"/>
<path d="M936.08 776.707V734.147" stroke="black" stroke-width="1.92" stroke-miterlimit="10" stroke-linecap="round" stroke-linejoin="round"/>
<path d="M936.08 713.428V682.868" stroke="black" stroke-width="1.92" stroke-miterlimit="10" stroke-linecap="round" stroke-linejoin="round"/>
<path d="M936.08 661.268V658.628" stroke="black" stroke-width="1.92" stroke-miterlimit="10" stroke-linecap="round" stroke-linejoin="round"/>
<path d="M938.961 682.867H905.121" stroke="black" stroke-width="1.92" stroke-miterlimit="10" stroke-linecap="round" stroke-linejoin="round"/>
<path d="M884.88 682.867H859.76" stroke="black" stroke-width="1.92" stroke-miterlimit="10" stroke-linecap="round" stroke-linejoin="round"/>
<path d="M936.32 661.268H858.32" stroke="black" stroke-width="1.92" stroke-miterlimit="10" stroke-linecap="round" stroke-linejoin="round"/>
<path d="M733.921 698.227V697.827V697.507L733.841 697.347L732.721 694.467" stroke="black" stroke-width="1.92" stroke-miterlimit="10" stroke-linecap="round" stroke-linejoin="round"/>
<path d="M732.721 694.467H424.401L423.281 697.347L423.201 697.507V697.827V698.227" stroke="black" stroke-width="1.92" stroke-miterlimit="10" stroke-linecap="round" stroke-linejoin="round"/>
<path d="M732.641 694.467V694.147L731.441 691.267" stroke="black" stroke-width="1.92" stroke-miterlimit="10" stroke-linecap="round" stroke-linejoin="round"/>
<path d="M731.44 691.267H425.68L424.48 694.147V694.467" stroke="black" stroke-width="1.92" stroke-miterlimit="10" stroke-linecap="round" stroke-linejoin="round"/>
<path d="M424.08 759.746L424 760.466L424.16 761.106L424.64 761.666L425.28 761.986L425.92 762.146L426.64 761.906L427.2 761.506L427.6 760.946" stroke="black" stroke-width="1.92" stroke-miterlimit="10" stroke-linecap="round" stroke-linejoin="round"/>
<path d="M729.521 760.946L729.921 761.506L730.481 761.906L731.201 762.146L731.841 761.986L732.481 761.666L732.961 761.106L733.121 760.466L733.041 759.746" stroke="black" stroke-width="1.92" stroke-miterlimit="10" stroke-linecap="round" stroke-linejoin="round"/>
<path d="M754.641 750.867V750.387V749.987L754.561 749.747" stroke="black" stroke-width="1.92" stroke-miterlimit="10" stroke-linecap="round" stroke-linejoin="round"/>
<path d="M402.56 749.747L402.48 749.987V750.387V750.867" stroke="black" stroke-width="1.92" stroke-miterlimit="10" stroke-linecap="round" stroke-linejoin="round"/>
<path d="M729.441 760.467L729.601 759.747L730.001 759.107L730.641 758.707L731.361 758.547L732.081 758.707L732.641 759.107L733.041 759.747L733.201 760.467L733.041 761.187L732.641 761.747L732.081 762.147L731.361 762.307L730.641 762.147L730.001 761.747L729.601 761.187L729.441 760.467Z" stroke="black" stroke-width="1.92" stroke-miterlimit="10" stroke-linecap="round" stroke-linejoin="round"/>
<path d="M423.92 760.467L424.08 759.747L424.48 759.107L425.04 758.707L425.76 758.547L426.48 758.707L427.12 759.107L427.52 759.747L427.68 760.467L427.52 761.187L427.12 761.747L426.48 762.147L425.76 762.307L425.04 762.147L424.48 761.747L424.08 761.187L423.92 760.467Z" stroke="black" stroke-width="1.92" stroke-miterlimit="10" stroke-linecap="round" stroke-linejoin="round"/>
<path d="M402.48 769.986V750.866" stroke="black" stroke-width="1.92" stroke-miterlimit="10" stroke-linecap="round" stroke-linejoin="round"/>
<path d="M754.641 750.866V769.986" stroke="black" stroke-width="1.92" stroke-miterlimit="10" stroke-linecap="round" stroke-linejoin="round"/>
<path d="M402.561 749.746L404.001 745.986" stroke="black" stroke-width="1.92" stroke-miterlimit="10" stroke-linecap="round" stroke-linejoin="round"/>
<path d="M402.48 769.987V770.387V770.627V770.787" stroke="black" stroke-width="1.92" stroke-miterlimit="10" stroke-linecap="round" stroke-linejoin="round"/>
<path d="M754.641 770.787V770.627V770.387V769.987" stroke="black" stroke-width="1.92" stroke-miterlimit="10" stroke-linecap="round" stroke-linejoin="round"/>
<path d="M404 745.986H753.12L754.56 749.746" stroke="black" stroke-width="1.92" stroke-miterlimit="10" stroke-linecap="round" stroke-linejoin="round"/>
<path d="M402.48 770.787H754.64" stroke="black" stroke-width="1.92" stroke-miterlimit="10" stroke-linecap="round" stroke-linejoin="round"/>
<path d="M425.521 721.746L425.441 722.466L425.601 723.186L426.001 723.746L426.641 724.066L427.281 724.146L428.001 723.986L428.561 723.586L428.961 723.026" stroke="black" stroke-width="1.92" stroke-miterlimit="10" stroke-linecap="round" stroke-linejoin="round"/>
<path d="M728.16 723.026L728.56 723.586L729.12 723.986L729.84 724.146L730.48 724.066L731.12 723.746L731.52 723.186L731.68 722.466L731.6 721.746" stroke="black" stroke-width="1.92" stroke-miterlimit="10" stroke-linecap="round" stroke-linejoin="round"/>
<path d="M753.041 713.027V712.547V712.147L752.961 711.907" stroke="black" stroke-width="1.92" stroke-miterlimit="10" stroke-linecap="round" stroke-linejoin="round"/>
<path d="M404.16 711.907L404.08 712.147V712.547V713.027" stroke="black" stroke-width="1.92" stroke-miterlimit="10" stroke-linecap="round" stroke-linejoin="round"/>
<path d="M728.08 722.467L728.24 721.827L728.64 721.187L729.2 720.787L729.92 720.627L730.64 720.787L731.2 721.187L731.6 721.827L731.76 722.467L731.6 723.187L731.2 723.827L730.64 724.227L729.92 724.387L729.2 724.227L728.64 723.827L728.24 723.187L728.08 722.467Z" stroke="black" stroke-width="1.92" stroke-miterlimit="10" stroke-linecap="round" stroke-linejoin="round"/>
<path d="M425.361 722.467L425.521 721.827L425.921 721.187L426.481 720.787L427.201 720.627L427.921 720.787L428.481 721.187L428.881 721.827L429.041 722.467L428.881 723.187L428.481 723.827L427.921 724.227L427.201 724.387L426.481 724.227L425.921 723.827L425.521 723.187L425.361 722.467Z" stroke="black" stroke-width="1.92" stroke-miterlimit="10" stroke-linecap="round" stroke-linejoin="round"/>
<path d="M404.08 731.986V713.026" stroke="black" stroke-width="1.92" stroke-miterlimit="10" stroke-linecap="round" stroke-linejoin="round"/>
<path d="M753.041 713.026V731.986" stroke="black" stroke-width="1.92" stroke-miterlimit="10" stroke-linecap="round" stroke-linejoin="round"/>
<path d="M404.16 711.906L405.6 708.546" stroke="black" stroke-width="1.92" stroke-miterlimit="10" stroke-linecap="round" stroke-linejoin="round"/>
<path d="M404.08 731.987V732.387V732.627L404.16 732.707" stroke="black" stroke-width="1.92" stroke-miterlimit="10" stroke-linecap="round" stroke-linejoin="round"/>
<path d="M752.961 732.707L753.041 732.627V732.387V731.987" stroke="black" stroke-width="1.92" stroke-miterlimit="10" stroke-linecap="round" stroke-linejoin="round"/>
<path d="M405.602 708.546H751.522L752.962 711.906" stroke="black" stroke-width="1.92" stroke-miterlimit="10" stroke-linecap="round" stroke-linejoin="round"/>
<path d="M404.16 732.707H752.96" stroke="black" stroke-width="1.92" stroke-miterlimit="10" stroke-linecap="round" stroke-linejoin="round"/>
<path d="M420.802 704.546V704.626L419.762 707.106V707.586" stroke="black" stroke-width="1.92" stroke-miterlimit="10" stroke-linecap="round" stroke-linejoin="round"/>
<path d="M737.36 707.586V707.106L736.32 704.626V704.546" stroke="black" stroke-width="1.92" stroke-miterlimit="10" stroke-linecap="round" stroke-linejoin="round"/>
<path d="M420.801 704.547H434.961" stroke="black" stroke-width="1.92" stroke-miterlimit="10" stroke-linecap="round" stroke-linejoin="round"/>
<path d="M457.121 704.547H700.001" stroke="black" stroke-width="1.92" stroke-miterlimit="10" stroke-linecap="round" stroke-linejoin="round"/>
<path d="M722.16 704.547H736.32" stroke="black" stroke-width="1.92" stroke-miterlimit="10" stroke-linecap="round" stroke-linejoin="round"/>
<path d="M421.761 702.067L420.961 704.147L420.881 704.547" stroke="black" stroke-width="1.92" stroke-miterlimit="10" stroke-linecap="round" stroke-linejoin="round"/>
<path d="M735.361 702.067L736.161 704.147L736.241 704.547" stroke="black" stroke-width="1.92" stroke-miterlimit="10" stroke-linecap="round" stroke-linejoin="round"/>
<path d="M441.441 701.586H715.681" stroke="black" stroke-width="1.92" stroke-miterlimit="10" stroke-linecap="round" stroke-linejoin="round"/>
<path d="M425.92 698.707H731.2" stroke="black" stroke-width="1.92" stroke-miterlimit="10" stroke-linecap="round" stroke-linejoin="round"/>
<path d="M748.641 736.146L748.561 735.666L747.441 732.786" stroke="black" stroke-width="1.92" stroke-miterlimit="10" stroke-linecap="round" stroke-linejoin="round"/>
<path d="M747.44 732.786H409.68L408.56 735.666L408.48 736.146" stroke="black" stroke-width="1.92" stroke-miterlimit="10" stroke-linecap="round" stroke-linejoin="round"/>
<path d="M750.001 739.666L749.921 739.186L748.801 736.226V736.146" stroke="black" stroke-width="1.92" stroke-miterlimit="10" stroke-linecap="round" stroke-linejoin="round"/>
<path d="M748.801 736.146H408.321V736.226L407.201 739.186L407.121 739.666" stroke="black" stroke-width="1.92" stroke-miterlimit="10" stroke-linecap="round" stroke-linejoin="round"/>
<path d="M751.44 745.986V744.306V743.586L751.36 743.026V742.706L750.16 739.666" stroke="black" stroke-width="1.92" stroke-miterlimit="10" stroke-linecap="round" stroke-linejoin="round"/>
<path d="M405.682 745.986V744.306V743.586L405.762 743.026V742.706L406.962 739.666H750.162" stroke="black" stroke-width="1.92" stroke-miterlimit="10" stroke-linecap="round" stroke-linejoin="round"/>
<path d="M734.801 671.827L734.081 672.387L733.201 672.547" stroke="black" stroke-width="1.92" stroke-miterlimit="10" stroke-linecap="round" stroke-linejoin="round"/>
<path d="M423.92 672.547L423.04 672.387L422.32 671.827" stroke="black" stroke-width="1.92" stroke-miterlimit="10" stroke-linecap="round" stroke-linejoin="round"/>
<path d="M732.801 674.308L733.281 674.868L733.841 675.188L734.561 675.348L735.281 675.188L735.841 674.788L736.241 674.228L736.401 673.508L736.321 672.868" stroke="black" stroke-width="1.92" stroke-miterlimit="10" stroke-linecap="round" stroke-linejoin="round"/>
<path d="M420.801 672.868L420.721 673.508L420.881 674.228L421.281 674.788L421.841 675.188L422.561 675.348L423.281 675.188L423.841 674.868L424.321 674.308" stroke="black" stroke-width="1.92" stroke-miterlimit="10" stroke-linecap="round" stroke-linejoin="round"/>
<path d="M736.321 672.946L736.481 673.586L736.321 674.306L735.921 674.946L735.281 675.346L734.561 675.506L733.921 675.346L733.281 674.946L732.881 674.386" stroke="black" stroke-width="1.92" stroke-miterlimit="10" stroke-linecap="round" stroke-linejoin="round"/>
<path d="M424.241 674.386L423.841 674.946L423.201 675.346L422.561 675.506L421.841 675.346L421.201 674.946L420.801 674.306L420.641 673.586L420.801 672.946" stroke="black" stroke-width="1.92" stroke-miterlimit="10" stroke-linecap="round" stroke-linejoin="round"/>
<path d="M422.561 671.827L423.121 672.227L423.841 672.387" stroke="black" stroke-width="1.92" stroke-miterlimit="10" stroke-linecap="round" stroke-linejoin="round"/>
<path d="M733.281 672.387L734.001 672.227L734.561 671.827" stroke="black" stroke-width="1.92" stroke-miterlimit="10" stroke-linecap="round" stroke-linejoin="round"/>
<path d="M657.12 682.867H500" stroke="black" stroke-width="1.92" stroke-miterlimit="10" stroke-linecap="round" stroke-linejoin="round"/>
<path d="M656.561 661.268H500.561" stroke="black" stroke-width="1.92" stroke-miterlimit="10" stroke-linecap="round" stroke-linejoin="round"/>
<path d="M805.441 720.627L805.201 720.787" stroke="black" stroke-width="1.92" stroke-miterlimit="10" stroke-linecap="round" stroke-linejoin="round"/>
<path d="M804.561 723.106L804.961 723.666L805.601 723.906L806.321 723.986L806.961 723.746L807.521 723.346L807.841 722.706L807.921 722.066L807.761 721.346" stroke="black" stroke-width="1.92" stroke-miterlimit="10" stroke-linecap="round" stroke-linejoin="round"/>
<path d="M829.201 731.348V731.188L829.281 730.788V730.228V714.468V713.748L829.201 713.188L829.121 712.868L827.441 709.988H827.361" stroke="black" stroke-width="1.92" stroke-miterlimit="10" stroke-linecap="round" stroke-linejoin="round"/>
<path d="M804.32 722.306L804.48 721.586L804.88 721.026L805.52 720.626L806.16 720.466L806.88 720.626L807.52 721.026L807.92 721.586L808.08 722.306L807.92 723.026L807.52 723.666L806.88 724.066L806.16 724.146L805.52 724.066L804.88 723.666L804.48 723.026L804.32 722.306Z" stroke="black" stroke-width="1.92" stroke-miterlimit="10" stroke-linecap="round" stroke-linejoin="round"/>
<path d="M829.201 731.348H753.041" stroke="black" stroke-width="1.92" stroke-miterlimit="10" stroke-linecap="round" stroke-linejoin="round"/>
<path d="M827.36 709.986H752.16" stroke="black" stroke-width="1.92" stroke-miterlimit="10" stroke-linecap="round" stroke-linejoin="round"/>
<path d="M787.441 760.946L787.921 761.506L788.481 761.826L789.201 761.906L789.841 761.746L790.481 761.346L790.801 760.786L790.961 760.066L790.801 759.346" stroke="black" stroke-width="1.92" stroke-miterlimit="10" stroke-linecap="round" stroke-linejoin="round"/>
<path d="M812.401 769.348V769.188L812.481 768.788V768.148V752.308V751.588L812.401 750.948L812.321 750.628L810.721 747.508" stroke="black" stroke-width="1.92" stroke-miterlimit="10" stroke-linecap="round" stroke-linejoin="round"/>
<path d="M787.281 760.226L787.441 759.506L787.841 758.946L788.481 758.546L789.201 758.386L789.921 758.546L790.481 758.946L790.881 759.506L791.041 760.226L790.881 760.946L790.481 761.586L789.921 761.986L789.201 762.146L788.481 761.986L787.841 761.586L787.441 760.946L787.281 760.226Z" stroke="black" stroke-width="1.92" stroke-miterlimit="10" stroke-linecap="round" stroke-linejoin="round"/>
<path d="M812.401 769.348H754.641" stroke="black" stroke-width="1.92" stroke-miterlimit="10" stroke-linecap="round" stroke-linejoin="round"/>
<path d="M810.722 747.506H753.682" stroke="black" stroke-width="1.92" stroke-miterlimit="10" stroke-linecap="round" stroke-linejoin="round"/>
<path d="M708.24 689.586L708.32 689.506L708.64 689.426L709.12 689.346H709.76H710.4L710.88 689.426L711.28 689.506L711.44 689.586L711.36 689.666L711.04 689.826H710.56L709.92 689.906L709.28 689.826H708.8L708.4 689.666L708.24 689.586Z" stroke="black" stroke-width="1.92" stroke-miterlimit="10" stroke-linecap="round" stroke-linejoin="round"/>
<path d="M749.361 688.226L750.561 691.026L750.641 691.186V691.506V691.986V694.066" stroke="black" stroke-width="1.92" stroke-miterlimit="10" stroke-linecap="round" stroke-linejoin="round"/>
<path d="M578.561 688.228V691.028V691.268" stroke="black" stroke-width="1.92" stroke-miterlimit="10" stroke-linecap="round" stroke-linejoin="round"/>
<path d="M578.561 688.146H749.361" stroke="black" stroke-width="1.92" stroke-miterlimit="10" stroke-linecap="round" stroke-linejoin="round"/>
<path d="M445.682 689.586L445.842 689.506L446.242 689.426L446.722 689.346H447.362H448.002L448.482 689.426L448.802 689.506L448.882 689.586L448.722 689.666L448.322 689.826H447.842L447.202 689.906L446.562 689.826H446.082L445.762 689.666L445.682 689.586Z" stroke="black" stroke-width="1.92" stroke-miterlimit="10" stroke-linecap="round" stroke-linejoin="round"/>
<path d="M402.881 715.267V714.627V713.987L402.961 713.587V713.347H403.041L403.121 713.587V714.067V714.707V715.347V715.987L403.041 716.467L402.961 716.707L402.881 716.387V715.907V715.267Z" stroke="black" stroke-width="1.92" stroke-miterlimit="10" stroke-linecap="round" stroke-linejoin="round"/>
<path d="M578.561 688.227V688.147" stroke="black" stroke-width="1.92" stroke-miterlimit="10" stroke-linecap="round" stroke-linejoin="round"/>
<path d="M406.561 691.027L407.761 688.227" stroke="black" stroke-width="1.92" stroke-miterlimit="10" stroke-linecap="round" stroke-linejoin="round"/>
<path d="M578.561 688.227V691.027" stroke="black" stroke-width="1.92" stroke-miterlimit="10" stroke-linecap="round" stroke-linejoin="round"/>
<path d="M406.48 694.066V691.986V691.506V691.186L406.56 691.026" stroke="black" stroke-width="1.92" stroke-miterlimit="10" stroke-linecap="round" stroke-linejoin="round"/>
<path d="M578.561 691.268V691.028" stroke="black" stroke-width="1.92" stroke-miterlimit="10" stroke-linecap="round" stroke-linejoin="round"/>
<path d="M401.361 725.827L401.521 726.307L402.001 726.467H404.081" stroke="black" stroke-width="1.92" stroke-miterlimit="10" stroke-linecap="round" stroke-linejoin="round"/>
<path d="M404.481 711.186H402.001L401.521 711.426L401.361 711.826V725.826" stroke="black" stroke-width="1.92" stroke-miterlimit="10" stroke-linecap="round" stroke-linejoin="round"/>
<path d="M404.08 727.348H401.76L401.12 727.188L400.64 726.708L400.48 726.068V711.668L400.64 711.028L401.12 710.548" stroke="black" stroke-width="1.92" stroke-miterlimit="10" stroke-linecap="round" stroke-linejoin="round"/>
<path d="M578.562 688.146H407.762" stroke="black" stroke-width="1.92" stroke-miterlimit="10" stroke-linecap="round" stroke-linejoin="round"/>
<path d="M400.881 710.547L400.641 711.107" stroke="black" stroke-width="1.92" stroke-miterlimit="10" stroke-linecap="round" stroke-linejoin="round"/>
<path d="M809.281 661.346L809.361 661.186L809.761 661.106L810.321 661.026H811.041H811.761L812.401 661.106L812.881 661.186L813.121 661.346L813.041 661.426L812.721 661.506L812.081 661.586H811.441H810.641L810.001 661.506L809.521 661.426L809.281 661.346Z" stroke="black" stroke-width="1.92" stroke-miterlimit="10" stroke-linecap="round" stroke-linejoin="round"/>
<path d="M825.281 655.268V654.628L825.361 654.068L825.441 653.748H825.521L825.601 653.988L825.681 654.468V655.108V655.828V656.548V657.028L825.601 657.348H825.521L825.441 657.108L825.361 656.628L825.281 655.988V655.268Z" stroke="black" stroke-width="1.92" stroke-miterlimit="10" stroke-linecap="round" stroke-linejoin="round"/>
<path d="M810.641 674.708L811.201 675.188L811.841 675.428H812.561L813.201 675.188L813.761 674.708L814.081 674.068V673.348L813.841 672.628" stroke="black" stroke-width="1.92" stroke-miterlimit="10" stroke-linecap="round" stroke-linejoin="round"/>
<path d="M810.4 673.746L810.56 673.026L810.96 672.386L811.6 671.986L812.32 671.826L813.04 671.986L813.68 672.386L814.08 673.026L814.24 673.746L814.08 674.466L813.68 675.106L813.04 675.506L812.32 675.666L811.6 675.506L810.96 675.106L810.56 674.466L810.4 673.746Z" stroke="black" stroke-width="1.92" stroke-miterlimit="10" stroke-linecap="round" stroke-linejoin="round"/>
<path d="M733.682 672.066L734.082 671.906" stroke="black" stroke-width="1.92" stroke-miterlimit="10" stroke-linecap="round" stroke-linejoin="round"/>
<path d="M734.481 671.827L734.001 672.147L733.361 672.307" stroke="black" stroke-width="1.92" stroke-miterlimit="10" stroke-linecap="round" stroke-linejoin="round"/>
<path d="M732.881 674.386L733.281 674.946L733.921 675.346L734.561 675.506L735.281 675.346L735.921 674.946L736.321 674.306L736.481 673.586L736.321 672.946" stroke="black" stroke-width="1.92" stroke-miterlimit="10" stroke-linecap="round" stroke-linejoin="round"/>
<path d="M732.721 673.746L732.881 673.026L733.281 672.386L733.921 671.986L734.641 671.826L735.361 671.986L736.001 672.386L736.401 673.026L736.561 673.746L736.401 674.466L736.001 675.106L735.361 675.506L734.641 675.666L733.921 675.506L733.281 675.106L732.881 674.466L732.721 673.746Z" stroke="black" stroke-width="1.92" stroke-miterlimit="10" stroke-linecap="round" stroke-linejoin="round"/>
<path d="M657.041 682.868L657.121 683.268V683.188V682.868V664.308" stroke="black" stroke-width="1.92" stroke-miterlimit="10" stroke-linecap="round" stroke-linejoin="round"/>
<path d="M656.48 660.788V660.868V661.188V661.268" stroke="black" stroke-width="1.92" stroke-miterlimit="10" stroke-linecap="round" stroke-linejoin="round"/>
<path d="M657.12 664.307V663.907V663.747L656.48 660.787" stroke="black" stroke-width="1.92" stroke-miterlimit="10" stroke-linecap="round" stroke-linejoin="round"/>
<path d="M859.762 663.986L859.682 663.506V663.026L859.602 662.866" stroke="black" stroke-width="1.92" stroke-miterlimit="10" stroke-linecap="round" stroke-linejoin="round"/>
<path d="M657.121 662.866L657.201 663.026V663.506V663.986" stroke="black" stroke-width="1.92" stroke-miterlimit="10" stroke-linecap="round" stroke-linejoin="round"/>
<path d="M857.201 659.747L859.601 662.867" stroke="black" stroke-width="1.92" stroke-miterlimit="10" stroke-linecap="round" stroke-linejoin="round"/>
<path d="M657.12 662.867L656.48 659.747" stroke="black" stroke-width="1.92" stroke-miterlimit="10" stroke-linecap="round" stroke-linejoin="round"/>
<path d="M859.762 663.987V683.507L859.682 683.907V684.227L859.602 684.307" stroke="black" stroke-width="1.92" stroke-miterlimit="10" stroke-linecap="round" stroke-linejoin="round"/>
<path d="M656.48 661.268V660.548V660.148V659.828V659.748" stroke="black" stroke-width="1.92" stroke-miterlimit="10" stroke-linecap="round" stroke-linejoin="round"/>
<path d="M656.881 682.867L657.121 684.307L657.201 684.227V683.987V683.507" stroke="black" stroke-width="1.92" stroke-miterlimit="10" stroke-linecap="round" stroke-linejoin="round"/>
<path d="M840.72 643.586L840.24 643.266L839.68 643.106H824.4" stroke="black" stroke-width="1.92" stroke-miterlimit="10" stroke-linecap="round" stroke-linejoin="round"/>
<path d="M824.401 643.106L823.681 643.266L823.201 643.746L823.041 644.466V659.666V659.746" stroke="black" stroke-width="1.92" stroke-miterlimit="10" stroke-linecap="round" stroke-linejoin="round"/>
<path d="M657.201 683.506V663.986" stroke="black" stroke-width="1.92" stroke-miterlimit="10" stroke-linecap="round" stroke-linejoin="round"/>
<path d="M656.48 659.746H857.2" stroke="black" stroke-width="1.92" stroke-miterlimit="10" stroke-linecap="round" stroke-linejoin="round"/>
<path d="M657.201 684.307H859.601" stroke="black" stroke-width="1.92" stroke-miterlimit="10" stroke-linecap="round" stroke-linejoin="round"/>
<path d="M853.201 659.746L840.721 643.586" stroke="black" stroke-width="1.92" stroke-miterlimit="10" stroke-linecap="round" stroke-linejoin="round"/>
<path d="M344 661.346L344.24 661.186L344.72 661.106L345.36 661.026H346.08H346.8L347.36 661.106L347.76 661.186L347.84 661.346L347.6 661.426L347.12 661.506L346.48 661.586H345.68H345.04L344.4 661.506L344.08 661.426L344 661.346Z" stroke="black" stroke-width="1.92" stroke-miterlimit="10" stroke-linecap="round" stroke-linejoin="round"/>
<path d="M331.441 655.828V655.108V654.468L331.521 653.988L331.601 653.748H331.681L331.761 654.068L331.841 654.628V655.268V655.988L331.761 656.628L331.681 657.108L331.601 657.348H331.521L331.441 657.028V656.548V655.828Z" stroke="black" stroke-width="1.92" stroke-miterlimit="10" stroke-linecap="round" stroke-linejoin="round"/>
<path d="M343.281 672.628L343.041 673.348V674.068L343.361 674.708L343.921 675.188L344.561 675.428H345.281L345.921 675.188L346.481 674.708" stroke="black" stroke-width="1.92" stroke-miterlimit="10" stroke-linecap="round" stroke-linejoin="round"/>
<path d="M342.881 673.746L343.041 673.026L343.441 672.386L344.081 671.986L344.801 671.826L345.521 671.986L346.161 672.386L346.561 673.026L346.721 673.746L346.561 674.466L346.161 675.106L345.521 675.506L344.801 675.666L344.081 675.506L343.441 675.106L343.041 674.466L342.881 673.746Z" stroke="black" stroke-width="1.92" stroke-miterlimit="10" stroke-linecap="round" stroke-linejoin="round"/>
<path d="M423.041 671.906L423.441 672.066" stroke="black" stroke-width="1.92" stroke-miterlimit="10" stroke-linecap="round" stroke-linejoin="round"/>
<path d="M423.761 672.307L423.121 672.147L422.641 671.827" stroke="black" stroke-width="1.92" stroke-miterlimit="10" stroke-linecap="round" stroke-linejoin="round"/>
<path d="M420.801 672.946L420.641 673.586L420.801 674.306L421.201 674.946L421.841 675.346L422.561 675.506L423.201 675.346L423.841 674.946L424.241 674.386" stroke="black" stroke-width="1.92" stroke-miterlimit="10" stroke-linecap="round" stroke-linejoin="round"/>
<path d="M420.561 673.746L420.721 673.026L421.121 672.386L421.761 671.986L422.481 671.826L423.201 671.986L423.841 672.386L424.241 673.026L424.401 673.746L424.241 674.466L423.841 675.106L423.201 675.506L422.481 675.666L421.761 675.506L421.121 675.106L420.721 674.466L420.561 673.746Z" stroke="black" stroke-width="1.92" stroke-miterlimit="10" stroke-linecap="round" stroke-linejoin="round"/>
<path d="M500 663.747V663.907V664.307V682.867" stroke="black" stroke-width="1.92" stroke-miterlimit="10" stroke-linecap="round" stroke-linejoin="round"/>
<path d="M500.64 661.266V661.186V660.866V660.786L500 663.746" stroke="black" stroke-width="1.92" stroke-miterlimit="10" stroke-linecap="round" stroke-linejoin="round"/>
<path d="M500 682.868V683.188V683.268L500.08 682.868" stroke="black" stroke-width="1.92" stroke-miterlimit="10" stroke-linecap="round" stroke-linejoin="round"/>
<path d="M297.361 683.507L297.441 683.907V684.227L297.521 684.307" stroke="black" stroke-width="1.92" stroke-miterlimit="10" stroke-linecap="round" stroke-linejoin="round"/>
<path d="M500.24 682.867L500 684.307L499.92 684.227V683.987V683.507" stroke="black" stroke-width="1.92" stroke-miterlimit="10" stroke-linecap="round" stroke-linejoin="round"/>
<path d="M297.361 683.506V663.986L297.441 663.506V663.026L297.521 662.866L299.921 659.746" stroke="black" stroke-width="1.92" stroke-miterlimit="10" stroke-linecap="round" stroke-linejoin="round"/>
<path d="M500.64 661.266V660.546V660.146V659.826V659.746L500 662.866L499.92 663.026V663.506V663.986" stroke="black" stroke-width="1.92" stroke-miterlimit="10" stroke-linecap="round" stroke-linejoin="round"/>
<path d="M334.08 659.746V659.666V644.466L333.92 643.746L333.44 643.266L332.72 643.106H317.44L316.88 643.266L316.4 643.586" stroke="black" stroke-width="1.92" stroke-miterlimit="10" stroke-linecap="round" stroke-linejoin="round"/>
<path d="M499.92 663.986V683.506" stroke="black" stroke-width="1.92" stroke-miterlimit="10" stroke-linecap="round" stroke-linejoin="round"/>
<path d="M499.921 684.307H297.521" stroke="black" stroke-width="1.92" stroke-miterlimit="10" stroke-linecap="round" stroke-linejoin="round"/>
<path d="M500.64 659.746H299.92" stroke="black" stroke-width="1.92" stroke-miterlimit="10" stroke-linecap="round" stroke-linejoin="round"/>
<path d="M303.92 659.746L316.4 643.586" stroke="black" stroke-width="1.92" stroke-miterlimit="10" stroke-linecap="round" stroke-linejoin="round"/>
</g>
<defs>
<clipPath id="clip0_499_50498">
<rect width="1120" height="792" fill="white"/>
</clipPath>
</defs>
</svg>
