<svg width="1120" height="900" viewBox="0 0 1120 900" fill="none" xmlns="http://www.w3.org/2000/svg">
<path d="M609.28 772.459V773.179L609.04 773.819L608.56 774.219L607.92 774.539H607.28L606.64 774.219L606.24 773.819L605.92 773.179L606 772.459" stroke="black" stroke-width="1.92" stroke-miterlimit="10" stroke-linecap="round" stroke-linejoin="round"/>
<path d="M605.92 772.939L606.16 773.579L606.56 774.059L607.12 774.299L607.76 774.379L608.4 774.219L608.88 773.739L609.2 773.179L609.28 772.539" stroke="black" stroke-width="1.92" stroke-miterlimit="10" stroke-linecap="round" stroke-linejoin="round"/>
<path d="M721.602 780.939V772.459" stroke="black" stroke-width="1.92" stroke-miterlimit="10" stroke-linecap="round" stroke-linejoin="round"/>
<path d="M735.521 781.898H738.561L738.881 781.818L739.041 781.498V771.098" stroke="black" stroke-width="1.92" stroke-miterlimit="10" stroke-linecap="round" stroke-linejoin="round"/>
<path d="M739.842 771.099V781.899L739.682 782.459" stroke="black" stroke-width="1.92" stroke-miterlimit="10" stroke-linecap="round" stroke-linejoin="round"/>
<path d="M720.721 772.459V780.939" stroke="black" stroke-width="1.92" stroke-miterlimit="10" stroke-linecap="round" stroke-linejoin="round"/>
<path d="M720.641 772.459V780.059L720.561 780.619V780.939" stroke="black" stroke-width="1.92" stroke-miterlimit="10" stroke-linecap="round" stroke-linejoin="round"/>
<path d="M731.762 745.979L731.442 745.659L730.962 745.499H714.402L714.002 745.579L713.682 745.819" stroke="black" stroke-width="1.92" stroke-miterlimit="10" stroke-linecap="round" stroke-linejoin="round"/>
<path d="M560.561 772.459V780.059V780.619V780.939" stroke="black" stroke-width="1.92" stroke-miterlimit="10" stroke-linecap="round" stroke-linejoin="round"/>
<path d="M731.762 745.979L732.802 748.379" stroke="black" stroke-width="1.92" stroke-miterlimit="10" stroke-linecap="round" stroke-linejoin="round"/>
<path d="M515.12 772.459L515.2 773.179L514.88 773.819L514.48 774.219L513.84 774.539H513.2L512.56 774.219L512.08 773.819L511.84 773.179V772.459" stroke="black" stroke-width="1.92" stroke-miterlimit="10" stroke-linecap="round" stroke-linejoin="round"/>
<path d="M511.84 772.539L511.92 773.179L512.24 773.739L512.72 774.219L513.36 774.379L514 774.299L514.56 774.059L514.96 773.579L515.2 772.939" stroke="black" stroke-width="1.92" stroke-miterlimit="10" stroke-linecap="round" stroke-linejoin="round"/>
<path d="M385.601 781.898H382.561" stroke="black" stroke-width="1.92" stroke-miterlimit="10" stroke-linecap="round" stroke-linejoin="round"/>
<path d="M399.521 772.459V780.939" stroke="black" stroke-width="1.92" stroke-miterlimit="10" stroke-linecap="round" stroke-linejoin="round"/>
<path d="M386.08 764.539H382.56L382.24 764.699L382.08 764.939" stroke="black" stroke-width="1.92" stroke-miterlimit="10" stroke-linecap="round" stroke-linejoin="round"/>
<path d="M382.08 764.938V781.498L382.24 781.818L382.56 781.898" stroke="black" stroke-width="1.92" stroke-miterlimit="10" stroke-linecap="round" stroke-linejoin="round"/>
<path d="M407.441 745.82L407.121 745.58L406.721 745.5" stroke="black" stroke-width="1.92" stroke-miterlimit="10" stroke-linecap="round" stroke-linejoin="round"/>
<path d="M386.081 763.659H382.081L381.681 763.819L381.361 764.139L381.281 764.539V781.899L381.361 782.379L381.681 782.699L382.081 782.779H385.281" stroke="black" stroke-width="1.92" stroke-miterlimit="10" stroke-linecap="round" stroke-linejoin="round"/>
<path d="M400.4 780.939V772.459" stroke="black" stroke-width="1.92" stroke-miterlimit="10" stroke-linecap="round" stroke-linejoin="round"/>
<path d="M390.16 745.5H406.72" stroke="black" stroke-width="1.92" stroke-miterlimit="10" stroke-linecap="round" stroke-linejoin="round"/>
<path d="M400.56 780.939V780.619L400.48 780.059V772.459" stroke="black" stroke-width="1.92" stroke-miterlimit="10" stroke-linecap="round" stroke-linejoin="round"/>
<path d="M390.161 745.499L389.681 745.659L389.361 745.979" stroke="black" stroke-width="1.92" stroke-miterlimit="10" stroke-linecap="round" stroke-linejoin="round"/>
<path d="M560.561 772.459V780.059V780.619V780.939" stroke="black" stroke-width="1.92" stroke-miterlimit="10" stroke-linecap="round" stroke-linejoin="round"/>
<path d="M389.36 745.979L388.32 748.379" stroke="black" stroke-width="1.92" stroke-miterlimit="10" stroke-linecap="round" stroke-linejoin="round"/>
<path d="M386.081 753.499L381.361 764.219" stroke="black" stroke-width="1.92" stroke-miterlimit="10" stroke-linecap="round" stroke-linejoin="round"/>
<path d="M221.84 727.58L222 726.86L222.4 726.22L223.04 725.82L223.76 725.66L224.48 725.82L225.12 726.22L225.52 726.86L225.68 727.58L225.52 728.3L225.12 728.94L224.48 729.34L223.76 729.5L223.04 729.34L222.4 728.94L222 728.3L221.84 727.58Z" stroke="black" stroke-width="1.92" stroke-miterlimit="10" stroke-linecap="round" stroke-linejoin="round"/>
<path d="M222.48 726.22L222.08 726.86L222 727.58L222.24 728.22L222.64 728.86L223.28 729.18L223.92 729.34L224.64 729.18L225.28 728.78" stroke="black" stroke-width="1.92" stroke-miterlimit="10" stroke-linecap="round" stroke-linejoin="round"/>
<path d="M328.481 728.7L327.921 729.18L327.281 729.42H326.561L325.921 729.18L325.361 728.7L325.041 728.06V727.34L325.281 726.62" stroke="black" stroke-width="1.92" stroke-miterlimit="10" stroke-linecap="round" stroke-linejoin="round"/>
<path d="M325.281 726.54L325.121 727.26L325.201 727.9L325.441 728.54L326.001 729.02L326.641 729.26H327.361L328.001 729.02L328.481 728.54" stroke="black" stroke-width="1.92" stroke-miterlimit="10" stroke-linecap="round" stroke-linejoin="round"/>
<path d="M328.241 726.459L327.361 725.899" stroke="black" stroke-width="1.92" stroke-miterlimit="10" stroke-linecap="round" stroke-linejoin="round"/>
<path d="M187.681 774.06L187.361 774.7L187.281 775.42L187.521 776.14L187.921 776.7L188.561 777.02L189.281 777.18L189.921 777.02L190.561 776.62" stroke="black" stroke-width="1.92" stroke-miterlimit="10" stroke-linecap="round" stroke-linejoin="round"/>
<path d="M187.121 775.42L187.281 774.7L187.681 774.06L188.321 773.66L189.041 773.5L189.761 773.66L190.401 774.06L190.801 774.7L190.961 775.42L190.801 776.14L190.401 776.78L189.761 777.18L189.041 777.34L188.321 777.18L187.681 776.78L187.281 776.14L187.121 775.42Z" stroke="black" stroke-width="1.92" stroke-miterlimit="10" stroke-linecap="round" stroke-linejoin="round"/>
<path d="M187.761 738.3L187.441 738.86L187.281 739.58L187.441 740.3L187.841 740.86L188.481 741.26L189.201 741.42L189.921 741.34L190.481 740.94" stroke="black" stroke-width="1.92" stroke-miterlimit="10" stroke-linecap="round" stroke-linejoin="round"/>
<path d="M187.121 739.66L187.281 738.94L187.681 738.3L188.321 737.9L189.041 737.74L189.761 737.9L190.401 738.3L190.801 738.94L190.961 739.66L190.801 740.38L190.401 741.02L189.761 741.42L189.041 741.58L188.321 741.42L187.681 741.02L187.281 740.38L187.121 739.66Z" stroke="black" stroke-width="1.92" stroke-miterlimit="10" stroke-linecap="round" stroke-linejoin="round"/>
<path d="M187.681 809.899L187.361 810.539L187.281 811.259L187.521 811.899L188.001 812.459L188.641 812.779L189.361 812.859L190.001 812.699L190.561 812.299" stroke="black" stroke-width="1.92" stroke-miterlimit="10" stroke-linecap="round" stroke-linejoin="round"/>
<path d="M187.121 811.18L187.281 810.46L187.681 809.82L188.321 809.42L189.041 809.26L189.761 809.42L190.401 809.82L190.801 810.46L190.961 811.18L190.801 811.9L190.401 812.54L189.761 812.94L189.041 813.1L188.321 812.94L187.681 812.54L187.281 811.9L187.121 811.18Z" stroke="black" stroke-width="1.92" stroke-miterlimit="10" stroke-linecap="round" stroke-linejoin="round"/>
<path d="M179.92 715.74H198.48L198.88 715.66H199.04" stroke="black" stroke-width="1.92" stroke-miterlimit="10" stroke-linecap="round" stroke-linejoin="round"/>
<path d="M199.041 715.66L202.001 712.7L201.921 712.62H201.601" stroke="black" stroke-width="1.92" stroke-miterlimit="10" stroke-linecap="round" stroke-linejoin="round"/>
<path d="M201.601 712.619H183.201H182.801L182.641 712.699" stroke="black" stroke-width="1.92" stroke-miterlimit="10" stroke-linecap="round" stroke-linejoin="round"/>
<path d="M182.641 712.7L179.521 715.66H179.601L179.921 715.74" stroke="black" stroke-width="1.92" stroke-miterlimit="10" stroke-linecap="round" stroke-linejoin="round"/>
<path d="M203.04 712.62L199.92 715.74H199.68L199.28 715.82H198.8H179.28H178.8L178.56 715.74H178.48L181.76 712.62L182 712.54H182.4L182.88 712.46H202.24L202.64 712.54H202.96L203.04 712.62Z" stroke="black" stroke-width="1.92" stroke-miterlimit="10" stroke-linecap="round" stroke-linejoin="round"/>
<path d="M199.92 771.02V770.94" stroke="black" stroke-width="1.92" stroke-miterlimit="10" stroke-linecap="round" stroke-linejoin="round"/>
<path d="M203.04 830.699L199.92 834.779" stroke="black" stroke-width="1.92" stroke-miterlimit="10" stroke-linecap="round" stroke-linejoin="round"/>
<path d="M202.961 767.898V767.498L203.041 767.418" stroke="black" stroke-width="1.92" stroke-miterlimit="10" stroke-linecap="round" stroke-linejoin="round"/>
<path d="M200.16 736.859L200.08 736.699L200 736.299L199.92 735.659V719.499L200 718.699L200.08 718.139L200.16 717.819L202.72 715.259H202.8" stroke="black" stroke-width="1.92" stroke-miterlimit="10" stroke-linecap="round" stroke-linejoin="round"/>
<path d="M178.48 834.86L178.56 834.94H178.88L179.28 835.02H198.8L199.28 834.94L199.68 834.86L199.92 834.78" stroke="black" stroke-width="1.92" stroke-miterlimit="10" stroke-linecap="round" stroke-linejoin="round"/>
<path d="M199.521 791.66V771.42L199.601 771.34L199.761 771.18L199.841 771.1L199.921 771.02" stroke="black" stroke-width="1.92" stroke-miterlimit="10" stroke-linecap="round" stroke-linejoin="round"/>
<path d="M202.961 767.5L233.601 736.86L203.041 767.42" stroke="black" stroke-width="1.92" stroke-miterlimit="10" stroke-linecap="round" stroke-linejoin="round"/>
<path d="M199.92 770.939L235.28 735.659" stroke="black" stroke-width="1.92" stroke-miterlimit="10" stroke-linecap="round" stroke-linejoin="round"/>
<path d="M235.281 735.66L250.481 720.46L250.321 720.62L199.521 771.42" stroke="black" stroke-width="1.92" stroke-miterlimit="10" stroke-linecap="round" stroke-linejoin="round"/>
<path d="M250.48 720.459H270.72" stroke="black" stroke-width="1.92" stroke-miterlimit="10" stroke-linecap="round" stroke-linejoin="round"/>
<path d="M270.72 720.459L270.56 720.619H250.32" stroke="black" stroke-width="1.92" stroke-miterlimit="10" stroke-linecap="round" stroke-linejoin="round"/>
<path d="M270.561 720.62L199.521 791.66" stroke="black" stroke-width="1.92" stroke-miterlimit="10" stroke-linecap="round" stroke-linejoin="round"/>
<path d="M203.041 830.699V788.139" stroke="black" stroke-width="1.92" stroke-miterlimit="10" stroke-linecap="round" stroke-linejoin="round"/>
<path d="M203.041 767.42V736.86" stroke="black" stroke-width="1.92" stroke-miterlimit="10" stroke-linecap="round" stroke-linejoin="round"/>
<path d="M203.041 715.26V712.62" stroke="black" stroke-width="1.92" stroke-miterlimit="10" stroke-linecap="round" stroke-linejoin="round"/>
<path d="M178.48 834.859V715.739" stroke="black" stroke-width="1.92" stroke-miterlimit="10" stroke-linecap="round" stroke-linejoin="round"/>
<path d="M202.801 715.26H280.801" stroke="black" stroke-width="1.92" stroke-miterlimit="10" stroke-linecap="round" stroke-linejoin="round"/>
<path d="M200.16 736.859H234" stroke="black" stroke-width="1.92" stroke-miterlimit="10" stroke-linecap="round" stroke-linejoin="round"/>
<path d="M254.24 736.859H279.36" stroke="black" stroke-width="1.92" stroke-miterlimit="10" stroke-linecap="round" stroke-linejoin="round"/>
<path d="M895.84 728.78L896.48 729.18L897.2 729.34L897.84 729.18L898.48 728.86L898.88 728.22L899.12 727.58L899.04 726.86L898.64 726.22" stroke="black" stroke-width="1.92" stroke-miterlimit="10" stroke-linecap="round" stroke-linejoin="round"/>
<path d="M895.441 727.58L895.601 726.86L896.001 726.22L896.641 725.82L897.361 725.66L898.081 725.82L898.721 726.22L899.121 726.86L899.281 727.58L899.121 728.3L898.721 728.94L898.081 729.34L897.361 729.5L896.641 729.34L896.001 728.94L895.601 728.3L895.441 727.58Z" stroke="black" stroke-width="1.92" stroke-miterlimit="10" stroke-linecap="round" stroke-linejoin="round"/>
<path d="M793.761 725.899L792.881 726.459" stroke="black" stroke-width="1.92" stroke-miterlimit="10" stroke-linecap="round" stroke-linejoin="round"/>
<path d="M792.641 728.54L793.121 729.02L793.761 729.26H794.481L795.121 729.02L795.681 728.54L795.921 727.9L796.001 727.26L795.841 726.54" stroke="black" stroke-width="1.92" stroke-miterlimit="10" stroke-linecap="round" stroke-linejoin="round"/>
<path d="M795.841 726.62L796.081 727.34V728.06L795.761 728.7L795.201 729.18L794.561 729.42H793.841L793.201 729.18L792.641 728.7" stroke="black" stroke-width="1.92" stroke-miterlimit="10" stroke-linecap="round" stroke-linejoin="round"/>
<path d="M930.16 775.42L930.32 774.7L930.72 774.06L931.36 773.66L932.08 773.5L932.8 773.66L933.44 774.06L933.84 774.7L934 775.42L933.84 776.14L933.44 776.78L932.8 777.18L932.08 777.34L931.36 777.18L930.72 776.78L930.32 776.14L930.16 775.42Z" stroke="black" stroke-width="1.92" stroke-miterlimit="10" stroke-linecap="round" stroke-linejoin="round"/>
<path d="M930.561 776.62L931.201 777.02L931.841 777.18L932.561 777.02L933.201 776.7L933.601 776.14L933.841 775.42L933.761 774.7L933.441 774.06" stroke="black" stroke-width="1.92" stroke-miterlimit="10" stroke-linecap="round" stroke-linejoin="round"/>
<path d="M930.16 739.66L930.32 738.94L930.72 738.3L931.36 737.9L932.08 737.74L932.8 737.9L933.44 738.3L933.84 738.94L934 739.66L933.84 740.38L933.44 741.02L932.8 741.42L932.08 741.58L931.36 741.42L930.72 741.02L930.32 740.38L930.16 739.66Z" stroke="black" stroke-width="1.92" stroke-miterlimit="10" stroke-linecap="round" stroke-linejoin="round"/>
<path d="M930.641 740.94L931.201 741.34L931.921 741.42L932.641 741.26L933.281 740.86L933.681 740.3L933.841 739.58L933.681 738.86L933.361 738.3" stroke="black" stroke-width="1.92" stroke-miterlimit="10" stroke-linecap="round" stroke-linejoin="round"/>
<path d="M930.16 811.18L930.32 810.46L930.72 809.82L931.36 809.42L932.08 809.26L932.8 809.42L933.44 809.82L933.84 810.46L934 811.18L933.84 811.9L933.44 812.54L932.8 812.94L932.08 813.1L931.36 812.94L930.72 812.54L930.32 811.9L930.16 811.18Z" stroke="black" stroke-width="1.92" stroke-miterlimit="10" stroke-linecap="round" stroke-linejoin="round"/>
<path d="M930.561 812.299L931.121 812.699L931.761 812.859L932.481 812.779L933.121 812.459L933.601 811.899L933.841 811.259L933.761 810.539L933.441 809.899" stroke="black" stroke-width="1.92" stroke-miterlimit="10" stroke-linecap="round" stroke-linejoin="round"/>
<path d="M937.921 712.619H919.521H919.201L919.121 712.699" stroke="black" stroke-width="1.92" stroke-miterlimit="10" stroke-linecap="round" stroke-linejoin="round"/>
<path d="M919.121 712.7L922.081 715.66H922.241L922.641 715.74" stroke="black" stroke-width="1.92" stroke-miterlimit="10" stroke-linecap="round" stroke-linejoin="round"/>
<path d="M922.641 715.74H941.201L941.521 715.66H941.601" stroke="black" stroke-width="1.92" stroke-miterlimit="10" stroke-linecap="round" stroke-linejoin="round"/>
<path d="M941.6 715.66L938.48 712.7L938.32 712.62H937.92" stroke="black" stroke-width="1.92" stroke-miterlimit="10" stroke-linecap="round" stroke-linejoin="round"/>
<path d="M921.601 791.66V771.42L921.521 771.34L921.361 771.18L921.281 771.1L921.201 771.02" stroke="black" stroke-width="1.92" stroke-miterlimit="10" stroke-linecap="round" stroke-linejoin="round"/>
<path d="M921.201 834.78L921.441 834.86L921.841 834.94L922.321 835.02" stroke="black" stroke-width="1.92" stroke-miterlimit="10" stroke-linecap="round" stroke-linejoin="round"/>
<path d="M921.2 715.74L918.08 712.62L918.16 712.54H918.48L918.88 712.46H938.24L938.72 712.54H939.12L939.36 712.62L942.64 715.74H942.56L942.32 715.82H941.84H922.32H921.84L921.44 715.74H921.2Z" stroke="black" stroke-width="1.92" stroke-miterlimit="10" stroke-linecap="round" stroke-linejoin="round"/>
<path d="M941.84 835.02H922.32" stroke="black" stroke-width="1.92" stroke-miterlimit="10" stroke-linecap="round" stroke-linejoin="round"/>
<path d="M918.08 767.418L918.16 767.498V767.898" stroke="black" stroke-width="1.92" stroke-miterlimit="10" stroke-linecap="round" stroke-linejoin="round"/>
<path d="M921.2 834.779L918.08 830.699" stroke="black" stroke-width="1.92" stroke-miterlimit="10" stroke-linecap="round" stroke-linejoin="round"/>
<path d="M921.201 770.94V771.02" stroke="black" stroke-width="1.92" stroke-miterlimit="10" stroke-linecap="round" stroke-linejoin="round"/>
<path d="M918.32 715.259H918.4L920.96 717.819L921.04 718.139L921.12 718.699L921.2 719.499V735.659L921.12 736.299L921.04 736.699L920.96 736.859" stroke="black" stroke-width="1.92" stroke-miterlimit="10" stroke-linecap="round" stroke-linejoin="round"/>
<path d="M941.84 835.02L942.24 834.94H942.56L942.64 834.86" stroke="black" stroke-width="1.92" stroke-miterlimit="10" stroke-linecap="round" stroke-linejoin="round"/>
<path d="M921.601 771.42L870.801 720.62L870.641 720.46L885.841 735.66L921.201 770.94" stroke="black" stroke-width="1.92" stroke-miterlimit="10" stroke-linecap="round" stroke-linejoin="round"/>
<path d="M870.64 720.46H850.4L850.56 720.62L921.6 791.66" stroke="black" stroke-width="1.92" stroke-miterlimit="10" stroke-linecap="round" stroke-linejoin="round"/>
<path d="M870.801 720.619H850.561" stroke="black" stroke-width="1.92" stroke-miterlimit="10" stroke-linecap="round" stroke-linejoin="round"/>
<path d="M918.161 767.5L887.521 736.86L918.081 767.42" stroke="black" stroke-width="1.92" stroke-miterlimit="10" stroke-linecap="round" stroke-linejoin="round"/>
<path d="M942.641 834.859V715.739" stroke="black" stroke-width="1.92" stroke-miterlimit="10" stroke-linecap="round" stroke-linejoin="round"/>
<path d="M918.08 830.699V788.139" stroke="black" stroke-width="1.92" stroke-miterlimit="10" stroke-linecap="round" stroke-linejoin="round"/>
<path d="M918.08 767.42V736.86" stroke="black" stroke-width="1.92" stroke-miterlimit="10" stroke-linecap="round" stroke-linejoin="round"/>
<path d="M918.08 715.26V712.62" stroke="black" stroke-width="1.92" stroke-miterlimit="10" stroke-linecap="round" stroke-linejoin="round"/>
<path d="M920.961 736.859H887.121" stroke="black" stroke-width="1.92" stroke-miterlimit="10" stroke-linecap="round" stroke-linejoin="round"/>
<path d="M866.88 736.859H841.76" stroke="black" stroke-width="1.92" stroke-miterlimit="10" stroke-linecap="round" stroke-linejoin="round"/>
<path d="M918.32 715.26H840.32" stroke="black" stroke-width="1.92" stroke-miterlimit="10" stroke-linecap="round" stroke-linejoin="round"/>
<path d="M714.641 748.379V748.139L713.441 745.259" stroke="black" stroke-width="1.92" stroke-miterlimit="10" stroke-linecap="round" stroke-linejoin="round"/>
<path d="M713.44 745.259H407.68L406.48 748.139V748.379" stroke="black" stroke-width="1.92" stroke-miterlimit="10" stroke-linecap="round" stroke-linejoin="round"/>
<path d="M406.08 794.539L406 795.179L406.16 795.899L406.64 796.459L407.2 796.779L407.92 796.939L408.64 796.779L409.2 796.299L409.6 795.739" stroke="black" stroke-width="1.92" stroke-miterlimit="10" stroke-linecap="round" stroke-linejoin="round"/>
<path d="M711.521 795.739L711.921 796.299L712.481 796.779L713.201 796.939L713.921 796.779L714.481 796.459L714.961 795.899L715.121 795.179L715.041 794.539" stroke="black" stroke-width="1.92" stroke-miterlimit="10" stroke-linecap="round" stroke-linejoin="round"/>
<path d="M736.641 785.66V785.18V784.78L736.561 784.54" stroke="black" stroke-width="1.92" stroke-miterlimit="10" stroke-linecap="round" stroke-linejoin="round"/>
<path d="M384.56 784.54L384.48 784.78V785.18V785.66" stroke="black" stroke-width="1.92" stroke-miterlimit="10" stroke-linecap="round" stroke-linejoin="round"/>
<path d="M711.441 795.26L711.601 794.54L712.001 793.9L712.641 793.5L713.361 793.34L714.081 793.5L714.641 793.9L715.041 794.54L715.201 795.26L715.041 795.98L714.641 796.54L714.081 796.94L713.361 797.1L712.641 796.94L712.001 796.54L711.601 795.98L711.441 795.26Z" stroke="black" stroke-width="1.92" stroke-miterlimit="10" stroke-linecap="round" stroke-linejoin="round"/>
<path d="M405.92 795.26L406.08 794.54L406.48 793.9L407.04 793.5L407.76 793.34L408.48 793.5L409.12 793.9L409.52 794.54L409.68 795.26L409.52 795.98L409.12 796.54L408.48 796.94L407.76 797.1L407.04 796.94L406.48 796.54L406.08 795.98L405.92 795.26Z" stroke="black" stroke-width="1.92" stroke-miterlimit="10" stroke-linecap="round" stroke-linejoin="round"/>
<path d="M384.48 804.779V785.659" stroke="black" stroke-width="1.92" stroke-miterlimit="10" stroke-linecap="round" stroke-linejoin="round"/>
<path d="M736.641 785.659V804.779" stroke="black" stroke-width="1.92" stroke-miterlimit="10" stroke-linecap="round" stroke-linejoin="round"/>
<path d="M384.561 784.539L386.001 780.939" stroke="black" stroke-width="1.92" stroke-miterlimit="10" stroke-linecap="round" stroke-linejoin="round"/>
<path d="M384.48 804.78V805.18V805.42V805.58" stroke="black" stroke-width="1.92" stroke-miterlimit="10" stroke-linecap="round" stroke-linejoin="round"/>
<path d="M736.641 805.58V805.42V805.18V804.78" stroke="black" stroke-width="1.92" stroke-miterlimit="10" stroke-linecap="round" stroke-linejoin="round"/>
<path d="M386 780.939H735.12L736.56 784.539" stroke="black" stroke-width="1.92" stroke-miterlimit="10" stroke-linecap="round" stroke-linejoin="round"/>
<path d="M384.48 805.58H736.64" stroke="black" stroke-width="1.92" stroke-miterlimit="10" stroke-linecap="round" stroke-linejoin="round"/>
<path d="M407.521 761.498L407.441 762.218L407.601 762.858L408.001 763.418L408.641 763.818L409.281 763.898L410.001 763.818L410.561 763.418L410.961 762.778" stroke="black" stroke-width="1.92" stroke-miterlimit="10" stroke-linecap="round" stroke-linejoin="round"/>
<path d="M710.16 762.778L710.56 763.418L711.12 763.818L711.84 763.898L712.48 763.818L713.12 763.418L713.52 762.858L713.68 762.218L713.6 761.498" stroke="black" stroke-width="1.92" stroke-miterlimit="10" stroke-linecap="round" stroke-linejoin="round"/>
<path d="M735.041 752.779V752.299V751.899L734.961 751.659" stroke="black" stroke-width="1.92" stroke-miterlimit="10" stroke-linecap="round" stroke-linejoin="round"/>
<path d="M386.16 751.659L386.08 751.899V752.299V752.779" stroke="black" stroke-width="1.92" stroke-miterlimit="10" stroke-linecap="round" stroke-linejoin="round"/>
<path d="M710.08 762.219L710.24 761.579L710.64 760.939L711.2 760.539L711.92 760.379L712.64 760.539L713.2 760.939L713.6 761.579L713.76 762.219L713.6 762.939L713.2 763.579L712.64 763.979L711.92 764.139L711.2 763.979L710.64 763.579L710.24 762.939L710.08 762.219Z" stroke="black" stroke-width="1.92" stroke-miterlimit="10" stroke-linecap="round" stroke-linejoin="round"/>
<path d="M407.361 762.219L407.521 761.579L407.921 760.939L408.481 760.539L409.201 760.379L409.921 760.539L410.481 760.939L410.881 761.579L411.041 762.219L410.881 762.939L410.481 763.579L409.921 763.979L409.201 764.139L408.481 763.979L407.921 763.579L407.521 762.939L407.361 762.219Z" stroke="black" stroke-width="1.92" stroke-miterlimit="10" stroke-linecap="round" stroke-linejoin="round"/>
<path d="M386.08 771.74V752.78" stroke="black" stroke-width="1.92" stroke-miterlimit="10" stroke-linecap="round" stroke-linejoin="round"/>
<path d="M735.041 752.78V771.74" stroke="black" stroke-width="1.92" stroke-miterlimit="10" stroke-linecap="round" stroke-linejoin="round"/>
<path d="M386.16 751.66L387.6 748.46V748.38" stroke="black" stroke-width="1.92" stroke-miterlimit="10" stroke-linecap="round" stroke-linejoin="round"/>
<path d="M386.08 771.739V772.139V772.379L386.16 772.459" stroke="black" stroke-width="1.92" stroke-miterlimit="10" stroke-linecap="round" stroke-linejoin="round"/>
<path d="M733.521 748.459V748.379" stroke="black" stroke-width="1.92" stroke-miterlimit="10" stroke-linecap="round" stroke-linejoin="round"/>
<path d="M734.961 772.459L735.041 772.379V772.139V771.739" stroke="black" stroke-width="1.92" stroke-miterlimit="10" stroke-linecap="round" stroke-linejoin="round"/>
<path d="M733.521 748.46L734.961 751.66" stroke="black" stroke-width="1.92" stroke-miterlimit="10" stroke-linecap="round" stroke-linejoin="round"/>
<path d="M387.602 748.379H733.522" stroke="black" stroke-width="1.92" stroke-miterlimit="10" stroke-linecap="round" stroke-linejoin="round"/>
<path d="M386.16 772.459H734.96" stroke="black" stroke-width="1.92" stroke-miterlimit="10" stroke-linecap="round" stroke-linejoin="round"/>
<path d="M708.801 806.62L709.121 807.18L709.681 807.58L710.321 807.74L711.041 807.66L711.601 807.34L712.081 806.86L712.321 806.22V805.58" stroke="black" stroke-width="1.92" stroke-miterlimit="10" stroke-linecap="round" stroke-linejoin="round"/>
<path d="M408.801 805.58V806.22L409.041 806.86L409.521 807.34L410.081 807.66L410.801 807.74L411.441 807.58L412.001 807.18L412.321 806.62" stroke="black" stroke-width="1.92" stroke-miterlimit="10" stroke-linecap="round" stroke-linejoin="round"/>
<path d="M733.441 805.58V813.9V814.46V814.86L733.361 815.02" stroke="black" stroke-width="1.92" stroke-miterlimit="10" stroke-linecap="round" stroke-linejoin="round"/>
<path d="M387.682 813.9V814.46V814.86L387.762 815.02" stroke="black" stroke-width="1.92" stroke-miterlimit="10" stroke-linecap="round" stroke-linejoin="round"/>
<path d="M712.321 805.578L712.401 806.218L712.161 806.858L711.761 807.418L711.201 807.818L710.561 807.898L709.841 807.818L709.281 807.418L708.881 806.858L708.721 806.218L708.801 805.578" stroke="black" stroke-width="1.92" stroke-miterlimit="10" stroke-linecap="round" stroke-linejoin="round"/>
<path d="M412.321 805.578L412.401 806.218L412.241 806.858L411.841 807.418L411.281 807.818L410.561 807.898L409.921 807.818L409.361 807.418L408.961 806.858L408.721 806.218L408.801 805.578" stroke="black" stroke-width="1.92" stroke-miterlimit="10" stroke-linecap="round" stroke-linejoin="round"/>
<path d="M387.682 813.898V805.578" stroke="black" stroke-width="1.92" stroke-miterlimit="10" stroke-linecap="round" stroke-linejoin="round"/>
<path d="M733.362 815.02H387.762" stroke="black" stroke-width="1.92" stroke-miterlimit="10" stroke-linecap="round" stroke-linejoin="round"/>
<path d="M716.801 725.819L716.081 726.379L715.201 726.539" stroke="black" stroke-width="1.92" stroke-miterlimit="10" stroke-linecap="round" stroke-linejoin="round"/>
<path d="M405.92 726.539L405.04 726.379L404.32 725.819" stroke="black" stroke-width="1.92" stroke-miterlimit="10" stroke-linecap="round" stroke-linejoin="round"/>
<path d="M714.801 728.3L715.281 728.86L715.841 729.18L716.561 729.34L717.281 729.18L717.841 728.78L718.241 728.22L718.401 727.5L718.321 726.86" stroke="black" stroke-width="1.92" stroke-miterlimit="10" stroke-linecap="round" stroke-linejoin="round"/>
<path d="M402.801 726.86L402.721 727.5L402.881 728.22L403.281 728.78L403.841 729.18L404.561 729.34L405.281 729.18L405.841 728.86L406.321 728.3" stroke="black" stroke-width="1.92" stroke-miterlimit="10" stroke-linecap="round" stroke-linejoin="round"/>
<path d="M718.321 726.94L718.481 727.58L718.321 728.3L717.921 728.94L717.281 729.34L716.561 729.5L715.921 729.34L715.281 728.94L714.881 728.38" stroke="black" stroke-width="1.92" stroke-miterlimit="10" stroke-linecap="round" stroke-linejoin="round"/>
<path d="M406.241 728.38L405.841 728.94L405.201 729.34L404.561 729.5L403.841 729.34L403.201 728.94L402.801 728.3L402.641 727.58L402.801 726.94" stroke="black" stroke-width="1.92" stroke-miterlimit="10" stroke-linecap="round" stroke-linejoin="round"/>
<path d="M404.561 725.819L405.121 726.219L405.841 726.379" stroke="black" stroke-width="1.92" stroke-miterlimit="10" stroke-linecap="round" stroke-linejoin="round"/>
<path d="M715.281 726.379L716.001 726.219L716.561 725.819" stroke="black" stroke-width="1.92" stroke-miterlimit="10" stroke-linecap="round" stroke-linejoin="round"/>
<path d="M639.12 736.859H482" stroke="black" stroke-width="1.92" stroke-miterlimit="10" stroke-linecap="round" stroke-linejoin="round"/>
<path d="M638.561 715.26H482.561" stroke="black" stroke-width="1.92" stroke-miterlimit="10" stroke-linecap="round" stroke-linejoin="round"/>
<path d="M901.041 771.1H735.041" stroke="black" stroke-width="1.92" stroke-miterlimit="10" stroke-linecap="round" stroke-linejoin="round"/>
<path d="M918.081 749.898H900.561" stroke="black" stroke-width="1.92" stroke-miterlimit="10" stroke-linecap="round" stroke-linejoin="round"/>
<path d="M879.84 749.898H734.16" stroke="black" stroke-width="1.92" stroke-miterlimit="10" stroke-linecap="round" stroke-linejoin="round"/>
<path d="M848.721 795.979L849.281 796.459L849.921 796.699H850.641L851.281 796.459L851.761 795.899L852.081 795.259V794.619L851.841 793.899" stroke="black" stroke-width="1.92" stroke-miterlimit="10" stroke-linecap="round" stroke-linejoin="round"/>
<path d="M873.521 804.139L873.601 803.979L873.681 803.579V802.939V787.099V786.379L873.601 785.739L873.521 785.419L871.281 782.459" stroke="black" stroke-width="1.92" stroke-miterlimit="10" stroke-linecap="round" stroke-linejoin="round"/>
<path d="M848.48 795.019L848.64 794.299L849.04 793.739L849.68 793.339L850.4 793.179L851.12 793.339L851.68 793.739L852.08 794.299L852.24 795.019L852.08 795.739L851.68 796.379L851.12 796.779L850.4 796.939L849.68 796.779L849.04 796.379L848.64 795.739L848.48 795.019Z" stroke="black" stroke-width="1.92" stroke-miterlimit="10" stroke-linecap="round" stroke-linejoin="round"/>
<path d="M873.521 804.139H736.641" stroke="black" stroke-width="1.92" stroke-miterlimit="10" stroke-linecap="round" stroke-linejoin="round"/>
<path d="M871.282 782.459H735.762" stroke="black" stroke-width="1.92" stroke-miterlimit="10" stroke-linecap="round" stroke-linejoin="round"/>
<path d="M690.24 743.578L690.32 743.498L690.64 743.418L691.12 743.338H691.76H692.4L692.88 743.418L693.28 743.498L693.44 743.578L693.36 743.658L693.04 743.818H692.56L691.92 743.898L691.28 743.818H690.8L690.4 743.658L690.24 743.578Z" stroke="black" stroke-width="1.92" stroke-miterlimit="10" stroke-linecap="round" stroke-linejoin="round"/>
<path d="M731.361 742.219L732.561 745.019L732.641 745.179V745.499V745.979V748.059" stroke="black" stroke-width="1.92" stroke-miterlimit="10" stroke-linecap="round" stroke-linejoin="round"/>
<path d="M560.561 742.22V745.02V745.26" stroke="black" stroke-width="1.92" stroke-miterlimit="10" stroke-linecap="round" stroke-linejoin="round"/>
<path d="M722.48 779.82V772.46" stroke="black" stroke-width="1.92" stroke-miterlimit="10" stroke-linecap="round" stroke-linejoin="round"/>
<path d="M737.121 780.459L737.601 780.299L737.761 779.819V771.099" stroke="black" stroke-width="1.92" stroke-miterlimit="10" stroke-linecap="round" stroke-linejoin="round"/>
<path d="M722.48 779.819L722.72 780.299L723.12 780.459H737.12" stroke="black" stroke-width="1.92" stroke-miterlimit="10" stroke-linecap="round" stroke-linejoin="round"/>
<path d="M738.641 771.1V780.06L738.481 780.7L738.001 781.18L737.361 781.34H735.281" stroke="black" stroke-width="1.92" stroke-miterlimit="10" stroke-linecap="round" stroke-linejoin="round"/>
<path d="M721.682 772.459V780.059L721.762 780.539L722.082 780.939" stroke="black" stroke-width="1.92" stroke-miterlimit="10" stroke-linecap="round" stroke-linejoin="round"/>
<path d="M560.561 742.139H731.361" stroke="black" stroke-width="1.92" stroke-miterlimit="10" stroke-linecap="round" stroke-linejoin="round"/>
<path d="M721.602 780.139L721.762 780.539" stroke="black" stroke-width="1.92" stroke-miterlimit="10" stroke-linecap="round" stroke-linejoin="round"/>
<path d="M427.682 743.578L427.842 743.498L428.242 743.418L428.722 743.338H429.362H430.002L430.482 743.418L430.802 743.498L430.882 743.578L430.722 743.658L430.322 743.818H429.842L429.202 743.898L428.562 743.818H428.082L427.762 743.658L427.682 743.578Z" stroke="black" stroke-width="1.92" stroke-miterlimit="10" stroke-linecap="round" stroke-linejoin="round"/>
<path d="M384.881 769.259V768.619V767.979L384.961 767.579V767.339H385.041L385.121 767.579V768.059V768.699V769.339V769.979L385.041 770.459L384.961 770.699L384.881 770.379V769.899V769.259Z" stroke="black" stroke-width="1.92" stroke-miterlimit="10" stroke-linecap="round" stroke-linejoin="round"/>
<path d="M560.561 742.219V742.139" stroke="black" stroke-width="1.92" stroke-miterlimit="10" stroke-linecap="round" stroke-linejoin="round"/>
<path d="M388.561 745.02L389.761 742.22" stroke="black" stroke-width="1.92" stroke-miterlimit="10" stroke-linecap="round" stroke-linejoin="round"/>
<path d="M560.561 742.22V745.02" stroke="black" stroke-width="1.92" stroke-miterlimit="10" stroke-linecap="round" stroke-linejoin="round"/>
<path d="M388.48 748.059V745.979V745.499V745.179L388.56 745.019" stroke="black" stroke-width="1.92" stroke-miterlimit="10" stroke-linecap="round" stroke-linejoin="round"/>
<path d="M560.561 745.26V745.02" stroke="black" stroke-width="1.92" stroke-miterlimit="10" stroke-linecap="round" stroke-linejoin="round"/>
<path d="M398 780.459L398.4 780.299L398.64 779.819V772.459" stroke="black" stroke-width="1.92" stroke-miterlimit="10" stroke-linecap="round" stroke-linejoin="round"/>
<path d="M383.361 779.819L383.521 780.299L384.001 780.459H398.001" stroke="black" stroke-width="1.92" stroke-miterlimit="10" stroke-linecap="round" stroke-linejoin="round"/>
<path d="M386.081 765.18H384.001L383.521 765.42L383.361 765.82V779.82" stroke="black" stroke-width="1.92" stroke-miterlimit="10" stroke-linecap="round" stroke-linejoin="round"/>
<path d="M385.84 781.34H383.76L383.12 781.18L382.64 780.7L382.48 780.06V765.66L382.64 765.02L383.12 764.54" stroke="black" stroke-width="1.92" stroke-miterlimit="10" stroke-linecap="round" stroke-linejoin="round"/>
<path d="M399.441 772.459V780.059L399.361 780.539L399.041 780.939" stroke="black" stroke-width="1.92" stroke-miterlimit="10" stroke-linecap="round" stroke-linejoin="round"/>
<path d="M560.562 742.139H389.762" stroke="black" stroke-width="1.92" stroke-miterlimit="10" stroke-linecap="round" stroke-linejoin="round"/>
<path d="M382.881 764.54L382.641 765.1" stroke="black" stroke-width="1.92" stroke-miterlimit="10" stroke-linecap="round" stroke-linejoin="round"/>
<path d="M399.521 780.139L399.361 780.539" stroke="black" stroke-width="1.92" stroke-miterlimit="10" stroke-linecap="round" stroke-linejoin="round"/>
<path d="M791.281 715.34L791.361 715.18L791.761 715.1L792.321 715.02H793.041H793.761L794.401 715.1L794.881 715.18L795.121 715.34L795.041 715.42L794.721 715.5L794.081 715.58H793.441H792.641L792.001 715.5L791.521 715.42L791.281 715.34Z" stroke="black" stroke-width="1.92" stroke-miterlimit="10" stroke-linecap="round" stroke-linejoin="round"/>
<path d="M807.281 709.26V708.62L807.361 708.06L807.441 707.74H807.521L807.601 707.98L807.681 708.46V709.1V709.82V710.54V711.02L807.601 711.34H807.521L807.441 711.1L807.361 710.62L807.281 709.98V709.26Z" stroke="black" stroke-width="1.92" stroke-miterlimit="10" stroke-linecap="round" stroke-linejoin="round"/>
<path d="M792.641 728.7L793.201 729.18L793.841 729.42H794.561L795.201 729.18L795.761 728.7L796.081 728.06V727.34L795.841 726.62" stroke="black" stroke-width="1.92" stroke-miterlimit="10" stroke-linecap="round" stroke-linejoin="round"/>
<path d="M792.4 727.74L792.56 727.02L792.96 726.38L793.6 725.98L794.32 725.82L795.04 725.98L795.68 726.38L796.08 727.02L796.24 727.74L796.08 728.46L795.68 729.1L795.04 729.5L794.32 729.66L793.6 729.5L792.96 729.1L792.56 728.46L792.4 727.74Z" stroke="black" stroke-width="1.92" stroke-miterlimit="10" stroke-linecap="round" stroke-linejoin="round"/>
<path d="M715.682 726.059L716.082 725.899" stroke="black" stroke-width="1.92" stroke-miterlimit="10" stroke-linecap="round" stroke-linejoin="round"/>
<path d="M716.481 725.819L716.001 726.139L715.361 726.299" stroke="black" stroke-width="1.92" stroke-miterlimit="10" stroke-linecap="round" stroke-linejoin="round"/>
<path d="M714.881 728.38L715.281 728.94L715.921 729.34L716.561 729.5L717.281 729.34L717.921 728.94L718.321 728.3L718.481 727.58L718.321 726.94" stroke="black" stroke-width="1.92" stroke-miterlimit="10" stroke-linecap="round" stroke-linejoin="round"/>
<path d="M714.721 727.74L714.881 727.02L715.281 726.38L715.921 725.98L716.641 725.82L717.361 725.98L718.001 726.38L718.401 727.02L718.561 727.74L718.401 728.46L718.001 729.1L717.361 729.5L716.641 729.66L715.921 729.5L715.281 729.1L714.881 728.46L714.721 727.74Z" stroke="black" stroke-width="1.92" stroke-miterlimit="10" stroke-linecap="round" stroke-linejoin="round"/>
<path d="M639.041 736.86L639.121 737.26V737.18V736.86V718.3" stroke="black" stroke-width="1.92" stroke-miterlimit="10" stroke-linecap="round" stroke-linejoin="round"/>
<path d="M638.48 714.78V714.86V715.18V715.26" stroke="black" stroke-width="1.92" stroke-miterlimit="10" stroke-linecap="round" stroke-linejoin="round"/>
<path d="M639.12 718.299V717.899V717.739L638.48 714.779" stroke="black" stroke-width="1.92" stroke-miterlimit="10" stroke-linecap="round" stroke-linejoin="round"/>
<path d="M841.762 717.979L841.682 717.499V717.019L841.602 716.859" stroke="black" stroke-width="1.92" stroke-miterlimit="10" stroke-linecap="round" stroke-linejoin="round"/>
<path d="M639.121 716.859L639.201 717.019V717.499V717.979" stroke="black" stroke-width="1.92" stroke-miterlimit="10" stroke-linecap="round" stroke-linejoin="round"/>
<path d="M839.201 713.739L841.601 716.859" stroke="black" stroke-width="1.92" stroke-miterlimit="10" stroke-linecap="round" stroke-linejoin="round"/>
<path d="M639.12 716.859L638.48 713.739" stroke="black" stroke-width="1.92" stroke-miterlimit="10" stroke-linecap="round" stroke-linejoin="round"/>
<path d="M841.762 717.979V737.499L841.682 737.899V738.219L841.602 738.299" stroke="black" stroke-width="1.92" stroke-miterlimit="10" stroke-linecap="round" stroke-linejoin="round"/>
<path d="M638.48 715.26V714.54V714.14V713.82V713.74" stroke="black" stroke-width="1.92" stroke-miterlimit="10" stroke-linecap="round" stroke-linejoin="round"/>
<path d="M638.881 736.859L639.121 738.299L639.201 738.219V737.979V737.499" stroke="black" stroke-width="1.92" stroke-miterlimit="10" stroke-linecap="round" stroke-linejoin="round"/>
<path d="M822.72 697.58L822.24 697.26L821.68 697.1H806.4" stroke="black" stroke-width="1.92" stroke-miterlimit="10" stroke-linecap="round" stroke-linejoin="round"/>
<path d="M806.401 697.1L805.681 697.26L805.201 697.74L805.041 698.46V713.66V713.74" stroke="black" stroke-width="1.92" stroke-miterlimit="10" stroke-linecap="round" stroke-linejoin="round"/>
<path d="M639.201 737.5V717.98" stroke="black" stroke-width="1.92" stroke-miterlimit="10" stroke-linecap="round" stroke-linejoin="round"/>
<path d="M638.48 713.74H839.2" stroke="black" stroke-width="1.92" stroke-miterlimit="10" stroke-linecap="round" stroke-linejoin="round"/>
<path d="M639.201 738.299H841.601" stroke="black" stroke-width="1.92" stroke-miterlimit="10" stroke-linecap="round" stroke-linejoin="round"/>
<path d="M835.201 713.74L822.721 697.58" stroke="black" stroke-width="1.92" stroke-miterlimit="10" stroke-linecap="round" stroke-linejoin="round"/>
<path d="M326 715.34L326.24 715.18L326.72 715.1L327.36 715.02H328.08H328.8L329.36 715.1L329.76 715.18L329.84 715.34L329.6 715.42L329.12 715.5L328.48 715.58H327.68H327.04L326.4 715.5L326.08 715.42L326 715.34Z" stroke="black" stroke-width="1.92" stroke-miterlimit="10" stroke-linecap="round" stroke-linejoin="round"/>
<path d="M313.441 709.82V709.1V708.46L313.521 707.98L313.601 707.74H313.681L313.761 708.06L313.841 708.62V709.26V709.98L313.761 710.62L313.681 711.1L313.601 711.34H313.521L313.441 711.02V710.54V709.82Z" stroke="black" stroke-width="1.92" stroke-miterlimit="10" stroke-linecap="round" stroke-linejoin="round"/>
<path d="M325.281 726.62L325.041 727.34V728.06L325.361 728.7L325.921 729.18L326.561 729.42H327.281L327.921 729.18L328.481 728.7" stroke="black" stroke-width="1.92" stroke-miterlimit="10" stroke-linecap="round" stroke-linejoin="round"/>
<path d="M324.881 727.74L325.041 727.02L325.441 726.38L326.081 725.98L326.801 725.82L327.521 725.98L328.161 726.38L328.561 727.02L328.721 727.74L328.561 728.46L328.161 729.1L327.521 729.5L326.801 729.66L326.081 729.5L325.441 729.1L325.041 728.46L324.881 727.74Z" stroke="black" stroke-width="1.92" stroke-miterlimit="10" stroke-linecap="round" stroke-linejoin="round"/>
<path d="M405.041 725.899L405.441 726.059" stroke="black" stroke-width="1.92" stroke-miterlimit="10" stroke-linecap="round" stroke-linejoin="round"/>
<path d="M405.761 726.299L405.121 726.139L404.641 725.819" stroke="black" stroke-width="1.92" stroke-miterlimit="10" stroke-linecap="round" stroke-linejoin="round"/>
<path d="M402.801 726.94L402.641 727.58L402.801 728.3L403.201 728.94L403.841 729.34L404.561 729.5L405.201 729.34L405.841 728.94L406.241 728.38" stroke="black" stroke-width="1.92" stroke-miterlimit="10" stroke-linecap="round" stroke-linejoin="round"/>
<path d="M402.561 727.74L402.721 727.02L403.121 726.38L403.761 725.98L404.481 725.82L405.201 725.98L405.841 726.38L406.241 727.02L406.401 727.74L406.241 728.46L405.841 729.1L405.201 729.5L404.481 729.66L403.761 729.5L403.121 729.1L402.721 728.46L402.561 727.74Z" stroke="black" stroke-width="1.92" stroke-miterlimit="10" stroke-linecap="round" stroke-linejoin="round"/>
<path d="M482 717.739V717.899V718.299V736.859" stroke="black" stroke-width="1.92" stroke-miterlimit="10" stroke-linecap="round" stroke-linejoin="round"/>
<path d="M482.64 715.26V715.18V714.86V714.78L482 717.74" stroke="black" stroke-width="1.92" stroke-miterlimit="10" stroke-linecap="round" stroke-linejoin="round"/>
<path d="M482 736.86V737.18V737.26L482.08 736.86" stroke="black" stroke-width="1.92" stroke-miterlimit="10" stroke-linecap="round" stroke-linejoin="round"/>
<path d="M279.361 737.499L279.441 737.899V738.219L279.521 738.299" stroke="black" stroke-width="1.92" stroke-miterlimit="10" stroke-linecap="round" stroke-linejoin="round"/>
<path d="M482.24 736.859L482 738.299L481.92 738.219V737.979V737.499" stroke="black" stroke-width="1.92" stroke-miterlimit="10" stroke-linecap="round" stroke-linejoin="round"/>
<path d="M279.361 737.5V717.98L279.441 717.5V717.02L279.521 716.86L281.921 713.74" stroke="black" stroke-width="1.92" stroke-miterlimit="10" stroke-linecap="round" stroke-linejoin="round"/>
<path d="M482.64 715.259V714.539V714.139V713.819V713.739L482 716.859L481.92 717.019V717.499V717.979" stroke="black" stroke-width="1.92" stroke-miterlimit="10" stroke-linecap="round" stroke-linejoin="round"/>
<path d="M316.08 713.74V713.66V698.46L315.92 697.74L315.44 697.26L314.72 697.1H299.44L298.88 697.26L298.4 697.58" stroke="black" stroke-width="1.92" stroke-miterlimit="10" stroke-linecap="round" stroke-linejoin="round"/>
<path d="M481.92 717.98V737.5" stroke="black" stroke-width="1.92" stroke-miterlimit="10" stroke-linecap="round" stroke-linejoin="round"/>
<path d="M481.921 738.299H279.521" stroke="black" stroke-width="1.92" stroke-miterlimit="10" stroke-linecap="round" stroke-linejoin="round"/>
<path d="M482.64 713.74H281.92" stroke="black" stroke-width="1.92" stroke-miterlimit="10" stroke-linecap="round" stroke-linejoin="round"/>
<path d="M285.92 713.74L298.4 697.58" stroke="black" stroke-width="1.92" stroke-miterlimit="10" stroke-linecap="round" stroke-linejoin="round"/>
</svg>
