<svg width="1120" height="900" viewBox="0 0 1120 900" fill="none" xmlns="http://www.w3.org/2000/svg">
<path d="M782.48 602.94L782.96 602.86L783.36 602.62L783.6 602.22L783.76 601.82L783.68 602.3L783.36 602.7L782.96 602.94L782.48 603.02" stroke="black" stroke-width="1.92" stroke-miterlimit="10" stroke-linecap="round" stroke-linejoin="round"/>
<path d="M782.721 603.821L783.121 604.141L783.601 604.221L784.081 604.141L784.481 603.901L784.801 603.501L784.961 603.021L784.881 602.541L784.641 602.141" stroke="black" stroke-width="1.92" stroke-miterlimit="10" stroke-linecap="round" stroke-linejoin="round"/>
<path d="M782.48 603.021L782.56 602.541L782.8 602.141L783.2 601.901L783.76 601.821L784.24 601.901L784.64 602.141L784.88 602.541L784.96 603.021L784.88 603.501L784.64 603.901L784.24 604.221L783.76 604.301L783.2 604.221L782.8 603.901L782.56 603.501L782.48 603.021Z" stroke="black" stroke-width="1.92" stroke-miterlimit="10" stroke-linecap="round" stroke-linejoin="round"/>
<path d="M715.84 601.9L715.6 602.46L715.2 602.78M715.2 602.78L714.72 603.02L714.24 602.94H714.72L715.2 602.78ZM715.2 602.78L715.6 602.38L715.76 601.9" stroke="black" stroke-width="1.92" stroke-miterlimit="10" stroke-linecap="round" stroke-linejoin="round"/>
<path d="M714.32 603.741L714.64 604.061L715.12 604.221H715.6L716 604.061L716.32 603.741L716.56 603.341V602.861L716.48 602.381L716.64 602.861V603.341L716.4 603.821L716.08 604.141L715.6 604.301H715.12L714.72 604.141L714.32 603.741Z" stroke="black" stroke-width="1.92" stroke-miterlimit="10" stroke-linecap="round" stroke-linejoin="round"/>
<path d="M805.44 634.7L805.52 634.22L805.84 633.82L806.24 633.5L806.72 633.42L807.2 633.5L807.6 633.82L807.84 634.22L807.92 634.7L807.84 635.18L807.6 635.58L807.2 635.9L806.72 635.98L806.24 635.9L805.84 635.58L805.52 635.18L805.44 634.7Z" stroke="black" stroke-width="1.92" stroke-miterlimit="10" stroke-linecap="round" stroke-linejoin="round"/>
<path d="M805.681 635.5L806.081 635.74L806.561 635.9L807.041 635.82L807.441 635.58L807.761 635.18L807.921 634.7L807.841 634.22L807.601 633.82" stroke="black" stroke-width="1.92" stroke-miterlimit="10" stroke-linecap="round" stroke-linejoin="round"/>
<path d="M805.44 611.021L805.52 610.541L805.84 610.141L806.24 609.821L806.72 609.741L807.2 609.821L807.6 610.141L807.84 610.541L807.92 611.021L807.84 611.501L807.6 611.901L807.2 612.221L806.72 612.301L806.24 612.221L805.84 611.901L805.52 611.501L805.44 611.021Z" stroke="black" stroke-width="1.92" stroke-miterlimit="10" stroke-linecap="round" stroke-linejoin="round"/>
<path d="M805.761 611.901L806.161 612.141L806.641 612.221L807.121 612.141L807.521 611.821L807.761 611.501L807.921 611.021L807.841 610.541L807.521 610.141" stroke="black" stroke-width="1.92" stroke-miterlimit="10" stroke-linecap="round" stroke-linejoin="round"/>
<path d="M805.44 658.38L805.52 657.9L805.84 657.5L806.24 657.18L806.72 657.1L807.2 657.18L807.6 657.5L807.84 657.9L807.92 658.38L807.84 658.86L807.6 659.26L807.2 659.58L806.72 659.66L806.24 659.58L805.84 659.26L805.52 658.86L805.44 658.38Z" stroke="black" stroke-width="1.92" stroke-miterlimit="10" stroke-linecap="round" stroke-linejoin="round"/>
<path d="M805.681 659.1L806.081 659.42L806.561 659.58L807.041 659.5L807.441 659.26L807.761 658.94L807.841 658.46V657.98L807.601 657.5" stroke="black" stroke-width="1.92" stroke-miterlimit="10" stroke-linecap="round" stroke-linejoin="round"/>
<path d="M806.321 657.18L806.001 657.58L805.601 657.82" stroke="black" stroke-width="1.92" stroke-miterlimit="10" stroke-linecap="round" stroke-linejoin="round"/>
<path d="M805.681 657.66L806.161 657.26" stroke="black" stroke-width="1.92" stroke-miterlimit="10" stroke-linecap="round" stroke-linejoin="round"/>
<path d="M799.041 593.82H798.881H798.801" stroke="black" stroke-width="1.92" stroke-miterlimit="10" stroke-linecap="round" stroke-linejoin="round"/>
<path d="M798.801 593.82L800.081 595.1L800.241 595.18H800.481" stroke="black" stroke-width="1.92" stroke-miterlimit="10" stroke-linecap="round" stroke-linejoin="round"/>
<path d="M800.48 595.18H812.8H812.96L813.04 595.1L812.8 594.94" stroke="black" stroke-width="1.92" stroke-miterlimit="10" stroke-linecap="round" stroke-linejoin="round"/>
<path d="M799.761 645.5V632.06L799.681 631.98L799.601 631.9L799.521 631.82" stroke="black" stroke-width="1.92" stroke-miterlimit="10" stroke-linecap="round" stroke-linejoin="round"/>
<path d="M812.801 594.3L813.761 595.18H813.681L813.441 595.26H813.201H800.241H799.921L799.601 595.18H799.521" stroke="black" stroke-width="1.92" stroke-miterlimit="10" stroke-linecap="round" stroke-linejoin="round"/>
<path d="M799.041 593.74H798.721H798.401L798.241 593.82H798.161L799.521 595.18" stroke="black" stroke-width="1.92" stroke-miterlimit="10" stroke-linecap="round" stroke-linejoin="round"/>
<path d="M813.201 674.141H806.881" stroke="black" stroke-width="1.92" stroke-miterlimit="10" stroke-linecap="round" stroke-linejoin="round"/>
<path d="M798.161 630.221V630.301V630.461" stroke="black" stroke-width="1.92" stroke-miterlimit="10" stroke-linecap="round" stroke-linejoin="round"/>
<path d="M799.44 609.26V609.18L799.52 608.86V608.38V597.66V597.18L799.44 596.78V596.62L798.24 595.5" stroke="black" stroke-width="1.92" stroke-miterlimit="10" stroke-linecap="round" stroke-linejoin="round"/>
<path d="M813.201 674.141H813.441H813.681L813.761 674.061" stroke="black" stroke-width="1.92" stroke-miterlimit="10" stroke-linecap="round" stroke-linejoin="round"/>
<path d="M799.761 632.061L766.081 598.381L766.001 598.301L776.161 608.381L799.521 631.821" stroke="black" stroke-width="1.92" stroke-miterlimit="10" stroke-linecap="round" stroke-linejoin="round"/>
<path d="M766.001 598.3H752.641L752.721 598.38L799.761 645.5" stroke="black" stroke-width="1.92" stroke-miterlimit="10" stroke-linecap="round" stroke-linejoin="round"/>
<path d="M766.081 598.381H752.721" stroke="black" stroke-width="1.92" stroke-miterlimit="10" stroke-linecap="round" stroke-linejoin="round"/>
<path d="M798.161 630.301L777.201 609.261L798.161 630.221" stroke="black" stroke-width="1.92" stroke-miterlimit="10" stroke-linecap="round" stroke-linejoin="round"/>
<path d="M813.761 674.061V595.181" stroke="black" stroke-width="1.92" stroke-miterlimit="10" stroke-linecap="round" stroke-linejoin="round"/>
<path d="M798.161 663.02V643.82" stroke="black" stroke-width="1.92" stroke-miterlimit="10" stroke-linecap="round" stroke-linejoin="round"/>
<path d="M798.161 630.221V609.261" stroke="black" stroke-width="1.92" stroke-miterlimit="10" stroke-linecap="round" stroke-linejoin="round"/>
<path d="M798.161 595.5V593.82" stroke="black" stroke-width="1.92" stroke-miterlimit="10" stroke-linecap="round" stroke-linejoin="round"/>
<path d="M799.441 609.26H776.961" stroke="black" stroke-width="1.92" stroke-miterlimit="10" stroke-linecap="round" stroke-linejoin="round"/>
<path d="M763.601 609.26H755.921" stroke="black" stroke-width="1.92" stroke-miterlimit="10" stroke-linecap="round" stroke-linejoin="round"/>
<path d="M798.24 595.5H746.48" stroke="black" stroke-width="1.92" stroke-miterlimit="10" stroke-linecap="round" stroke-linejoin="round"/>
<path d="M336.161 602.941L336.321 602.461L336.561 602.061L336.961 601.821L337.441 601.741L337.921 601.821L338.321 602.061L338.641 602.461L338.721 602.941L338.641 603.421L338.321 603.901L337.921 604.141L337.441 604.221L336.961 604.141L336.561 603.901L336.321 603.421L336.161 602.941Z" stroke="black" stroke-width="1.92" stroke-miterlimit="10" stroke-linecap="round" stroke-linejoin="round"/>
<path d="M336.561 602.061L336.321 602.541L336.241 603.021L336.401 603.421L336.641 603.821L337.121 604.061L337.521 604.141L338.001 604.061L338.401 603.821" stroke="black" stroke-width="1.92" stroke-miterlimit="10" stroke-linecap="round" stroke-linejoin="round"/>
<path d="M338.72 602.939L338.24 602.859L337.76 602.619L337.52 602.219L337.36 601.739" stroke="black" stroke-width="1.92" stroke-miterlimit="10" stroke-linecap="round" stroke-linejoin="round"/>
<path d="M337.44 601.739L337.6 602.139L337.84 602.539L338.24 602.779L338.72 602.859" stroke="black" stroke-width="1.92" stroke-miterlimit="10" stroke-linecap="round" stroke-linejoin="round"/>
<path d="M406.801 603.741L406.481 604.061L406.001 604.221H405.521L405.121 604.061L404.801 603.741L404.561 603.341V602.861L404.641 602.381" stroke="black" stroke-width="1.92" stroke-miterlimit="10" stroke-linecap="round" stroke-linejoin="round"/>
<path d="M404.721 602.381L404.561 602.861L404.641 603.341L404.961 603.821L405.361 604.061L405.921 604.141L406.401 604.061L406.801 603.661" stroke="black" stroke-width="1.92" stroke-miterlimit="10" stroke-linecap="round" stroke-linejoin="round"/>
<path d="M406.88 602.939H406.4L405.92 602.779L405.52 602.379L405.36 601.899" stroke="black" stroke-width="1.92" stroke-miterlimit="10" stroke-linecap="round" stroke-linejoin="round"/>
<path d="M405.44 601.899L405.6 602.379L406 602.699L406.4 602.859H406.88" stroke="black" stroke-width="1.92" stroke-miterlimit="10" stroke-linecap="round" stroke-linejoin="round"/>
<path d="M313.601 633.74L313.361 634.14L313.281 634.62L313.441 635.1L313.761 635.5L314.161 635.74L314.641 635.82L315.121 635.74L315.441 635.42" stroke="black" stroke-width="1.92" stroke-miterlimit="10" stroke-linecap="round" stroke-linejoin="round"/>
<path d="M313.201 634.62L313.361 634.14L313.601 633.74L314.001 633.5L314.481 633.34L314.961 633.5L315.361 633.74L315.681 634.14L315.761 634.62L315.681 635.1L315.361 635.5L314.961 635.82L314.481 635.9L314.001 635.82L313.601 635.5L313.361 635.1L313.201 634.62Z" stroke="black" stroke-width="1.92" stroke-miterlimit="10" stroke-linecap="round" stroke-linejoin="round"/>
<path d="M313.601 610.061L313.361 610.461L313.281 610.941L313.441 611.421L313.681 611.821L314.081 612.061L314.561 612.141L315.041 612.061L315.441 611.821" stroke="black" stroke-width="1.92" stroke-miterlimit="10" stroke-linecap="round" stroke-linejoin="round"/>
<path d="M313.201 610.941L313.361 610.461L313.601 610.061L314.001 609.821L314.481 609.661L314.961 609.821L315.361 610.061L315.681 610.461L315.761 610.941L315.681 611.421L315.361 611.821L314.961 612.141L314.481 612.221L314.001 612.141L313.601 611.821L313.361 611.421L313.201 610.941Z" stroke="black" stroke-width="1.92" stroke-miterlimit="10" stroke-linecap="round" stroke-linejoin="round"/>
<path d="M315.041 657.18L315.521 657.58" stroke="black" stroke-width="1.92" stroke-miterlimit="10" stroke-linecap="round" stroke-linejoin="round"/>
<path d="M315.601 657.74L315.201 657.5L314.881 657.1" stroke="black" stroke-width="1.92" stroke-miterlimit="10" stroke-linecap="round" stroke-linejoin="round"/>
<path d="M313.521 657.42L313.361 657.9L313.281 658.38L313.441 658.86L313.761 659.18L314.161 659.42L314.641 659.5L315.121 659.34L315.521 659.02" stroke="black" stroke-width="1.92" stroke-miterlimit="10" stroke-linecap="round" stroke-linejoin="round"/>
<path d="M313.201 658.3L313.361 657.82L313.601 657.42L314.001 657.1L314.481 657.02L314.961 657.1L315.361 657.42L315.681 657.82L315.761 658.3L315.681 658.78L315.361 659.18L314.961 659.5L314.481 659.58L314.001 659.5L313.601 659.18L313.361 658.78L313.201 658.3Z" stroke="black" stroke-width="1.92" stroke-miterlimit="10" stroke-linecap="round" stroke-linejoin="round"/>
<path d="M308.4 595.1H320.72H320.96H321.04" stroke="black" stroke-width="1.92" stroke-miterlimit="10" stroke-linecap="round" stroke-linejoin="round"/>
<path d="M321.041 595.1L322.401 593.82L322.321 593.74H322.081" stroke="black" stroke-width="1.92" stroke-miterlimit="10" stroke-linecap="round" stroke-linejoin="round"/>
<path d="M308.321 594.86L308.161 595.1H308.401" stroke="black" stroke-width="1.92" stroke-miterlimit="10" stroke-linecap="round" stroke-linejoin="round"/>
<path d="M322.081 593.66H322.481H322.801L322.961 593.74H323.041" stroke="black" stroke-width="1.92" stroke-miterlimit="10" stroke-linecap="round" stroke-linejoin="round"/>
<path d="M308.32 594.3L307.44 595.1H307.52L307.68 595.18H308H320.96H321.28L321.52 595.1H321.68L323.04 593.74" stroke="black" stroke-width="1.92" stroke-miterlimit="10" stroke-linecap="round" stroke-linejoin="round"/>
<path d="M323.041 630.381V630.221V630.141" stroke="black" stroke-width="1.92" stroke-miterlimit="10" stroke-linecap="round" stroke-linejoin="round"/>
<path d="M321.761 609.18V609.1L321.681 608.78V608.38V597.58V597.1L321.761 596.78V596.54L322.881 595.42H322.961" stroke="black" stroke-width="1.92" stroke-miterlimit="10" stroke-linecap="round" stroke-linejoin="round"/>
<path d="M314.32 674.061H308H307.76H307.52L307.44 673.981" stroke="black" stroke-width="1.92" stroke-miterlimit="10" stroke-linecap="round" stroke-linejoin="round"/>
<path d="M321.44 645.42V631.98L321.52 631.9V631.82H321.6L321.68 631.74" stroke="black" stroke-width="1.92" stroke-miterlimit="10" stroke-linecap="round" stroke-linejoin="round"/>
<path d="M323.041 630.221L344.001 609.181L323.041 630.141" stroke="black" stroke-width="1.92" stroke-miterlimit="10" stroke-linecap="round" stroke-linejoin="round"/>
<path d="M321.681 631.74L345.041 608.38" stroke="black" stroke-width="1.92" stroke-miterlimit="10" stroke-linecap="round" stroke-linejoin="round"/>
<path d="M345.04 608.38L355.12 598.22V598.3L321.44 631.98" stroke="black" stroke-width="1.92" stroke-miterlimit="10" stroke-linecap="round" stroke-linejoin="round"/>
<path d="M355.121 598.221H368.561" stroke="black" stroke-width="1.92" stroke-miterlimit="10" stroke-linecap="round" stroke-linejoin="round"/>
<path d="M368.561 598.221L368.481 598.301H355.121" stroke="black" stroke-width="1.92" stroke-miterlimit="10" stroke-linecap="round" stroke-linejoin="round"/>
<path d="M368.48 598.3L321.44 645.42" stroke="black" stroke-width="1.92" stroke-miterlimit="10" stroke-linecap="round" stroke-linejoin="round"/>
<path d="M323.041 662.939V643.739" stroke="black" stroke-width="1.92" stroke-miterlimit="10" stroke-linecap="round" stroke-linejoin="round"/>
<path d="M323.041 630.141V609.181" stroke="black" stroke-width="1.92" stroke-miterlimit="10" stroke-linecap="round" stroke-linejoin="round"/>
<path d="M323.041 595.42V593.74" stroke="black" stroke-width="1.92" stroke-miterlimit="10" stroke-linecap="round" stroke-linejoin="round"/>
<path d="M307.44 673.98V595.1" stroke="black" stroke-width="1.92" stroke-miterlimit="10" stroke-linecap="round" stroke-linejoin="round"/>
<path d="M322.961 595.42H374.721" stroke="black" stroke-width="1.92" stroke-miterlimit="10" stroke-linecap="round" stroke-linejoin="round"/>
<path d="M321.761 609.18H344.241" stroke="black" stroke-width="1.92" stroke-miterlimit="10" stroke-linecap="round" stroke-linejoin="round"/>
<path d="M357.601 609.18H364.961" stroke="black" stroke-width="1.92" stroke-miterlimit="10" stroke-linecap="round" stroke-linejoin="round"/>
<path d="M221.841 727.58L222.001 726.86L222.401 726.22L223.041 725.82L223.761 725.66L224.481 725.82L225.121 726.22L225.521 726.86L225.681 727.58L225.521 728.3L225.121 728.94L224.481 729.34L223.761 729.5L223.041 729.34L222.401 728.94L222.001 728.3L221.841 727.58Z" stroke="black" stroke-width="1.92" stroke-miterlimit="10" stroke-linecap="round" stroke-linejoin="round"/>
<path d="M222.481 726.22L222.081 726.86L222.001 727.58L222.241 728.22L222.641 728.86L223.281 729.18L223.921 729.34L224.641 729.18L225.281 728.78" stroke="black" stroke-width="1.92" stroke-miterlimit="10" stroke-linecap="round" stroke-linejoin="round"/>
<path d="M328.481 728.7L327.921 729.18L327.281 729.42H326.561L325.921 729.18L325.361 728.7L325.041 728.06V727.34L325.281 726.62" stroke="black" stroke-width="1.92" stroke-miterlimit="10" stroke-linecap="round" stroke-linejoin="round"/>
<path d="M325.281 726.54L325.121 727.26L325.201 727.9L325.441 728.54L326.001 729.02L326.641 729.26H327.361L328.001 729.02L328.481 728.54" stroke="black" stroke-width="1.92" stroke-miterlimit="10" stroke-linecap="round" stroke-linejoin="round"/>
<path d="M328.24 726.461L327.36 725.901" stroke="black" stroke-width="1.92" stroke-miterlimit="10" stroke-linecap="round" stroke-linejoin="round"/>
<path d="M187.681 774.06L187.361 774.7L187.281 775.42L187.521 776.14L187.921 776.7L188.561 777.02L189.281 777.18L189.921 777.02L190.561 776.62" stroke="black" stroke-width="1.92" stroke-miterlimit="10" stroke-linecap="round" stroke-linejoin="round"/>
<path d="M187.121 775.42L187.281 774.7L187.681 774.06L188.321 773.66L189.041 773.5L189.761 773.66L190.401 774.06L190.801 774.7L190.961 775.42L190.801 776.14L190.401 776.78L189.761 777.18L189.041 777.34L188.321 777.18L187.681 776.78L187.281 776.14L187.121 775.42Z" stroke="black" stroke-width="1.92" stroke-miterlimit="10" stroke-linecap="round" stroke-linejoin="round"/>
<path d="M187.761 738.3L187.441 738.86L187.281 739.58L187.441 740.3L187.841 740.86L188.481 741.26L189.201 741.42L189.921 741.34L190.481 740.94" stroke="black" stroke-width="1.92" stroke-miterlimit="10" stroke-linecap="round" stroke-linejoin="round"/>
<path d="M187.121 739.66L187.281 738.94L187.681 738.3L188.321 737.9L189.041 737.74L189.761 737.9L190.401 738.3L190.801 738.94L190.961 739.66L190.801 740.38L190.401 741.02L189.761 741.42L189.041 741.58L188.321 741.42L187.681 741.02L187.281 740.38L187.121 739.66Z" stroke="black" stroke-width="1.92" stroke-miterlimit="10" stroke-linecap="round" stroke-linejoin="round"/>
<path d="M187.681 809.899L187.361 810.539L187.281 811.259L187.521 811.899L188.001 812.459L188.641 812.779L189.361 812.859L190.001 812.699L190.561 812.299" stroke="black" stroke-width="1.92" stroke-miterlimit="10" stroke-linecap="round" stroke-linejoin="round"/>
<path d="M187.121 811.18L187.281 810.46L187.681 809.82L188.321 809.42L189.041 809.26L189.761 809.42L190.401 809.82L190.801 810.46L190.961 811.18L190.801 811.9L190.401 812.54L189.761 812.94L189.041 813.1L188.321 812.94L187.681 812.54L187.281 811.9L187.121 811.18Z" stroke="black" stroke-width="1.92" stroke-miterlimit="10" stroke-linecap="round" stroke-linejoin="round"/>
<path d="M179.921 715.74H198.481L198.881 715.66H199.041" stroke="black" stroke-width="1.92" stroke-miterlimit="10" stroke-linecap="round" stroke-linejoin="round"/>
<path d="M199.041 715.66L202.001 712.7L201.921 712.62H201.601H201.521" stroke="black" stroke-width="1.92" stroke-miterlimit="10" stroke-linecap="round" stroke-linejoin="round"/>
<path d="M179.921 715.26L179.521 715.66H179.601L179.921 715.74" stroke="black" stroke-width="1.92" stroke-miterlimit="10" stroke-linecap="round" stroke-linejoin="round"/>
<path d="M201.521 712.461H202.241L202.641 712.541H202.961L203.041 712.621" stroke="black" stroke-width="1.92" stroke-miterlimit="10" stroke-linecap="round" stroke-linejoin="round"/>
<path d="M179.92 714.38L178.48 715.74H178.56L178.8 715.82H179.28H198.8H199.28L199.68 715.74H199.92L203.04 712.62" stroke="black" stroke-width="1.92" stroke-miterlimit="10" stroke-linecap="round" stroke-linejoin="round"/>
<path d="M199.921 771.02V770.94" stroke="black" stroke-width="1.92" stroke-miterlimit="10" stroke-linecap="round" stroke-linejoin="round"/>
<path d="M203.041 830.699L199.921 834.779" stroke="black" stroke-width="1.92" stroke-miterlimit="10" stroke-linecap="round" stroke-linejoin="round"/>
<path d="M202.961 767.9V767.5L203.041 767.42" stroke="black" stroke-width="1.92" stroke-miterlimit="10" stroke-linecap="round" stroke-linejoin="round"/>
<path d="M200.161 736.859L200.081 736.699L200.001 736.299L199.921 735.659V719.499L200.001 718.699L200.081 718.139L200.161 717.819L202.721 715.259H202.801" stroke="black" stroke-width="1.92" stroke-miterlimit="10" stroke-linecap="round" stroke-linejoin="round"/>
<path d="M178.48 834.86L178.56 834.94H178.88L179.28 835.02H198.8L199.28 834.94L199.68 834.86L199.92 834.78" stroke="black" stroke-width="1.92" stroke-miterlimit="10" stroke-linecap="round" stroke-linejoin="round"/>
<path d="M199.521 791.66V771.42L199.601 771.34L199.761 771.18L199.841 771.1L199.921 771.02" stroke="black" stroke-width="1.92" stroke-miterlimit="10" stroke-linecap="round" stroke-linejoin="round"/>
<path d="M202.961 767.5L233.601 736.86L203.041 767.42" stroke="black" stroke-width="1.92" stroke-miterlimit="10" stroke-linecap="round" stroke-linejoin="round"/>
<path d="M199.921 770.939L235.281 735.659" stroke="black" stroke-width="1.92" stroke-miterlimit="10" stroke-linecap="round" stroke-linejoin="round"/>
<path d="M235.281 735.66L250.481 720.46L250.321 720.62L199.521 771.42" stroke="black" stroke-width="1.92" stroke-miterlimit="10" stroke-linecap="round" stroke-linejoin="round"/>
<path d="M250.48 720.461H270.72" stroke="black" stroke-width="1.92" stroke-miterlimit="10" stroke-linecap="round" stroke-linejoin="round"/>
<path d="M270.72 720.461L270.56 720.621H250.32" stroke="black" stroke-width="1.92" stroke-miterlimit="10" stroke-linecap="round" stroke-linejoin="round"/>
<path d="M270.561 720.62L199.521 791.66" stroke="black" stroke-width="1.92" stroke-miterlimit="10" stroke-linecap="round" stroke-linejoin="round"/>
<path d="M203.041 830.699V788.139" stroke="black" stroke-width="1.92" stroke-miterlimit="10" stroke-linecap="round" stroke-linejoin="round"/>
<path d="M203.041 767.42V736.86" stroke="black" stroke-width="1.92" stroke-miterlimit="10" stroke-linecap="round" stroke-linejoin="round"/>
<path d="M203.041 715.26V712.62" stroke="black" stroke-width="1.92" stroke-miterlimit="10" stroke-linecap="round" stroke-linejoin="round"/>
<path d="M178.48 834.859V715.739" stroke="black" stroke-width="1.92" stroke-miterlimit="10" stroke-linecap="round" stroke-linejoin="round"/>
<path d="M202.801 715.26H280.801" stroke="black" stroke-width="1.92" stroke-miterlimit="10" stroke-linecap="round" stroke-linejoin="round"/>
<path d="M200.161 736.859H234.001" stroke="black" stroke-width="1.92" stroke-miterlimit="10" stroke-linecap="round" stroke-linejoin="round"/>
<path d="M254.24 736.859H279.36" stroke="black" stroke-width="1.92" stroke-miterlimit="10" stroke-linecap="round" stroke-linejoin="round"/>
<path d="M895.841 728.78L896.481 729.18L897.201 729.34L897.841 729.18L898.481 728.86L898.881 728.22L899.121 727.58L899.041 726.86L898.641 726.22" stroke="black" stroke-width="1.92" stroke-miterlimit="10" stroke-linecap="round" stroke-linejoin="round"/>
<path d="M895.44 727.58L895.6 726.86L896 726.22L896.64 725.82L897.36 725.66L898.08 725.82L898.72 726.22L899.12 726.86L899.28 727.58L899.12 728.3L898.72 728.94L898.08 729.34L897.36 729.5L896.64 729.34L896 728.94L895.6 728.3L895.44 727.58Z" stroke="black" stroke-width="1.92" stroke-miterlimit="10" stroke-linecap="round" stroke-linejoin="round"/>
<path d="M793.761 725.901L792.881 726.461" stroke="black" stroke-width="1.92" stroke-miterlimit="10" stroke-linecap="round" stroke-linejoin="round"/>
<path d="M792.641 728.54L793.121 729.02L793.761 729.26H794.481L795.121 729.02L795.681 728.54L795.921 727.9L796.001 727.26L795.841 726.54" stroke="black" stroke-width="1.92" stroke-miterlimit="10" stroke-linecap="round" stroke-linejoin="round"/>
<path d="M795.841 726.62L796.081 727.34V728.06L795.761 728.7L795.201 729.18L794.561 729.42H793.841L793.201 729.18L792.641 728.7" stroke="black" stroke-width="1.92" stroke-miterlimit="10" stroke-linecap="round" stroke-linejoin="round"/>
<path d="M930.16 775.42L930.32 774.7L930.72 774.06L931.36 773.66L932.08 773.5L932.8 773.66L933.44 774.06L933.84 774.7L934 775.42L933.84 776.14L933.44 776.78L932.8 777.18L932.08 777.34L931.36 777.18L930.72 776.78L930.32 776.14L930.16 775.42Z" stroke="black" stroke-width="1.92" stroke-miterlimit="10" stroke-linecap="round" stroke-linejoin="round"/>
<path d="M930.561 776.62L931.201 777.02L931.841 777.18L932.561 777.02L933.201 776.7L933.601 776.14L933.841 775.42L933.761 774.7L933.441 774.06" stroke="black" stroke-width="1.92" stroke-miterlimit="10" stroke-linecap="round" stroke-linejoin="round"/>
<path d="M930.16 739.66L930.32 738.94L930.72 738.3L931.36 737.9L932.08 737.74L932.8 737.9L933.44 738.3L933.84 738.94L934 739.66L933.84 740.38L933.44 741.02L932.8 741.42L932.08 741.58L931.36 741.42L930.72 741.02L930.32 740.38L930.16 739.66Z" stroke="black" stroke-width="1.92" stroke-miterlimit="10" stroke-linecap="round" stroke-linejoin="round"/>
<path d="M930.641 740.94L931.201 741.34L931.921 741.42L932.641 741.26L933.281 740.86L933.681 740.3L933.841 739.58L933.681 738.86L933.361 738.3" stroke="black" stroke-width="1.92" stroke-miterlimit="10" stroke-linecap="round" stroke-linejoin="round"/>
<path d="M930.16 811.18L930.32 810.46L930.72 809.82L931.36 809.42L932.08 809.26L932.8 809.42L933.44 809.82L933.84 810.46L934 811.18L933.84 811.9L933.44 812.54L932.8 812.94L932.08 813.1L931.36 812.94L930.72 812.54L930.32 811.9L930.16 811.18Z" stroke="black" stroke-width="1.92" stroke-miterlimit="10" stroke-linecap="round" stroke-linejoin="round"/>
<path d="M930.561 812.299L931.121 812.699L931.761 812.859L932.481 812.779L933.121 812.459L933.601 811.899L933.841 811.259L933.761 810.539L933.441 809.899" stroke="black" stroke-width="1.92" stroke-miterlimit="10" stroke-linecap="round" stroke-linejoin="round"/>
<path d="M919.601 712.621H919.521H919.201L919.121 712.701" stroke="black" stroke-width="1.92" stroke-miterlimit="10" stroke-linecap="round" stroke-linejoin="round"/>
<path d="M919.121 712.7L922.081 715.66H922.241L922.641 715.74" stroke="black" stroke-width="1.92" stroke-miterlimit="10" stroke-linecap="round" stroke-linejoin="round"/>
<path d="M922.641 715.74H941.201L941.521 715.66H941.601L941.201 715.26" stroke="black" stroke-width="1.92" stroke-miterlimit="10" stroke-linecap="round" stroke-linejoin="round"/>
<path d="M921.601 791.66V771.42L921.521 771.34L921.361 771.18L921.281 771.1L921.201 771.02" stroke="black" stroke-width="1.92" stroke-miterlimit="10" stroke-linecap="round" stroke-linejoin="round"/>
<path d="M921.201 834.78L921.441 834.86L921.841 834.94L922.321 835.02" stroke="black" stroke-width="1.92" stroke-miterlimit="10" stroke-linecap="round" stroke-linejoin="round"/>
<path d="M941.201 714.38L942.641 715.74H942.561L942.321 715.82H941.841H922.321H921.841L921.441 715.74H921.201" stroke="black" stroke-width="1.92" stroke-miterlimit="10" stroke-linecap="round" stroke-linejoin="round"/>
<path d="M919.6 712.46H918.88L918.48 712.54H918.16L918.08 712.62L921.2 715.74" stroke="black" stroke-width="1.92" stroke-miterlimit="10" stroke-linecap="round" stroke-linejoin="round"/>
<path d="M941.84 835.02H922.32" stroke="black" stroke-width="1.92" stroke-miterlimit="10" stroke-linecap="round" stroke-linejoin="round"/>
<path d="M918.08 767.42L918.16 767.5V767.9" stroke="black" stroke-width="1.92" stroke-miterlimit="10" stroke-linecap="round" stroke-linejoin="round"/>
<path d="M921.2 834.779L918.08 830.699" stroke="black" stroke-width="1.92" stroke-miterlimit="10" stroke-linecap="round" stroke-linejoin="round"/>
<path d="M921.201 770.94V771.02" stroke="black" stroke-width="1.92" stroke-miterlimit="10" stroke-linecap="round" stroke-linejoin="round"/>
<path d="M918.32 715.259H918.4L920.96 717.819L921.04 718.139L921.12 718.699L921.2 719.499V735.659L921.12 736.299L921.04 736.699L920.96 736.859" stroke="black" stroke-width="1.92" stroke-miterlimit="10" stroke-linecap="round" stroke-linejoin="round"/>
<path d="M941.84 835.02L942.24 834.94H942.56L942.64 834.86" stroke="black" stroke-width="1.92" stroke-miterlimit="10" stroke-linecap="round" stroke-linejoin="round"/>
<path d="M921.601 771.42L870.801 720.62L870.641 720.46L885.841 735.66L921.201 770.94" stroke="black" stroke-width="1.92" stroke-miterlimit="10" stroke-linecap="round" stroke-linejoin="round"/>
<path d="M870.64 720.46H850.4L850.56 720.62L921.6 791.66" stroke="black" stroke-width="1.92" stroke-miterlimit="10" stroke-linecap="round" stroke-linejoin="round"/>
<path d="M870.801 720.621H850.561" stroke="black" stroke-width="1.92" stroke-miterlimit="10" stroke-linecap="round" stroke-linejoin="round"/>
<path d="M918.161 767.5L887.521 736.86L918.081 767.42" stroke="black" stroke-width="1.92" stroke-miterlimit="10" stroke-linecap="round" stroke-linejoin="round"/>
<path d="M942.641 834.859V715.739" stroke="black" stroke-width="1.92" stroke-miterlimit="10" stroke-linecap="round" stroke-linejoin="round"/>
<path d="M918.08 830.699V788.139" stroke="black" stroke-width="1.92" stroke-miterlimit="10" stroke-linecap="round" stroke-linejoin="round"/>
<path d="M918.08 767.42V736.86" stroke="black" stroke-width="1.92" stroke-miterlimit="10" stroke-linecap="round" stroke-linejoin="round"/>
<path d="M918.08 715.26V712.62" stroke="black" stroke-width="1.92" stroke-miterlimit="10" stroke-linecap="round" stroke-linejoin="round"/>
<path d="M920.961 736.859H887.121" stroke="black" stroke-width="1.92" stroke-miterlimit="10" stroke-linecap="round" stroke-linejoin="round"/>
<path d="M866.881 736.859H841.761" stroke="black" stroke-width="1.92" stroke-miterlimit="10" stroke-linecap="round" stroke-linejoin="round"/>
<path d="M918.32 715.26H840.32" stroke="black" stroke-width="1.92" stroke-miterlimit="10" stroke-linecap="round" stroke-linejoin="round"/>
<path d="M772.081 632.141V631.581L772.001 631.341L771.761 631.261" stroke="black" stroke-width="1.92" stroke-miterlimit="10" stroke-linecap="round" stroke-linejoin="round"/>
<path d="M771.761 631.26H757.601L757.361 631.34L757.281 631.58" stroke="black" stroke-width="1.92" stroke-miterlimit="10" stroke-linecap="round" stroke-linejoin="round"/>
<path d="M757.281 631.581V645.661L757.361 645.981L757.601 646.061H758.241" stroke="black" stroke-width="1.92" stroke-miterlimit="10" stroke-linecap="round" stroke-linejoin="round"/>
<path d="M756.561 631.26L756.641 630.86L756.881 630.62L757.281 630.54" stroke="black" stroke-width="1.92" stroke-miterlimit="10" stroke-linecap="round" stroke-linejoin="round"/>
<path d="M736 601.1L735.68 601.26L735.44 601.5L735.36 601.82" stroke="black" stroke-width="1.92" stroke-miterlimit="10" stroke-linecap="round" stroke-linejoin="round"/>
<path d="M754.881 636.22V635.74V635.26L754.961 635.02L755.041 635.18V635.5L755.121 636.06V636.62V637.1L755.041 637.58V637.82H754.961V637.66L754.881 637.34V636.78V636.22Z" stroke="black" stroke-width="1.92" stroke-miterlimit="10" stroke-linecap="round" stroke-linejoin="round"/>
<path d="M736.561 610.06V609.58V609.18L736.641 608.94V608.86L736.721 609.02V609.34V609.82V610.38V610.86V611.18V611.42L736.641 611.5V611.34L736.561 611.02V610.54V610.06Z" stroke="black" stroke-width="1.92" stroke-miterlimit="10" stroke-linecap="round" stroke-linejoin="round"/>
<path d="M735.36 615.02V601.82" stroke="black" stroke-width="1.92" stroke-miterlimit="10" stroke-linecap="round" stroke-linejoin="round"/>
<path d="M756.561 631.261V646.061" stroke="black" stroke-width="1.92" stroke-miterlimit="10" stroke-linecap="round" stroke-linejoin="round"/>
<path d="M736.001 601.1H749.281L749.521 601.18L749.761 601.42" stroke="black" stroke-width="1.92" stroke-miterlimit="10" stroke-linecap="round" stroke-linejoin="round"/>
<path d="M735.36 615.02L735.52 615.34" stroke="black" stroke-width="1.92" stroke-miterlimit="10" stroke-linecap="round" stroke-linejoin="round"/>
<path d="M772.081 630.54L772.481 630.62L772.721 630.86L772.801 631.26V633.1" stroke="black" stroke-width="1.92" stroke-miterlimit="10" stroke-linecap="round" stroke-linejoin="round"/>
<path d="M757.281 646.779L756.881 646.699L756.641 646.379L756.561 646.059" stroke="black" stroke-width="1.92" stroke-miterlimit="10" stroke-linecap="round" stroke-linejoin="round"/>
<path d="M772.081 630.541H757.281" stroke="black" stroke-width="1.92" stroke-miterlimit="10" stroke-linecap="round" stroke-linejoin="round"/>
<path d="M757.281 646.779H758.801" stroke="black" stroke-width="1.92" stroke-miterlimit="10" stroke-linecap="round" stroke-linejoin="round"/>
<path d="M749.761 601.419L772.641 630.779" stroke="black" stroke-width="1.92" stroke-miterlimit="10" stroke-linecap="round" stroke-linejoin="round"/>
<path d="M735.521 615.341L756.641 646.461" stroke="black" stroke-width="1.92" stroke-miterlimit="10" stroke-linecap="round" stroke-linejoin="round"/>
<path d="M349.041 631.261L348.801 631.341L348.641 631.581V632.621" stroke="black" stroke-width="1.92" stroke-miterlimit="10" stroke-linecap="round" stroke-linejoin="round"/>
<path d="M363.521 631.58L363.361 631.34L363.121 631.26H349.041" stroke="black" stroke-width="1.92" stroke-miterlimit="10" stroke-linecap="round" stroke-linejoin="round"/>
<path d="M362.881 646.061H363.121L363.361 645.981L363.521 645.661V631.581" stroke="black" stroke-width="1.92" stroke-miterlimit="10" stroke-linecap="round" stroke-linejoin="round"/>
<path d="M385.441 601.82L385.361 601.5L385.121 601.26L384.801 601.1" stroke="black" stroke-width="1.92" stroke-miterlimit="10" stroke-linecap="round" stroke-linejoin="round"/>
<path d="M363.521 630.54L363.841 630.62L364.161 630.86L364.241 631.26" stroke="black" stroke-width="1.92" stroke-miterlimit="10" stroke-linecap="round" stroke-linejoin="round"/>
<path d="M384.081 610.38V609.82V609.34V609.02L384.161 608.86V608.94L384.241 609.18V609.58V610.06V610.54V611.02L384.161 611.34V611.5L384.081 611.42V611.18V610.86V610.38Z" stroke="black" stroke-width="1.92" stroke-miterlimit="10" stroke-linecap="round" stroke-linejoin="round"/>
<path d="M365.681 636.62V636.06V635.5L365.761 635.18V635.02H365.841V635.26L365.921 635.74V636.22V636.78L365.841 637.34V637.66L365.761 637.82L365.681 637.58V637.1V636.62Z" stroke="black" stroke-width="1.92" stroke-miterlimit="10" stroke-linecap="round" stroke-linejoin="round"/>
<path d="M364.241 646.061V631.261" stroke="black" stroke-width="1.92" stroke-miterlimit="10" stroke-linecap="round" stroke-linejoin="round"/>
<path d="M385.44 601.82V615.02" stroke="black" stroke-width="1.92" stroke-miterlimit="10" stroke-linecap="round" stroke-linejoin="round"/>
<path d="M363.521 630.54H348.641L348.321 630.62L348.081 630.86L347.921 631.26V633.5" stroke="black" stroke-width="1.92" stroke-miterlimit="10" stroke-linecap="round" stroke-linejoin="round"/>
<path d="M362.32 646.779H363.52L363.84 646.699L364.16 646.379L364.24 646.059" stroke="black" stroke-width="1.92" stroke-miterlimit="10" stroke-linecap="round" stroke-linejoin="round"/>
<path d="M371.521 601.1L371.281 601.18L371.041 601.42" stroke="black" stroke-width="1.92" stroke-miterlimit="10" stroke-linecap="round" stroke-linejoin="round"/>
<path d="M385.281 615.34L385.441 615.02" stroke="black" stroke-width="1.92" stroke-miterlimit="10" stroke-linecap="round" stroke-linejoin="round"/>
<path d="M371.521 601.1H384.801" stroke="black" stroke-width="1.92" stroke-miterlimit="10" stroke-linecap="round" stroke-linejoin="round"/>
<path d="M348.081 630.779L371.041 601.419" stroke="black" stroke-width="1.92" stroke-miterlimit="10" stroke-linecap="round" stroke-linejoin="round"/>
<path d="M364.081 646.461L385.281 615.341" stroke="black" stroke-width="1.92" stroke-miterlimit="10" stroke-linecap="round" stroke-linejoin="round"/>
<path d="M810.481 703.74L810.161 703.9L810.001 704.22V713.74" stroke="black" stroke-width="1.92" stroke-miterlimit="10" stroke-linecap="round" stroke-linejoin="round"/>
<path d="M828.8 705.5V704.22L828.64 703.9L828.32 703.74H810.48" stroke="black" stroke-width="1.92" stroke-miterlimit="10" stroke-linecap="round" stroke-linejoin="round"/>
<path d="M793.761 657.42L793.521 657.18L793.121 657.1" stroke="black" stroke-width="1.92" stroke-miterlimit="10" stroke-linecap="round" stroke-linejoin="round"/>
<path d="M809.121 713.74V703.74L809.201 703.26L809.521 702.94L810.001 702.86H828.801L829.201 702.94L829.601 703.26L829.681 703.74V706.62" stroke="black" stroke-width="1.92" stroke-miterlimit="10" stroke-linecap="round" stroke-linejoin="round"/>
<path d="M776.881 657.1L776.481 657.18L776.161 657.5L776.081 657.9" stroke="black" stroke-width="1.92" stroke-miterlimit="10" stroke-linecap="round" stroke-linejoin="round"/>
<path d="M777.841 668.541V667.901V667.421L777.921 667.181L778.001 667.101L778.081 667.341V667.741L778.161 668.301V668.941V669.581L778.081 670.061V670.301H778.001L777.921 670.141L777.841 669.741V669.181V668.541Z" stroke="black" stroke-width="1.92" stroke-miterlimit="10" stroke-linecap="round" stroke-linejoin="round"/>
<path d="M806.4 709.26V708.62L806.48 708.06V707.74H806.56L806.64 707.98L806.72 708.46L806.8 709.1V709.82V710.54L806.72 711.02L806.64 711.34H806.56L806.48 711.1V710.62L806.4 709.98V709.26Z" stroke="black" stroke-width="1.92" stroke-miterlimit="10" stroke-linecap="round" stroke-linejoin="round"/>
<path d="M776.241 674.621L776.081 674.141V657.901" stroke="black" stroke-width="1.92" stroke-miterlimit="10" stroke-linecap="round" stroke-linejoin="round"/>
<path d="M776.881 657.1H793.121" stroke="black" stroke-width="1.92" stroke-miterlimit="10" stroke-linecap="round" stroke-linejoin="round"/>
<path d="M829.521 703.18L793.761 657.42" stroke="black" stroke-width="1.92" stroke-miterlimit="10" stroke-linecap="round" stroke-linejoin="round"/>
<path d="M802.96 713.74L776.24 674.62" stroke="black" stroke-width="1.92" stroke-miterlimit="10" stroke-linecap="round" stroke-linejoin="round"/>
<path d="M292.8 703.74L292.48 703.9L292.32 704.22V705.5" stroke="black" stroke-width="1.92" stroke-miterlimit="10" stroke-linecap="round" stroke-linejoin="round"/>
<path d="M311.121 713.74V704.22L310.961 703.9L310.641 703.74H292.801" stroke="black" stroke-width="1.92" stroke-miterlimit="10" stroke-linecap="round" stroke-linejoin="round"/>
<path d="M345.041 657.9L344.961 657.5L344.641 657.18L344.241 657.1" stroke="black" stroke-width="1.92" stroke-miterlimit="10" stroke-linecap="round" stroke-linejoin="round"/>
<path d="M311.121 702.86L311.601 702.94L311.921 703.26L312.001 703.74" stroke="black" stroke-width="1.92" stroke-miterlimit="10" stroke-linecap="round" stroke-linejoin="round"/>
<path d="M342.961 668.941V668.301L343.041 667.741V667.341L343.121 667.101L343.201 667.181L343.281 667.421V667.901V668.541V669.181V669.741L343.201 670.141L343.121 670.301H343.041V670.061L342.961 669.581V668.941Z" stroke="black" stroke-width="1.92" stroke-miterlimit="10" stroke-linecap="round" stroke-linejoin="round"/>
<path d="M314.32 709.82V709.1L314.4 708.46L314.48 707.98L314.56 707.74H314.64V708.06L314.72 708.62V709.26V709.98L314.64 710.62V711.1L314.56 711.34H314.48L314.4 711.02L314.32 710.54V709.82Z" stroke="black" stroke-width="1.92" stroke-miterlimit="10" stroke-linecap="round" stroke-linejoin="round"/>
<path d="M312.001 713.74V703.74" stroke="black" stroke-width="1.92" stroke-miterlimit="10" stroke-linecap="round" stroke-linejoin="round"/>
<path d="M345.041 657.901V674.141" stroke="black" stroke-width="1.92" stroke-miterlimit="10" stroke-linecap="round" stroke-linejoin="round"/>
<path d="M311.12 702.861H292.32L291.92 702.941L291.52 703.261L291.44 703.741V706.621" stroke="black" stroke-width="1.92" stroke-miterlimit="10" stroke-linecap="round" stroke-linejoin="round"/>
<path d="M328 657.1L327.6 657.18L327.36 657.42" stroke="black" stroke-width="1.92" stroke-miterlimit="10" stroke-linecap="round" stroke-linejoin="round"/>
<path d="M344.881 674.621L345.041 674.141" stroke="black" stroke-width="1.92" stroke-miterlimit="10" stroke-linecap="round" stroke-linejoin="round"/>
<path d="M328.001 657.1H344.241" stroke="black" stroke-width="1.92" stroke-miterlimit="10" stroke-linecap="round" stroke-linejoin="round"/>
<path d="M291.601 703.18L327.361 657.42" stroke="black" stroke-width="1.92" stroke-miterlimit="10" stroke-linecap="round" stroke-linejoin="round"/>
<path d="M318.161 713.74L344.881 674.62" stroke="black" stroke-width="1.92" stroke-miterlimit="10" stroke-linecap="round" stroke-linejoin="round"/>
<path d="M319.841 435.74H320.161H320.401L321.441 435.34H321.361H321.041" stroke="black" stroke-width="1.92" stroke-miterlimit="10" stroke-linecap="round" stroke-linejoin="round"/>
<path d="M313.6 657.42L313.44 657.82L313.36 658.3L313.52 658.78L313.84 659.1L314.24 659.34L314.72 659.42L315.12 659.26L315.52 659.02" stroke="black" stroke-width="1.92" stroke-miterlimit="10" stroke-linecap="round" stroke-linejoin="round"/>
<path d="M314.16 450.301L313.76 450.621L313.44 451.021L313.36 451.501L313.44 451.981L313.68 452.381L314.08 452.621L314.56 452.781L315.04 452.701" stroke="black" stroke-width="1.92" stroke-miterlimit="10" stroke-linecap="round" stroke-linejoin="round"/>
<path d="M319.841 435.74H309.441H309.121H309.041L310.161 435.34H310.321H310.721H321.041" stroke="black" stroke-width="1.92" stroke-miterlimit="10" stroke-linecap="round" stroke-linejoin="round"/>
<path d="M315.681 657.9L315.281 657.74L314.881 657.42L314.721 657.02" stroke="black" stroke-width="1.92" stroke-miterlimit="10" stroke-linecap="round" stroke-linejoin="round"/>
<path d="M315.601 452.301L315.121 452.061L314.801 451.741L314.641 451.261V450.781L314.881 450.301" stroke="black" stroke-width="1.92" stroke-miterlimit="10" stroke-linecap="round" stroke-linejoin="round"/>
<path d="M321.281 435.34H321.761H322.001H322.081L320.961 435.74H320.801H320.401H319.921" stroke="black" stroke-width="1.92" stroke-miterlimit="10" stroke-linecap="round" stroke-linejoin="round"/>
<path d="M314.801 657.1L315.121 657.5L315.681 657.74" stroke="black" stroke-width="1.92" stroke-miterlimit="10" stroke-linecap="round" stroke-linejoin="round"/>
<path d="M314.881 450.301L314.721 450.781V451.261L314.881 451.661L315.201 451.981L315.601 452.221" stroke="black" stroke-width="1.92" stroke-miterlimit="10" stroke-linecap="round" stroke-linejoin="round"/>
<path d="M321.28 435.34H310.56H310.08H309.76H309.52L308.32 435.74H308.4H308.72H309.2" stroke="black" stroke-width="1.92" stroke-miterlimit="10" stroke-linecap="round" stroke-linejoin="round"/>
<path d="M313.281 451.501L313.361 451.021L313.681 450.621L314.081 450.381L314.561 450.301L315.041 450.381L315.441 450.621L315.761 451.021L315.841 451.501L315.761 451.981L315.441 452.381L315.041 452.701L314.561 452.781L314.081 452.701L313.681 452.381L313.361 451.981L313.281 451.501Z" stroke="black" stroke-width="1.92" stroke-miterlimit="10" stroke-linecap="round" stroke-linejoin="round"/>
<path d="M315.521 659.02L315.121 659.34L314.641 659.5L314.161 659.42L313.761 659.18L313.441 658.86L313.281 658.38L313.361 657.9L313.521 657.42" stroke="black" stroke-width="1.92" stroke-miterlimit="10" stroke-linecap="round" stroke-linejoin="round"/>
<path d="M309.201 435.74H319.921" stroke="black" stroke-width="1.92" stroke-miterlimit="10" stroke-linecap="round" stroke-linejoin="round"/>
<path d="M322.081 594.061V435.341" stroke="black" stroke-width="1.92" stroke-miterlimit="10" stroke-linecap="round" stroke-linejoin="round"/>
<path d="M308.32 595.1V435.74" stroke="black" stroke-width="1.92" stroke-miterlimit="10" stroke-linecap="round" stroke-linejoin="round"/>
<path d="M811.76 435.74H812.08H812.16L811.04 435.34H810.88H810.48" stroke="black" stroke-width="1.92" stroke-miterlimit="10" stroke-linecap="round" stroke-linejoin="round"/>
<path d="M805.681 659.1L806.001 659.34L806.481 659.5L806.961 659.42L807.361 659.18L807.681 658.86L807.841 658.38L807.761 657.9L807.601 657.5" stroke="black" stroke-width="1.92" stroke-miterlimit="10" stroke-linecap="round" stroke-linejoin="round"/>
<path d="M806.161 452.701L806.641 452.781L807.121 452.701L807.521 452.381L807.761 451.981L807.841 451.501L807.681 451.021L807.441 450.621L807.041 450.381" stroke="black" stroke-width="1.92" stroke-miterlimit="10" stroke-linecap="round" stroke-linejoin="round"/>
<path d="M811.761 435.74H801.361H800.961H800.801L799.761 435.34H799.841H800.161H810.481" stroke="black" stroke-width="1.92" stroke-miterlimit="10" stroke-linecap="round" stroke-linejoin="round"/>
<path d="M806.481 657.1L806.321 657.5L805.921 657.82L805.521 657.98" stroke="black" stroke-width="1.92" stroke-miterlimit="10" stroke-linecap="round" stroke-linejoin="round"/>
<path d="M806.321 450.301L806.561 450.781V451.261L806.401 451.741L806.081 452.061L805.601 452.301" stroke="black" stroke-width="1.92" stroke-miterlimit="10" stroke-linecap="round" stroke-linejoin="round"/>
<path d="M810.561 435.34H811.041H811.441H811.601L812.801 435.74H812.721H812.481H812.001" stroke="black" stroke-width="1.92" stroke-miterlimit="10" stroke-linecap="round" stroke-linejoin="round"/>
<path d="M805.521 657.82L806.081 657.58L806.401 657.18" stroke="black" stroke-width="1.92" stroke-miterlimit="10" stroke-linecap="round" stroke-linejoin="round"/>
<path d="M805.601 452.221L806.001 452.061L806.321 451.661L806.481 451.261V450.781L806.321 450.301" stroke="black" stroke-width="1.92" stroke-miterlimit="10" stroke-linecap="round" stroke-linejoin="round"/>
<path d="M810.561 435.34H799.921H799.441H799.121H799.041L800.241 435.74H800.401H800.801H801.281" stroke="black" stroke-width="1.92" stroke-miterlimit="10" stroke-linecap="round" stroke-linejoin="round"/>
<path d="M805.36 451.581L805.44 451.101L805.76 450.701L806.16 450.381L806.64 450.301L807.12 450.381L807.52 450.701L807.76 451.101L807.92 451.581L807.76 452.061L807.52 452.461L807.12 452.701L806.64 452.781L806.16 452.701L805.76 452.461L805.44 452.061L805.36 451.581Z" stroke="black" stroke-width="1.92" stroke-miterlimit="10" stroke-linecap="round" stroke-linejoin="round"/>
<path d="M807.601 657.5L807.841 657.98V658.46L807.761 658.94L807.441 659.26L807.041 659.5L806.561 659.58L806.081 659.42L805.681 659.1" stroke="black" stroke-width="1.92" stroke-miterlimit="10" stroke-linecap="round" stroke-linejoin="round"/>
<path d="M801.281 435.74H812.001" stroke="black" stroke-width="1.92" stroke-miterlimit="10" stroke-linecap="round" stroke-linejoin="round"/>
<path d="M812.801 595.18V435.74" stroke="black" stroke-width="1.92" stroke-miterlimit="10" stroke-linecap="round" stroke-linejoin="round"/>
<path d="M799.041 594.141V435.341" stroke="black" stroke-width="1.92" stroke-miterlimit="10" stroke-linecap="round" stroke-linejoin="round"/>
<path d="M448.721 687.98L448.641 688.54L448.801 689.02L449.121 689.42L449.601 689.66L450.081 689.74L450.561 689.58L451.041 689.34L451.281 688.86" stroke="black" stroke-width="1.92" stroke-miterlimit="10" stroke-linecap="round" stroke-linejoin="round"/>
<path d="M669.841 688.86L670.081 689.34L670.561 689.58L671.041 689.74L671.521 689.66L672.001 689.42L672.321 689.02L672.481 688.54L672.401 687.98" stroke="black" stroke-width="1.92" stroke-miterlimit="10" stroke-linecap="round" stroke-linejoin="round"/>
<path d="M451.2 687.82L450.64 687.98L450.16 687.9L449.76 687.66L449.44 687.26" stroke="black" stroke-width="1.92" stroke-miterlimit="10" stroke-linecap="round" stroke-linejoin="round"/>
<path d="M671.681 687.26L671.361 687.66L670.961 687.9L670.481 687.98L669.921 687.82" stroke="black" stroke-width="1.92" stroke-miterlimit="10" stroke-linecap="round" stroke-linejoin="round"/>
<path d="M688.001 695.1V695.02V694.7V694.22" stroke="black" stroke-width="1.92" stroke-miterlimit="10" stroke-linecap="round" stroke-linejoin="round"/>
<path d="M433.841 679.98H433.761L433.121 681.58V681.82V682.22V682.78V694.22V694.7V695.02V695.1" stroke="black" stroke-width="1.92" stroke-miterlimit="10" stroke-linecap="round" stroke-linejoin="round"/>
<path d="M449.521 687.26L449.761 687.58L450.241 687.82L450.641 687.9L451.121 687.82" stroke="black" stroke-width="1.92" stroke-miterlimit="10" stroke-linecap="round" stroke-linejoin="round"/>
<path d="M670.001 687.82L670.481 687.9L670.881 687.82L671.361 687.58L671.601 687.26" stroke="black" stroke-width="1.92" stroke-miterlimit="10" stroke-linecap="round" stroke-linejoin="round"/>
<path d="M688.001 682.779V682.219V681.819V681.579L687.361 679.979H687.281" stroke="black" stroke-width="1.92" stroke-miterlimit="10" stroke-linecap="round" stroke-linejoin="round"/>
<path d="M669.761 688.46L669.921 687.98L670.161 687.58L670.641 687.26L671.121 687.18L671.681 687.26L672.081 687.58L672.401 687.98L672.481 688.46L672.401 689.02L672.081 689.42L671.681 689.74L671.121 689.82L670.641 689.74L670.161 689.42L669.921 689.02L669.761 688.46Z" stroke="black" stroke-width="1.92" stroke-miterlimit="10" stroke-linecap="round" stroke-linejoin="round"/>
<path d="M448.641 688.46L448.721 687.98L449.041 687.58L449.441 687.26L450.001 687.18L450.481 687.26L450.961 687.58L451.201 687.98L451.361 688.46L451.201 689.02L450.961 689.42L450.481 689.74L450.001 689.82L449.441 689.74L449.041 689.42L448.721 689.02L448.641 688.46Z" stroke="black" stroke-width="1.92" stroke-miterlimit="10" stroke-linecap="round" stroke-linejoin="round"/>
<path d="M688.001 682.781V694.221" stroke="black" stroke-width="1.92" stroke-miterlimit="10" stroke-linecap="round" stroke-linejoin="round"/>
<path d="M433.121 695.1H688.001" stroke="black" stroke-width="1.92" stroke-miterlimit="10" stroke-linecap="round" stroke-linejoin="round"/>
<path d="M433.841 679.98H687.281" stroke="black" stroke-width="1.92" stroke-miterlimit="10" stroke-linecap="round" stroke-linejoin="round"/>
<path d="M456.001 602.541L455.921 603.021L456.081 603.501L456.321 603.901L456.721 604.141L457.201 604.221L457.681 604.141L458.081 603.901L458.321 603.581" stroke="black" stroke-width="1.92" stroke-miterlimit="10" stroke-linecap="round" stroke-linejoin="round"/>
<path d="M662.801 603.581L663.041 603.901L663.441 604.141L663.921 604.221L664.401 604.141L664.801 603.901L665.041 603.501L665.201 603.021L665.121 602.541" stroke="black" stroke-width="1.92" stroke-miterlimit="10" stroke-linecap="round" stroke-linejoin="round"/>
<path d="M458.4 602.86L457.92 603.02L457.44 602.94L457.04 602.78L456.72 602.46L456.48 602.06" stroke="black" stroke-width="1.92" stroke-miterlimit="10" stroke-linecap="round" stroke-linejoin="round"/>
<path d="M664.641 602.06L664.401 602.46L664.081 602.78L663.681 602.94L663.201 603.02L662.721 602.86" stroke="black" stroke-width="1.92" stroke-miterlimit="10" stroke-linecap="round" stroke-linejoin="round"/>
<path d="M456.561 602.059L456.721 602.459L457.041 602.699L457.521 602.939H457.921L458.321 602.779" stroke="black" stroke-width="1.92" stroke-miterlimit="10" stroke-linecap="round" stroke-linejoin="round"/>
<path d="M662.801 602.779L663.201 602.939H663.601L664.081 602.699L664.401 602.459L664.561 602.059" stroke="black" stroke-width="1.92" stroke-miterlimit="10" stroke-linecap="round" stroke-linejoin="round"/>
<path d="M665.121 602.621L665.201 603.101L665.121 603.581L664.801 603.981L664.401 604.221L663.921 604.301L663.521 604.221L663.041 603.981L662.801 603.581" stroke="black" stroke-width="1.92" stroke-miterlimit="10" stroke-linecap="round" stroke-linejoin="round"/>
<path d="M458.321 603.581L458.081 603.981L457.601 604.221L457.201 604.301L456.721 604.221L456.321 603.981L456.001 603.581L455.921 603.101L456.001 602.621" stroke="black" stroke-width="1.92" stroke-miterlimit="10" stroke-linecap="round" stroke-linejoin="round"/>
<path d="M508.48 609.26H612.64" stroke="black" stroke-width="1.92" stroke-miterlimit="10" stroke-linecap="round" stroke-linejoin="round"/>
<path d="M508.721 595.5H612.401" stroke="black" stroke-width="1.92" stroke-miterlimit="10" stroke-linecap="round" stroke-linejoin="round"/>
<path d="M449.681 687.18L450.081 687.5L450.481 687.58H450.961" stroke="black" stroke-width="1.92" stroke-miterlimit="10" stroke-linecap="round" stroke-linejoin="round"/>
<path d="M670.161 687.58H670.641L671.041 687.5L671.441 687.18" stroke="black" stroke-width="1.92" stroke-miterlimit="10" stroke-linecap="round" stroke-linejoin="round"/>
<path d="M434.641 677.9L434.001 679.5L433.921 679.66V679.98" stroke="black" stroke-width="1.92" stroke-miterlimit="10" stroke-linecap="round" stroke-linejoin="round"/>
<path d="M687.2 679.98V679.66L687.12 679.5L686.48 677.9" stroke="black" stroke-width="1.92" stroke-miterlimit="10" stroke-linecap="round" stroke-linejoin="round"/>
<path d="M671.521 687.18L671.121 687.58L670.641 687.74L670.081 687.66" stroke="black" stroke-width="1.92" stroke-miterlimit="10" stroke-linecap="round" stroke-linejoin="round"/>
<path d="M451.041 687.66L450.481 687.74L450.001 687.58L449.601 687.18" stroke="black" stroke-width="1.92" stroke-miterlimit="10" stroke-linecap="round" stroke-linejoin="round"/>
<path d="M434.641 677.9H686.481" stroke="black" stroke-width="1.92" stroke-miterlimit="10" stroke-linecap="round" stroke-linejoin="round"/>
<path d="M435.441 675.82L434.801 677.42V677.58V677.9" stroke="black" stroke-width="1.92" stroke-miterlimit="10" stroke-linecap="round" stroke-linejoin="round"/>
<path d="M686.32 677.9V677.58V677.42L685.68 675.82H435.44" stroke="black" stroke-width="1.92" stroke-miterlimit="10" stroke-linecap="round" stroke-linejoin="round"/>
<path d="M708.001 797.18L707.201 797.42" stroke="black" stroke-width="1.92" stroke-miterlimit="10" stroke-linecap="round" stroke-linejoin="round"/>
<path d="M413.921 797.42L413.121 797.18" stroke="black" stroke-width="1.92" stroke-miterlimit="10" stroke-linecap="round" stroke-linejoin="round"/>
<path d="M706.4 799.421L706.8 799.981L707.36 800.381L708 800.541L708.64 800.461L709.28 800.141L709.68 799.581L709.92 798.941L709.84 798.301" stroke="black" stroke-width="1.92" stroke-miterlimit="10" stroke-linecap="round" stroke-linejoin="round"/>
<path d="M411.281 798.301L411.201 798.941L411.441 799.581L411.841 800.141L412.481 800.461L413.121 800.541L413.761 800.381L414.321 799.981L414.721 799.421" stroke="black" stroke-width="1.92" stroke-miterlimit="10" stroke-linecap="round" stroke-linejoin="round"/>
<path d="M730.64 807.74V807.58V807.18L730.72 806.62V791.26L730.64 790.54V789.98L730.56 789.66L729.44 786.78" stroke="black" stroke-width="1.92" stroke-miterlimit="10" stroke-linecap="round" stroke-linejoin="round"/>
<path d="M390.4 806.62L390.48 807.18V807.58V807.74" stroke="black" stroke-width="1.92" stroke-miterlimit="10" stroke-linecap="round" stroke-linejoin="round"/>
<path d="M706.32 798.939L706.48 798.219L706.88 797.659L707.44 797.259L708.16 797.179L708.88 797.259L709.44 797.659L709.84 798.219L709.92 798.939L709.84 799.659L709.44 800.219L708.88 800.619L708.16 800.779L707.44 800.619L706.88 800.219L706.48 799.659L706.32 798.939Z" stroke="black" stroke-width="1.92" stroke-miterlimit="10" stroke-linecap="round" stroke-linejoin="round"/>
<path d="M411.201 798.939L411.281 798.219L411.681 797.659L412.241 797.259L412.961 797.179L413.681 797.259L414.241 797.659L414.641 798.219L414.801 798.939L414.641 799.659L414.241 800.219L413.681 800.619L412.961 800.779L412.241 800.619L411.681 800.219L411.281 799.659L411.201 798.939Z" stroke="black" stroke-width="1.92" stroke-miterlimit="10" stroke-linecap="round" stroke-linejoin="round"/>
<path d="M390.4 806.621V791.261L390.48 790.541V789.981L390.56 789.661L391.68 786.781" stroke="black" stroke-width="1.92" stroke-miterlimit="10" stroke-linecap="round" stroke-linejoin="round"/>
<path d="M730.64 807.74H390.48" stroke="black" stroke-width="1.92" stroke-miterlimit="10" stroke-linecap="round" stroke-linejoin="round"/>
<path d="M729.441 786.779H391.681" stroke="black" stroke-width="1.92" stroke-miterlimit="10" stroke-linecap="round" stroke-linejoin="round"/>
<path d="M921.201 474.22H920.721H920.561L923.041 475.02L923.361 475.1H923.921" stroke="black" stroke-width="1.92" stroke-miterlimit="10" stroke-linecap="round" stroke-linejoin="round"/>
<path d="M930.8 497.42V498.14L930.56 498.86L930.08 499.34" stroke="black" stroke-width="1.92" stroke-miterlimit="10" stroke-linecap="round" stroke-linejoin="round"/>
<path d="M921.201 474.22H936.721H937.281H937.601L940.241 475.02L940.081 475.1H939.601H923.921" stroke="black" stroke-width="1.92" stroke-miterlimit="10" stroke-linecap="round" stroke-linejoin="round"/>
<path d="M930.48 812.141L931.12 812.541L931.92 812.701L932.64 812.461L933.28 811.981L933.6 811.261L933.68 810.541L933.36 809.741" stroke="black" stroke-width="1.92" stroke-miterlimit="10" stroke-linecap="round" stroke-linejoin="round"/>
<path d="M931.121 500.701L931.841 500.781L932.561 500.621L933.201 500.221L933.521 499.581L933.681 498.861L933.521 498.141L933.121 497.581L932.481 497.181" stroke="black" stroke-width="1.92" stroke-miterlimit="10" stroke-linecap="round" stroke-linejoin="round"/>
<path d="M923.842 475.1H923.042H922.482H922.162L919.602 474.22H919.682L920.082 474.14H920.802" stroke="black" stroke-width="1.92" stroke-miterlimit="10" stroke-linecap="round" stroke-linejoin="round"/>
<path d="M933.441 809.899L933.761 810.539L933.841 811.259L933.601 811.899L933.121 812.459L932.481 812.779L931.761 812.859L931.121 812.699L930.561 812.299" stroke="black" stroke-width="1.92" stroke-miterlimit="10" stroke-linecap="round" stroke-linejoin="round"/>
<path d="M930 498.939L930.16 498.219L930.56 497.579L931.2 497.179L931.92 497.019L932.64 497.179L933.28 497.579L933.68 498.219L933.84 498.939L933.68 499.659L933.28 500.299L932.64 500.699L931.92 500.859L931.2 500.699L930.56 500.299L930.16 499.659L930 498.939Z" stroke="black" stroke-width="1.92" stroke-miterlimit="10" stroke-linecap="round" stroke-linejoin="round"/>
<path d="M923.84 475.1H940H940.72H941.12H941.2L938.48 474.22H938.16L937.6 474.14H936.8" stroke="black" stroke-width="1.92" stroke-miterlimit="10" stroke-linecap="round" stroke-linejoin="round"/>
<path d="M930 499.18L930.4 498.7L930.64 498.14V497.5" stroke="black" stroke-width="1.92" stroke-miterlimit="10" stroke-linecap="round" stroke-linejoin="round"/>
<path d="M936.801 474.141H920.801" stroke="black" stroke-width="1.92" stroke-miterlimit="10" stroke-linecap="round" stroke-linejoin="round"/>
<path d="M919.602 713.18V474.22" stroke="black" stroke-width="1.92" stroke-miterlimit="10" stroke-linecap="round" stroke-linejoin="round"/>
<path d="M941.201 715.74V475.1" stroke="black" stroke-width="1.92" stroke-miterlimit="10" stroke-linecap="round" stroke-linejoin="round"/>
<path d="M184.401 474.22H183.841H183.521L180.881 475.02L181.041 475.1H181.521" stroke="black" stroke-width="1.92" stroke-miterlimit="10" stroke-linecap="round" stroke-linejoin="round"/>
<path d="M191.04 499.34L190.56 498.86L190.32 498.14V497.42" stroke="black" stroke-width="1.92" stroke-miterlimit="10" stroke-linecap="round" stroke-linejoin="round"/>
<path d="M184.401 474.22H199.921H200.401H200.561L198.081 475.02L197.761 475.1H197.201H181.521" stroke="black" stroke-width="1.92" stroke-miterlimit="10" stroke-linecap="round" stroke-linejoin="round"/>
<path d="M187.76 809.741L187.44 810.541L187.52 811.261L187.84 811.981L188.48 812.461L189.2 812.701L190 812.541L190.64 812.141" stroke="black" stroke-width="1.92" stroke-miterlimit="10" stroke-linecap="round" stroke-linejoin="round"/>
<path d="M188.64 497.181L188 497.581L187.6 498.141L187.44 498.861L187.6 499.581L187.92 500.221L188.56 500.621L189.28 500.781L190 500.701" stroke="black" stroke-width="1.92" stroke-miterlimit="10" stroke-linecap="round" stroke-linejoin="round"/>
<path d="M181.121 475.1H180.401H180.001H179.921L182.641 474.22H182.961L183.521 474.14H184.321" stroke="black" stroke-width="1.92" stroke-miterlimit="10" stroke-linecap="round" stroke-linejoin="round"/>
<path d="M190.561 812.299L190.001 812.699L189.361 812.859L188.641 812.779L188.001 812.459L187.521 811.899L187.281 811.259L187.361 810.539L187.681 809.899" stroke="black" stroke-width="1.92" stroke-miterlimit="10" stroke-linecap="round" stroke-linejoin="round"/>
<path d="M187.281 498.939L187.441 498.219L187.841 497.579L188.481 497.179L189.201 497.019L189.921 497.179L190.561 497.579L190.961 498.219L191.121 498.939L190.961 499.659L190.561 500.299L189.921 500.699L189.201 500.859L188.481 500.699L187.841 500.299L187.441 499.659L187.281 498.939Z" stroke="black" stroke-width="1.92" stroke-miterlimit="10" stroke-linecap="round" stroke-linejoin="round"/>
<path d="M181.121 475.1H197.281H198.081H198.641H198.961L201.521 474.22H201.441L201.041 474.14H200.321" stroke="black" stroke-width="1.92" stroke-miterlimit="10" stroke-linecap="round" stroke-linejoin="round"/>
<path d="M190.48 497.5V498.14L190.72 498.7L191.12 499.18" stroke="black" stroke-width="1.92" stroke-miterlimit="10" stroke-linecap="round" stroke-linejoin="round"/>
<path d="M200.32 474.141H184.32" stroke="black" stroke-width="1.92" stroke-miterlimit="10" stroke-linecap="round" stroke-linejoin="round"/>
<path d="M179.921 715.74V475.1" stroke="black" stroke-width="1.92" stroke-miterlimit="10" stroke-linecap="round" stroke-linejoin="round"/>
<path d="M201.521 713.18V474.22" stroke="black" stroke-width="1.92" stroke-miterlimit="10" stroke-linecap="round" stroke-linejoin="round"/>
<path d="M716.801 725.821L716.081 726.381L715.201 726.541" stroke="black" stroke-width="1.92" stroke-miterlimit="10" stroke-linecap="round" stroke-linejoin="round"/>
<path d="M405.92 726.541L405.04 726.381L404.32 725.821" stroke="black" stroke-width="1.92" stroke-miterlimit="10" stroke-linecap="round" stroke-linejoin="round"/>
<path d="M714.801 728.3L715.281 728.86L715.841 729.18L716.561 729.34L717.281 729.18L717.841 728.78L718.241 728.22L718.401 727.5L718.321 726.86" stroke="black" stroke-width="1.92" stroke-miterlimit="10" stroke-linecap="round" stroke-linejoin="round"/>
<path d="M402.801 726.86L402.721 727.5L402.881 728.22L403.281 728.78L403.841 729.18L404.561 729.34L405.281 729.18L405.841 728.86L406.321 728.3" stroke="black" stroke-width="1.92" stroke-miterlimit="10" stroke-linecap="round" stroke-linejoin="round"/>
<path d="M718.321 726.94L718.481 727.58L718.321 728.3L717.921 728.94L717.281 729.34L716.561 729.5L715.921 729.34L715.281 728.94L714.881 728.38" stroke="black" stroke-width="1.92" stroke-miterlimit="10" stroke-linecap="round" stroke-linejoin="round"/>
<path d="M406.241 728.38L405.841 728.94L405.201 729.34L404.561 729.5L403.841 729.34L403.201 728.94L402.801 728.3L402.641 727.58L402.801 726.94" stroke="black" stroke-width="1.92" stroke-miterlimit="10" stroke-linecap="round" stroke-linejoin="round"/>
<path d="M404.561 725.821L405.121 726.221L405.841 726.381" stroke="black" stroke-width="1.92" stroke-miterlimit="10" stroke-linecap="round" stroke-linejoin="round"/>
<path d="M715.281 726.381L716.001 726.221L716.561 725.821" stroke="black" stroke-width="1.92" stroke-miterlimit="10" stroke-linecap="round" stroke-linejoin="round"/>
<path d="M639.121 736.859H482.001" stroke="black" stroke-width="1.92" stroke-miterlimit="10" stroke-linecap="round" stroke-linejoin="round"/>
<path d="M638.561 715.26H482.561" stroke="black" stroke-width="1.92" stroke-miterlimit="10" stroke-linecap="round" stroke-linejoin="round"/>
<path d="M363.521 645.1L345.041 671.98" stroke="black" stroke-width="1.92" stroke-miterlimit="10" stroke-linecap="round" stroke-linejoin="round"/>
<path d="M349.761 631.26L329.761 657.1" stroke="black" stroke-width="1.92" stroke-miterlimit="10" stroke-linecap="round" stroke-linejoin="round"/>
<path d="M757.281 644.62L776.081 671.98" stroke="black" stroke-width="1.92" stroke-miterlimit="10" stroke-linecap="round" stroke-linejoin="round"/>
<path d="M771.36 631.26L791.36 657.1" stroke="black" stroke-width="1.92" stroke-miterlimit="10" stroke-linecap="round" stroke-linejoin="round"/>
<path d="M713.681 595.26H713.761L714.001 595.18H714.401H714.881H715.361H715.761L716.081 595.26H716.241L716.161 595.34L715.921 595.42H715.521H715.041H714.561H714.161L713.841 595.34L713.681 595.26Z" stroke="black" stroke-width="1.92" stroke-miterlimit="10" stroke-linecap="round" stroke-linejoin="round"/>
<path d="M714.161 603.181L714.321 602.701L714.561 602.221L714.961 601.981L715.441 601.901L715.921 601.981L716.321 602.221L716.641 602.701L716.721 603.181L716.641 603.661L716.321 604.061L715.921 604.301L715.441 604.381L714.961 604.301L714.561 604.061L714.321 603.661L714.161 603.181Z" stroke="black" stroke-width="1.92" stroke-miterlimit="10" stroke-linecap="round" stroke-linejoin="round"/>
<path d="M714.32 603.821L714.72 604.141L715.12 604.301H715.6L716.08 604.141L716.4 603.821L716.64 603.341V602.861L716.48 602.461" stroke="black" stroke-width="1.92" stroke-miterlimit="10" stroke-linecap="round" stroke-linejoin="round"/>
<path d="M715.76 601.899L715.6 602.379L715.2 602.779L714.72 602.939H714.24" stroke="black" stroke-width="1.92" stroke-miterlimit="10" stroke-linecap="round" stroke-linejoin="round"/>
<path d="M714.24 602.859H714.72L715.12 602.699L715.52 602.379L715.68 601.899" stroke="black" stroke-width="1.92" stroke-miterlimit="10" stroke-linecap="round" stroke-linejoin="round"/>
<path d="M662.721 603.181L662.801 602.701L663.121 602.221L663.521 601.981L664.001 601.901L664.481 601.981L664.881 602.221L665.121 602.701L665.281 603.181L665.121 603.661L664.881 604.061L664.481 604.301L664.001 604.381L663.521 604.301L663.121 604.061L662.801 603.661L662.721 603.181Z" stroke="black" stroke-width="1.92" stroke-miterlimit="10" stroke-linecap="round" stroke-linejoin="round"/>
<path d="M662.801 603.581L663.041 603.981L663.521 604.221L664.001 604.381L664.481 604.221L664.881 603.981L665.121 603.581L665.201 603.101L665.121 602.621" stroke="black" stroke-width="1.92" stroke-miterlimit="10" stroke-linecap="round" stroke-linejoin="round"/>
<path d="M664.561 602.059L664.401 602.459L664.081 602.699L663.601 602.939H663.201L662.801 602.779L663.281 602.859L663.841 602.779L664.241 602.459L664.561 601.979" stroke="black" stroke-width="1.92" stroke-miterlimit="10" stroke-linecap="round" stroke-linejoin="round"/>
<path d="M612.32 595.26V595.34V595.5" stroke="black" stroke-width="1.92" stroke-miterlimit="10" stroke-linecap="round" stroke-linejoin="round"/>
<path d="M612.64 596.939V596.699V596.539L612.32 595.259" stroke="black" stroke-width="1.92" stroke-miterlimit="10" stroke-linecap="round" stroke-linejoin="round"/>
<path d="M612.561 609.26L612.641 609.5V609.42V609.26V596.94" stroke="black" stroke-width="1.92" stroke-miterlimit="10" stroke-linecap="round" stroke-linejoin="round"/>
<path d="M612.48 609.261L612.64 610.221" stroke="black" stroke-width="1.92" stroke-miterlimit="10" stroke-linecap="round" stroke-linejoin="round"/>
<path d="M746.881 599.5V596.7V596.38V596.06L746.801 595.98L745.761 594.62" stroke="black" stroke-width="1.92" stroke-miterlimit="10" stroke-linecap="round" stroke-linejoin="round"/>
<path d="M612.641 609.661V609.901V610.141V610.221" stroke="black" stroke-width="1.92" stroke-miterlimit="10" stroke-linecap="round" stroke-linejoin="round"/>
<path d="M733.601 596.86H744.321L744.801 596.94L745.121 597.18" stroke="black" stroke-width="1.92" stroke-miterlimit="10" stroke-linecap="round" stroke-linejoin="round"/>
<path d="M732.801 609.02L732.641 608.54V597.82L732.801 597.34L733.121 596.94L733.601 596.86" stroke="black" stroke-width="1.92" stroke-miterlimit="10" stroke-linecap="round" stroke-linejoin="round"/>
<path d="M612.64 609.66V596.7V596.38V596.06V595.98L612.32 594.62V594.7V594.86V595.18V595.5" stroke="black" stroke-width="1.92" stroke-miterlimit="10" stroke-linecap="round" stroke-linejoin="round"/>
<path d="M612.641 610.221H733.601" stroke="black" stroke-width="1.92" stroke-miterlimit="10" stroke-linecap="round" stroke-linejoin="round"/>
<path d="M612.32 594.621H745.76" stroke="black" stroke-width="1.92" stroke-miterlimit="10" stroke-linecap="round" stroke-linejoin="round"/>
<path d="M732.801 609.019L735.361 612.779" stroke="black" stroke-width="1.92" stroke-miterlimit="10" stroke-linecap="round" stroke-linejoin="round"/>
<path d="M745.121 597.18L748.161 601.1" stroke="black" stroke-width="1.92" stroke-miterlimit="10" stroke-linecap="round" stroke-linejoin="round"/>
<path d="M404.881 595.26H405.041L405.361 595.18H405.761H406.241H406.721H407.121L407.361 595.26H407.441L407.281 595.34L406.961 595.42H406.561H406.081H405.601H405.201L404.961 595.34L404.881 595.26Z" stroke="black" stroke-width="1.92" stroke-miterlimit="10" stroke-linecap="round" stroke-linejoin="round"/>
<path d="M404.4 603.181L404.48 602.701L404.8 602.221L405.2 601.981L405.68 601.901L406.16 601.981L406.56 602.221L406.8 602.701L406.96 603.181L406.8 603.661L406.56 604.061L406.16 604.301L405.68 604.381L405.2 604.301L404.8 604.061L404.48 603.661L404.4 603.181Z" stroke="black" stroke-width="1.92" stroke-miterlimit="10" stroke-linecap="round" stroke-linejoin="round"/>
<path d="M404.64 602.461L404.48 602.861V603.341L404.72 603.821L405.04 604.141L405.52 604.301H406L406.4 604.141L406.8 603.821" stroke="black" stroke-width="1.92" stroke-miterlimit="10" stroke-linecap="round" stroke-linejoin="round"/>
<path d="M406.88 602.939H406.4L405.92 602.779L405.52 602.379L405.36 601.899" stroke="black" stroke-width="1.92" stroke-miterlimit="10" stroke-linecap="round" stroke-linejoin="round"/>
<path d="M405.44 601.899L405.6 602.379L406 602.699L406.4 602.859H406.88" stroke="black" stroke-width="1.92" stroke-miterlimit="10" stroke-linecap="round" stroke-linejoin="round"/>
<path d="M455.841 603.181L456.001 602.701L456.241 602.221L456.641 601.981L457.121 601.901L457.601 601.981L458.001 602.221L458.321 602.701L458.401 603.181L458.321 603.661L458.001 604.061L457.601 604.301L457.121 604.381L456.641 604.301L456.241 604.061L456.001 603.661L455.841 603.181Z" stroke="black" stroke-width="1.92" stroke-miterlimit="10" stroke-linecap="round" stroke-linejoin="round"/>
<path d="M456.001 602.621L455.921 603.101L456.001 603.581L456.241 603.981L456.641 604.221L457.121 604.381L457.601 604.221L458.081 603.981L458.321 603.581" stroke="black" stroke-width="1.92" stroke-miterlimit="10" stroke-linecap="round" stroke-linejoin="round"/>
<path d="M456.561 601.979L456.881 602.459L457.281 602.779L457.841 602.859L458.321 602.779L457.921 602.939H457.521L457.041 602.699L456.721 602.459L456.561 602.059" stroke="black" stroke-width="1.92" stroke-miterlimit="10" stroke-linecap="round" stroke-linejoin="round"/>
<path d="M508.48 609.26V609.42V609.5L508.56 609.26" stroke="black" stroke-width="1.92" stroke-miterlimit="10" stroke-linecap="round" stroke-linejoin="round"/>
<path d="M508.48 596.54V596.7V596.94V609.26" stroke="black" stroke-width="1.92" stroke-miterlimit="10" stroke-linecap="round" stroke-linejoin="round"/>
<path d="M508.8 595.501V595.341V595.261L508.48 596.541" stroke="black" stroke-width="1.92" stroke-miterlimit="10" stroke-linecap="round" stroke-linejoin="round"/>
<path d="M508.801 594.62V594.7V594.86V595.18" stroke="black" stroke-width="1.92" stroke-miterlimit="10" stroke-linecap="round" stroke-linejoin="round"/>
<path d="M374.32 595.98L375.36 594.62" stroke="black" stroke-width="1.92" stroke-miterlimit="10" stroke-linecap="round" stroke-linejoin="round"/>
<path d="M508.8 594.62L508.48 595.98" stroke="black" stroke-width="1.92" stroke-miterlimit="10" stroke-linecap="round" stroke-linejoin="round"/>
<path d="M374.241 599.5V596.7V596.38V596.06L374.321 595.98" stroke="black" stroke-width="1.92" stroke-miterlimit="10" stroke-linecap="round" stroke-linejoin="round"/>
<path d="M508.48 596.701V596.381V596.061V595.981" stroke="black" stroke-width="1.92" stroke-miterlimit="10" stroke-linecap="round" stroke-linejoin="round"/>
<path d="M376.001 597.18L376.321 596.94L376.801 596.86H387.521L388.001 596.94L388.321 597.34L388.481 597.82V608.54L388.321 609.02" stroke="black" stroke-width="1.92" stroke-miterlimit="10" stroke-linecap="round" stroke-linejoin="round"/>
<path d="M508.48 596.701V609.661V609.901V610.141V610.221L508.64 609.261" stroke="black" stroke-width="1.92" stroke-miterlimit="10" stroke-linecap="round" stroke-linejoin="round"/>
<path d="M508.801 595.5V595.18" stroke="black" stroke-width="1.92" stroke-miterlimit="10" stroke-linecap="round" stroke-linejoin="round"/>
<path d="M508.8 594.621H375.36" stroke="black" stroke-width="1.92" stroke-miterlimit="10" stroke-linecap="round" stroke-linejoin="round"/>
<path d="M508.481 610.221H387.521" stroke="black" stroke-width="1.92" stroke-miterlimit="10" stroke-linecap="round" stroke-linejoin="round"/>
<path d="M376.001 597.18L372.961 601.1" stroke="black" stroke-width="1.92" stroke-miterlimit="10" stroke-linecap="round" stroke-linejoin="round"/>
<path d="M388.32 609.02L385.44 613.26" stroke="black" stroke-width="1.92" stroke-miterlimit="10" stroke-linecap="round" stroke-linejoin="round"/>
<path d="M791.281 715.34L791.361 715.18L791.761 715.1L792.321 715.02H793.041H793.761L794.401 715.1L794.881 715.18L795.121 715.34L795.041 715.42L794.721 715.5L794.081 715.58H793.441H792.641L792.001 715.5L791.521 715.42L791.281 715.34Z" stroke="black" stroke-width="1.92" stroke-miterlimit="10" stroke-linecap="round" stroke-linejoin="round"/>
<path d="M792.641 728.7L793.201 729.18L793.841 729.42H794.561L795.201 729.18L795.761 728.7L796.081 728.06V727.34L795.841 726.62" stroke="black" stroke-width="1.92" stroke-miterlimit="10" stroke-linecap="round" stroke-linejoin="round"/>
<path d="M792.4 727.74L792.56 727.02L792.96 726.38L793.6 725.98L794.32 725.82L795.04 725.98L795.68 726.38L796.08 727.02L796.24 727.74L796.08 728.46L795.68 729.1L795.04 729.5L794.32 729.66L793.6 729.5L792.96 729.1L792.56 728.46L792.4 727.74Z" stroke="black" stroke-width="1.92" stroke-miterlimit="10" stroke-linecap="round" stroke-linejoin="round"/>
<path d="M715.681 726.061L716.081 725.901" stroke="black" stroke-width="1.92" stroke-miterlimit="10" stroke-linecap="round" stroke-linejoin="round"/>
<path d="M716.48 725.821L716 726.141L715.36 726.301" stroke="black" stroke-width="1.92" stroke-miterlimit="10" stroke-linecap="round" stroke-linejoin="round"/>
<path d="M714.881 728.38L715.281 728.94L715.921 729.34L716.561 729.5L717.281 729.34L717.921 728.94L718.321 728.3L718.481 727.58L718.321 726.94" stroke="black" stroke-width="1.92" stroke-miterlimit="10" stroke-linecap="round" stroke-linejoin="round"/>
<path d="M714.721 727.74L714.881 727.02L715.281 726.38L715.921 725.98L716.641 725.82L717.361 725.98L718.001 726.38L718.401 727.02L718.561 727.74L718.401 728.46L718.001 729.1L717.361 729.5L716.641 729.66L715.921 729.5L715.281 729.1L714.881 728.46L714.721 727.74Z" stroke="black" stroke-width="1.92" stroke-miterlimit="10" stroke-linecap="round" stroke-linejoin="round"/>
<path d="M639.041 736.86L639.121 737.26V737.18V736.86V718.3" stroke="black" stroke-width="1.92" stroke-miterlimit="10" stroke-linecap="round" stroke-linejoin="round"/>
<path d="M638.48 714.78V714.86V715.18V715.26" stroke="black" stroke-width="1.92" stroke-miterlimit="10" stroke-linecap="round" stroke-linejoin="round"/>
<path d="M639.12 718.301V717.901V717.741L638.48 714.781" stroke="black" stroke-width="1.92" stroke-miterlimit="10" stroke-linecap="round" stroke-linejoin="round"/>
<path d="M841.761 717.98L841.681 717.5V717.02L841.601 716.86" stroke="black" stroke-width="1.92" stroke-miterlimit="10" stroke-linecap="round" stroke-linejoin="round"/>
<path d="M639.121 716.86L639.201 717.02V717.5V717.98" stroke="black" stroke-width="1.92" stroke-miterlimit="10" stroke-linecap="round" stroke-linejoin="round"/>
<path d="M839.2 713.739L841.6 716.859" stroke="black" stroke-width="1.92" stroke-miterlimit="10" stroke-linecap="round" stroke-linejoin="round"/>
<path d="M639.12 716.859L638.48 713.739" stroke="black" stroke-width="1.92" stroke-miterlimit="10" stroke-linecap="round" stroke-linejoin="round"/>
<path d="M841.761 717.981V737.501L841.681 737.901V738.221L841.601 738.301" stroke="black" stroke-width="1.92" stroke-miterlimit="10" stroke-linecap="round" stroke-linejoin="round"/>
<path d="M638.48 715.26V714.54V714.14V713.82V713.74" stroke="black" stroke-width="1.92" stroke-miterlimit="10" stroke-linecap="round" stroke-linejoin="round"/>
<path d="M638.881 736.861L639.121 738.301L639.201 738.221V737.981V737.501V717.981" stroke="black" stroke-width="1.92" stroke-miterlimit="10" stroke-linecap="round" stroke-linejoin="round"/>
<path d="M638.48 713.74H839.2" stroke="black" stroke-width="1.92" stroke-miterlimit="10" stroke-linecap="round" stroke-linejoin="round"/>
<path d="M639.201 738.301H841.601" stroke="black" stroke-width="1.92" stroke-miterlimit="10" stroke-linecap="round" stroke-linejoin="round"/>
<path d="M835.2 713.74L827.44 703.74" stroke="black" stroke-width="1.92" stroke-miterlimit="10" stroke-linecap="round" stroke-linejoin="round"/>
<path d="M326.001 715.34L326.241 715.18L326.721 715.1L327.361 715.02H328.081H328.801L329.361 715.1L329.761 715.18L329.841 715.34L329.601 715.42L329.121 715.5L328.481 715.58H327.681H327.041L326.401 715.5L326.081 715.42L326.001 715.34Z" stroke="black" stroke-width="1.92" stroke-miterlimit="10" stroke-linecap="round" stroke-linejoin="round"/>
<path d="M325.281 726.62L325.041 727.34V728.06L325.361 728.7L325.921 729.18L326.561 729.42H327.281L327.921 729.18L328.481 728.7" stroke="black" stroke-width="1.92" stroke-miterlimit="10" stroke-linecap="round" stroke-linejoin="round"/>
<path d="M324.881 727.74L325.041 727.02L325.441 726.38L326.081 725.98L326.801 725.82L327.521 725.98L328.161 726.38L328.561 727.02L328.721 727.74L328.561 728.46L328.161 729.1L327.521 729.5L326.801 729.66L326.081 729.5L325.441 729.1L325.041 728.46L324.881 727.74Z" stroke="black" stroke-width="1.92" stroke-miterlimit="10" stroke-linecap="round" stroke-linejoin="round"/>
<path d="M405.041 725.901L405.441 726.061" stroke="black" stroke-width="1.92" stroke-miterlimit="10" stroke-linecap="round" stroke-linejoin="round"/>
<path d="M405.761 726.301L405.121 726.141L404.641 725.821" stroke="black" stroke-width="1.92" stroke-miterlimit="10" stroke-linecap="round" stroke-linejoin="round"/>
<path d="M402.801 726.94L402.641 727.58L402.801 728.3L403.201 728.94L403.841 729.34L404.561 729.5L405.201 729.34L405.841 728.94L406.241 728.38" stroke="black" stroke-width="1.92" stroke-miterlimit="10" stroke-linecap="round" stroke-linejoin="round"/>
<path d="M402.561 727.74L402.721 727.02L403.121 726.38L403.761 725.98L404.481 725.82L405.201 725.98L405.841 726.38L406.241 727.02L406.401 727.74L406.241 728.46L405.841 729.1L405.201 729.5L404.481 729.66L403.761 729.5L403.121 729.1L402.721 728.46L402.561 727.74Z" stroke="black" stroke-width="1.92" stroke-miterlimit="10" stroke-linecap="round" stroke-linejoin="round"/>
<path d="M482.001 717.739V717.899V718.299V736.859" stroke="black" stroke-width="1.92" stroke-miterlimit="10" stroke-linecap="round" stroke-linejoin="round"/>
<path d="M482.641 715.26V715.18V714.86V714.78L482.001 717.74" stroke="black" stroke-width="1.92" stroke-miterlimit="10" stroke-linecap="round" stroke-linejoin="round"/>
<path d="M482.001 736.86V737.18V737.26L482.081 736.86" stroke="black" stroke-width="1.92" stroke-miterlimit="10" stroke-linecap="round" stroke-linejoin="round"/>
<path d="M279.36 737.501L279.44 737.901V738.221L279.52 738.301" stroke="black" stroke-width="1.92" stroke-miterlimit="10" stroke-linecap="round" stroke-linejoin="round"/>
<path d="M482.241 736.861L482.001 738.301L481.921 738.221V737.981V737.501" stroke="black" stroke-width="1.92" stroke-miterlimit="10" stroke-linecap="round" stroke-linejoin="round"/>
<path d="M279.36 737.5V717.98L279.44 717.5V717.02L279.52 716.86L281.92 713.74" stroke="black" stroke-width="1.92" stroke-miterlimit="10" stroke-linecap="round" stroke-linejoin="round"/>
<path d="M482.641 715.26V714.54V714.14V713.82V713.74L482.001 716.86L481.921 717.02V717.5V717.98V737.5" stroke="black" stroke-width="1.92" stroke-miterlimit="10" stroke-linecap="round" stroke-linejoin="round"/>
<path d="M481.921 738.301H279.521" stroke="black" stroke-width="1.92" stroke-miterlimit="10" stroke-linecap="round" stroke-linejoin="round"/>
<path d="M482.641 713.74H281.921" stroke="black" stroke-width="1.92" stroke-miterlimit="10" stroke-linecap="round" stroke-linejoin="round"/>
<path d="M285.921 713.74L293.681 703.74" stroke="black" stroke-width="1.92" stroke-miterlimit="10" stroke-linecap="round" stroke-linejoin="round"/>
</svg>
