<svg width="1120" height="792" viewBox="0 0 1120 792" fill="none" xmlns="http://www.w3.org/2000/svg">
<g clip-path="url(#clip0_499_61958)">
<path d="M800.4 549.107L800.88 549.027L801.28 548.787L801.52 548.387L801.68 547.907" stroke="black" stroke-width="1.92" stroke-miterlimit="10" stroke-linecap="round" stroke-linejoin="round"/>
<path d="M801.76 547.908L801.6 548.388L801.36 548.868L800.88 549.108L800.4 549.188" stroke="black" stroke-width="1.92" stroke-miterlimit="10" stroke-linecap="round" stroke-linejoin="round"/>
<path d="M800.721 549.988L801.121 550.308L801.601 550.388L802.081 550.308L802.481 550.068L802.721 549.668L802.881 549.188L802.801 548.708L802.561 548.308" stroke="black" stroke-width="1.92" stroke-miterlimit="10" stroke-linecap="round" stroke-linejoin="round"/>
<path d="M800.4 549.188L800.48 548.708L800.8 548.308L801.2 548.068L801.68 547.908L802.16 548.068L802.56 548.308L802.88 548.708L802.96 549.188L802.88 549.668L802.56 550.068L802.16 550.388L801.68 550.468L801.2 550.388L800.8 550.068L800.48 549.668L800.4 549.188Z" stroke="black" stroke-width="1.92" stroke-miterlimit="10" stroke-linecap="round" stroke-linejoin="round"/>
<path d="M732.16 549.027L732.64 549.107L733.12 548.867L733.52 548.547L733.68 548.067" stroke="black" stroke-width="1.92" stroke-miterlimit="10" stroke-linecap="round" stroke-linejoin="round"/>
<path d="M733.76 548.068L733.6 548.628L733.2 548.948L732.72 549.188L732.16 549.108" stroke="black" stroke-width="1.92" stroke-miterlimit="10" stroke-linecap="round" stroke-linejoin="round"/>
<path d="M732.32 549.908L732.64 550.228M732.64 550.228L733.04 550.388H733.52L734 550.228M732.64 550.228L733.12 550.468H733.6L734 550.228M734 550.228L734.32 549.908L734.48 549.428L734.56 548.948L734.4 548.548L734.56 549.028V549.508L734.4 549.908L734 550.228Z" stroke="black" stroke-width="1.92" stroke-miterlimit="10" stroke-linecap="round" stroke-linejoin="round"/>
<path d="M823.361 580.867L823.441 580.387L823.761 579.987L824.161 579.667L824.641 579.587L825.121 579.667L825.521 579.987L825.841 580.387L825.921 580.867L825.841 581.347L825.521 581.747L825.121 581.987L824.641 582.147L824.161 581.987L823.761 581.747L823.441 581.347L823.361 580.867Z" stroke="black" stroke-width="1.92" stroke-miterlimit="10" stroke-linecap="round" stroke-linejoin="round"/>
<path d="M823.682 581.667L824.082 581.907L824.562 582.067L825.042 581.987L825.442 581.747L825.682 581.347L825.842 580.867L825.762 580.387L825.522 579.987" stroke="black" stroke-width="1.92" stroke-miterlimit="10" stroke-linecap="round" stroke-linejoin="round"/>
<path d="M823.361 557.188L823.441 556.708L823.761 556.308L824.161 555.988L824.641 555.908L825.121 555.988L825.521 556.308L825.841 556.708L825.921 557.188L825.841 557.668L825.521 558.068L825.121 558.308L824.641 558.468L824.161 558.308L823.761 558.068L823.441 557.668L823.361 557.188Z" stroke="black" stroke-width="1.92" stroke-miterlimit="10" stroke-linecap="round" stroke-linejoin="round"/>
<path d="M823.682 557.988L824.082 558.308L824.562 558.388L825.042 558.308L825.442 557.988L825.762 557.588L825.842 557.108L825.762 556.708L825.522 556.228" stroke="black" stroke-width="1.92" stroke-miterlimit="10" stroke-linecap="round" stroke-linejoin="round"/>
<path d="M823.361 604.547L823.441 604.067L823.761 603.667L824.161 603.347L824.641 603.267L825.121 603.347L825.521 603.667L825.841 604.067L825.921 604.547L825.841 605.027L825.521 605.427L825.121 605.667L824.641 605.827L824.161 605.667L823.761 605.427L823.441 605.027L823.361 604.547Z" stroke="black" stroke-width="1.92" stroke-miterlimit="10" stroke-linecap="round" stroke-linejoin="round"/>
<path d="M823.602 605.267L824.002 605.587L824.482 605.747L824.962 605.667L825.362 605.427L825.682 605.027L825.842 604.627L825.762 604.147L825.602 603.667" stroke="black" stroke-width="1.92" stroke-miterlimit="10" stroke-linecap="round" stroke-linejoin="round"/>
<path d="M817.041 539.987H816.801" stroke="black" stroke-width="1.92" stroke-miterlimit="10" stroke-linecap="round" stroke-linejoin="round"/>
<path d="M816.801 539.988L818.081 541.268L818.161 541.348H818.401" stroke="black" stroke-width="1.92" stroke-miterlimit="10" stroke-linecap="round" stroke-linejoin="round"/>
<path d="M818.4 541.348H830.72H830.96L831.04 541.268L830.8 541.108" stroke="black" stroke-width="1.92" stroke-miterlimit="10" stroke-linecap="round" stroke-linejoin="round"/>
<path d="M817.761 591.588V578.228L817.681 578.148L817.601 578.068L817.521 577.988H817.441" stroke="black" stroke-width="1.92" stroke-miterlimit="10" stroke-linecap="round" stroke-linejoin="round"/>
<path d="M830.801 540.468L831.681 541.348H831.601H831.441L831.121 541.428H818.161L817.841 541.348H817.601H817.441" stroke="black" stroke-width="1.92" stroke-miterlimit="10" stroke-linecap="round" stroke-linejoin="round"/>
<path d="M817.04 539.908H816.64H816.4H816.16L816.08 539.988L817.44 541.348" stroke="black" stroke-width="1.92" stroke-miterlimit="10" stroke-linecap="round" stroke-linejoin="round"/>
<path d="M831.121 620.308H824.801" stroke="black" stroke-width="1.92" stroke-miterlimit="10" stroke-linecap="round" stroke-linejoin="round"/>
<path d="M816.08 576.387H816.16V576.627" stroke="black" stroke-width="1.92" stroke-miterlimit="10" stroke-linecap="round" stroke-linejoin="round"/>
<path d="M817.441 577.907V577.987" stroke="black" stroke-width="1.92" stroke-miterlimit="10" stroke-linecap="round" stroke-linejoin="round"/>
<path d="M817.36 555.428L817.44 555.268V555.028V554.548V543.828V543.348V542.948L817.36 542.788L816.24 541.668" stroke="black" stroke-width="1.92" stroke-miterlimit="10" stroke-linecap="round" stroke-linejoin="round"/>
<path d="M831.121 620.308H831.441H831.601L831.681 620.228" stroke="black" stroke-width="1.92" stroke-miterlimit="10" stroke-linecap="round" stroke-linejoin="round"/>
<path d="M817.76 578.228L784 544.548V544.468L794.08 554.548L817.44 577.908" stroke="black" stroke-width="1.92" stroke-miterlimit="10" stroke-linecap="round" stroke-linejoin="round"/>
<path d="M784.001 544.468H770.561L770.641 544.548L817.761 591.588" stroke="black" stroke-width="1.92" stroke-miterlimit="10" stroke-linecap="round" stroke-linejoin="round"/>
<path d="M784.001 544.548H770.641" stroke="black" stroke-width="1.92" stroke-miterlimit="10" stroke-linecap="round" stroke-linejoin="round"/>
<path d="M816.161 576.388L795.121 555.428L816.081 576.388" stroke="black" stroke-width="1.92" stroke-miterlimit="10" stroke-linecap="round" stroke-linejoin="round"/>
<path d="M831.682 620.228V541.348" stroke="black" stroke-width="1.92" stroke-miterlimit="10" stroke-linecap="round" stroke-linejoin="round"/>
<path d="M816.08 609.188V589.987" stroke="black" stroke-width="1.92" stroke-miterlimit="10" stroke-linecap="round" stroke-linejoin="round"/>
<path d="M816.08 576.388V555.428" stroke="black" stroke-width="1.92" stroke-miterlimit="10" stroke-linecap="round" stroke-linejoin="round"/>
<path d="M816.08 541.667V539.987" stroke="black" stroke-width="1.92" stroke-miterlimit="10" stroke-linecap="round" stroke-linejoin="round"/>
<path d="M817.361 555.428H794.961" stroke="black" stroke-width="1.92" stroke-miterlimit="10" stroke-linecap="round" stroke-linejoin="round"/>
<path d="M781.52 555.428H773.84" stroke="black" stroke-width="1.92" stroke-miterlimit="10" stroke-linecap="round" stroke-linejoin="round"/>
<path d="M816.24 541.667H764.4" stroke="black" stroke-width="1.92" stroke-miterlimit="10" stroke-linecap="round" stroke-linejoin="round"/>
<path d="M354.16 549.108L354.24 548.628L354.56 548.228L354.96 547.988L355.44 547.908L355.92 547.988L356.32 548.228L356.56 548.628L356.72 549.108L356.56 549.588L356.32 549.988L355.92 550.308L355.44 550.388L354.96 550.308L354.56 549.988L354.24 549.588L354.16 549.108Z" stroke="black" stroke-width="1.92" stroke-miterlimit="10" stroke-linecap="round" stroke-linejoin="round"/>
<path d="M354.56 548.228L354.32 548.628L354.24 549.108L354.32 549.588L354.64 549.988L355.04 550.228L355.52 550.308L356 550.228L356.4 549.908" stroke="black" stroke-width="1.92" stroke-miterlimit="10" stroke-linecap="round" stroke-linejoin="round"/>
<path d="M356.721 549.107L356.161 549.027L355.761 548.787L355.441 548.387L355.361 547.907" stroke="black" stroke-width="1.92" stroke-miterlimit="10" stroke-linecap="round" stroke-linejoin="round"/>
<path d="M355.441 547.907L355.521 548.307L355.841 548.707L356.241 548.947L356.721 549.027" stroke="black" stroke-width="1.92" stroke-miterlimit="10" stroke-linecap="round" stroke-linejoin="round"/>
<path d="M424.72 549.908L424.4 550.228L424 550.388H423.52L423.04 550.228L422.72 549.908L422.56 549.428L422.48 548.948L422.64 548.548" stroke="black" stroke-width="1.92" stroke-miterlimit="10" stroke-linecap="round" stroke-linejoin="round"/>
<path d="M422.641 548.468L422.561 549.028L422.641 549.508L422.881 549.988L423.361 550.228L423.841 550.308L424.401 550.148L424.801 549.828" stroke="black" stroke-width="1.92" stroke-miterlimit="10" stroke-linecap="round" stroke-linejoin="round"/>
<path d="M423.921 548.867L424.401 549.107L424.881 549.027H424.401L423.921 548.867ZM423.921 548.867L423.521 548.547L423.361 548.067L423.601 548.467L423.921 548.867Z" stroke="black" stroke-width="1.92" stroke-miterlimit="10" stroke-linecap="round" stroke-linejoin="round"/>
<path d="M331.601 579.907L331.361 580.307L331.281 580.787L331.441 581.267L331.681 581.667L332.081 581.907L332.561 581.987L333.041 581.827L333.441 581.587" stroke="black" stroke-width="1.92" stroke-miterlimit="10" stroke-linecap="round" stroke-linejoin="round"/>
<path d="M331.201 580.787L331.281 580.307L331.601 579.907L332.001 579.587L332.481 579.507L332.961 579.587L333.361 579.907L333.601 580.307L333.761 580.787L333.601 581.267L333.361 581.667L332.961 581.907L332.481 582.067L332.001 581.907L331.601 581.667L331.281 581.267L331.201 580.787Z" stroke="black" stroke-width="1.92" stroke-miterlimit="10" stroke-linecap="round" stroke-linejoin="round"/>
<path d="M331.601 556.228L331.361 556.628L331.281 557.108L331.361 557.508L331.681 557.908L332.081 558.228L332.561 558.308L333.041 558.228L333.441 557.988" stroke="black" stroke-width="1.92" stroke-miterlimit="10" stroke-linecap="round" stroke-linejoin="round"/>
<path d="M331.201 557.108L331.281 556.628L331.601 556.228L332.001 555.908L332.481 555.828L332.961 555.908L333.361 556.228L333.601 556.628L333.761 557.108L333.601 557.588L333.361 557.988L332.961 558.308L332.481 558.388L332.001 558.308L331.601 557.988L331.281 557.588L331.201 557.108Z" stroke="black" stroke-width="1.92" stroke-miterlimit="10" stroke-linecap="round" stroke-linejoin="round"/>
<path d="M331.521 603.587L331.281 604.067V604.547L331.441 604.947L331.761 605.347L332.161 605.587L332.641 605.667L333.121 605.507L333.441 605.187" stroke="black" stroke-width="1.92" stroke-miterlimit="10" stroke-linecap="round" stroke-linejoin="round"/>
<path d="M331.201 604.467L331.281 603.987L331.601 603.587L332.001 603.267L332.481 603.187L332.961 603.267L333.361 603.587L333.601 603.987L333.761 604.467L333.601 604.947L333.361 605.347L332.961 605.587L332.481 605.747L332.001 605.587L331.601 605.347L331.281 604.947L331.201 604.467Z" stroke="black" stroke-width="1.92" stroke-miterlimit="10" stroke-linecap="round" stroke-linejoin="round"/>
<path d="M326.4 541.268H338.72H338.96L339.04 541.188" stroke="black" stroke-width="1.92" stroke-miterlimit="10" stroke-linecap="round" stroke-linejoin="round"/>
<path d="M339.041 541.188L340.321 539.908H340.241H340.081" stroke="black" stroke-width="1.92" stroke-miterlimit="10" stroke-linecap="round" stroke-linejoin="round"/>
<path d="M326.32 541.028L326.08 541.188L326.16 541.268H326.4" stroke="black" stroke-width="1.92" stroke-miterlimit="10" stroke-linecap="round" stroke-linejoin="round"/>
<path d="M341.041 576.308H340.961" stroke="black" stroke-width="1.92" stroke-miterlimit="10" stroke-linecap="round" stroke-linejoin="round"/>
<path d="M340.08 539.827H340.4H340.72L340.96 539.907" stroke="black" stroke-width="1.92" stroke-miterlimit="10" stroke-linecap="round" stroke-linejoin="round"/>
<path d="M326.321 540.388L325.441 541.268H325.521L325.681 541.348H326.001H338.961H339.281L339.521 541.268H339.601L340.961 539.908" stroke="black" stroke-width="1.92" stroke-miterlimit="10" stroke-linecap="round" stroke-linejoin="round"/>
<path d="M339.602 577.907L339.682 577.827" stroke="black" stroke-width="1.92" stroke-miterlimit="10" stroke-linecap="round" stroke-linejoin="round"/>
<path d="M340.961 576.548V576.308" stroke="black" stroke-width="1.92" stroke-miterlimit="10" stroke-linecap="round" stroke-linejoin="round"/>
<path d="M339.762 555.348L339.682 555.268V554.948V554.468V543.748V543.268V542.868L339.762 542.708L340.882 541.588" stroke="black" stroke-width="1.92" stroke-miterlimit="10" stroke-linecap="round" stroke-linejoin="round"/>
<path d="M332.321 620.228H326.001H325.681H325.521L325.441 620.148" stroke="black" stroke-width="1.92" stroke-miterlimit="10" stroke-linecap="round" stroke-linejoin="round"/>
<path d="M339.361 591.508V578.148L339.441 578.068L339.521 577.988L339.601 577.908" stroke="black" stroke-width="1.92" stroke-miterlimit="10" stroke-linecap="round" stroke-linejoin="round"/>
<path d="M340.961 576.308L362.001 555.348L341.041 576.308" stroke="black" stroke-width="1.92" stroke-miterlimit="10" stroke-linecap="round" stroke-linejoin="round"/>
<path d="M339.682 577.827L363.042 554.467" stroke="black" stroke-width="1.92" stroke-miterlimit="10" stroke-linecap="round" stroke-linejoin="round"/>
<path d="M363.041 554.467L373.121 544.387L373.041 544.467L339.361 578.147" stroke="black" stroke-width="1.92" stroke-miterlimit="10" stroke-linecap="round" stroke-linejoin="round"/>
<path d="M373.121 544.388H386.481" stroke="black" stroke-width="1.92" stroke-miterlimit="10" stroke-linecap="round" stroke-linejoin="round"/>
<path d="M386.481 544.388V544.468H373.041" stroke="black" stroke-width="1.92" stroke-miterlimit="10" stroke-linecap="round" stroke-linejoin="round"/>
<path d="M386.481 544.468L339.361 591.508" stroke="black" stroke-width="1.92" stroke-miterlimit="10" stroke-linecap="round" stroke-linejoin="round"/>
<path d="M341.041 609.107V589.907" stroke="black" stroke-width="1.92" stroke-miterlimit="10" stroke-linecap="round" stroke-linejoin="round"/>
<path d="M341.041 576.308V555.348" stroke="black" stroke-width="1.92" stroke-miterlimit="10" stroke-linecap="round" stroke-linejoin="round"/>
<path d="M341.041 541.588V539.908" stroke="black" stroke-width="1.92" stroke-miterlimit="10" stroke-linecap="round" stroke-linejoin="round"/>
<path d="M325.441 620.147V541.267" stroke="black" stroke-width="1.92" stroke-miterlimit="10" stroke-linecap="round" stroke-linejoin="round"/>
<path d="M340.881 541.588H392.721" stroke="black" stroke-width="1.92" stroke-miterlimit="10" stroke-linecap="round" stroke-linejoin="round"/>
<path d="M339.762 555.348H362.162" stroke="black" stroke-width="1.92" stroke-miterlimit="10" stroke-linecap="round" stroke-linejoin="round"/>
<path d="M375.602 555.348H382.962" stroke="black" stroke-width="1.92" stroke-miterlimit="10" stroke-linecap="round" stroke-linejoin="round"/>
<path d="M221.361 673.827L221.521 673.107L221.921 672.467L222.561 672.067L223.281 671.907L224.001 672.067L224.641 672.467L225.041 673.107L225.201 673.827L225.041 674.547L224.641 675.107L224.001 675.587L223.281 675.667L222.561 675.587L221.921 675.107L221.521 674.547L221.361 673.827Z" stroke="black" stroke-width="1.92" stroke-miterlimit="10" stroke-linecap="round" stroke-linejoin="round"/>
<path d="M222.001 672.388L221.601 673.028L221.521 673.748L221.681 674.468L222.081 675.028L222.721 675.428L223.441 675.588L224.081 675.428L224.721 675.028" stroke="black" stroke-width="1.92" stroke-miterlimit="10" stroke-linecap="round" stroke-linejoin="round"/>
<path d="M120.16 662.787L120.48 662.627L120.96 662.547L121.68 662.467H122.48H123.12L123.68 662.547L124 662.627V662.787L123.68 662.867L123.12 662.947L122.4 663.027H121.68H120.96L120.48 662.947L120.16 662.867V662.787Z" stroke="black" stroke-width="1.92" stroke-miterlimit="10" stroke-linecap="round" stroke-linejoin="round"/>
<path d="M222.881 662.787L223.121 662.627L223.601 662.547L224.321 662.467H225.041H225.761L226.321 662.547L226.641 662.627V662.787L226.401 662.867L225.921 662.947L225.201 663.027H224.481H223.761L223.201 662.947L222.881 662.867V662.787Z" stroke="black" stroke-width="1.92" stroke-miterlimit="10" stroke-linecap="round" stroke-linejoin="round"/>
<path d="M95.9199 654.228L96.2399 654.148L96.7199 653.988H97.4399L98.1599 653.908L98.8799 653.988H99.3599L99.6799 654.148V654.228L99.3599 654.308L98.7999 654.388L98.1599 654.468L97.3599 654.548L96.7199 654.468L96.1599 654.388L95.9199 654.308V654.228Z" stroke="black" stroke-width="1.92" stroke-miterlimit="10" stroke-linecap="round" stroke-linejoin="round"/>
<path d="M88.3203 659.667L88.6403 659.587L89.2003 659.507L89.9203 659.427H90.6403H91.3603L91.8403 659.507L92.1603 659.587V659.667L91.8403 659.827L91.2803 659.907L90.5603 659.987H89.8403H89.1203L88.6403 659.907L88.3203 659.827V659.667Z" stroke="black" stroke-width="1.92" stroke-miterlimit="10" stroke-linecap="round" stroke-linejoin="round"/>
<path d="M103.281 648.868L103.521 648.788L104.081 648.708L104.721 648.628H105.521H106.161L106.641 648.708L106.961 648.788V648.868L106.641 649.028L106.161 649.108L105.441 649.188H104.721H104.081L103.521 649.108L103.281 649.028V648.868Z" stroke="black" stroke-width="1.92" stroke-miterlimit="10" stroke-linecap="round" stroke-linejoin="round"/>
<path d="M93.6816 683.987H94.4016L94.7216 683.827L94.8816 683.507" stroke="black" stroke-width="1.92" stroke-miterlimit="10" stroke-linecap="round" stroke-linejoin="round"/>
<path d="M94.8804 683.508V664.868L94.7204 664.548L94.4004 664.388" stroke="black" stroke-width="1.92" stroke-miterlimit="10" stroke-linecap="round" stroke-linejoin="round"/>
<path d="M94.4013 664.387H75.7613L75.4413 664.547L75.2812 664.867V665.747" stroke="black" stroke-width="1.92" stroke-miterlimit="10" stroke-linecap="round" stroke-linejoin="round"/>
<path d="M107.121 655.027L111.201 651.987" stroke="black" stroke-width="1.92" stroke-miterlimit="10" stroke-linecap="round" stroke-linejoin="round"/>
<path d="M120.081 646.388L119.921 645.908L119.601 645.588L119.121 645.428" stroke="black" stroke-width="1.92" stroke-miterlimit="10" stroke-linecap="round" stroke-linejoin="round"/>
<path d="M74.3203 666.468V664.388L74.4803 663.908L74.8003 663.588L75.2803 663.428H94.8803L95.3603 663.588L95.6803 663.908L95.8403 664.388" stroke="black" stroke-width="1.92" stroke-miterlimit="10" stroke-linecap="round" stroke-linejoin="round"/>
<path d="M92.4805 684.947H94.8805L95.3605 684.787L95.6805 684.467L95.8405 683.987V664.387" stroke="black" stroke-width="1.92" stroke-miterlimit="10" stroke-linecap="round" stroke-linejoin="round"/>
<path d="M100.561 645.428H119.121" stroke="black" stroke-width="1.92" stroke-miterlimit="10" stroke-linecap="round" stroke-linejoin="round"/>
<path d="M120.08 646.387V653.747" stroke="black" stroke-width="1.92" stroke-miterlimit="10" stroke-linecap="round" stroke-linejoin="round"/>
<path d="M120.08 658.548V661.428" stroke="black" stroke-width="1.92" stroke-miterlimit="10" stroke-linecap="round" stroke-linejoin="round"/>
<path d="M107.361 656.067V655.827" stroke="black" stroke-width="1.92" stroke-miterlimit="10" stroke-linecap="round" stroke-linejoin="round"/>
<path d="M96.5603 683.107L96.4803 682.947L96.3203 682.547V681.907V665.667L96.4003 664.947L96.4803 664.387L96.6403 664.067L100.08 661.507V661.427" stroke="black" stroke-width="1.92" stroke-miterlimit="10" stroke-linecap="round" stroke-linejoin="round"/>
<path d="M100.56 645.428L100.08 645.588" stroke="black" stroke-width="1.92" stroke-miterlimit="10" stroke-linecap="round" stroke-linejoin="round"/>
<path d="M107.121 655.027L147.281 662.947V663.907L135.041 661.507L107.361 656.067" stroke="black" stroke-width="1.92" stroke-miterlimit="10" stroke-linecap="round" stroke-linejoin="round"/>
<path d="M147.281 663.907H167.521V662.947L111.201 651.987" stroke="black" stroke-width="1.92" stroke-miterlimit="10" stroke-linecap="round" stroke-linejoin="round"/>
<path d="M147.281 662.947H167.521" stroke="black" stroke-width="1.92" stroke-miterlimit="10" stroke-linecap="round" stroke-linejoin="round"/>
<path d="M147.282 683.107V683.907L143.602 683.107" stroke="black" stroke-width="1.92" stroke-miterlimit="10" stroke-linecap="round" stroke-linejoin="round"/>
<path d="M167.521 683.107V683.907H147.281" stroke="black" stroke-width="1.92" stroke-miterlimit="10" stroke-linecap="round" stroke-linejoin="round"/>
<path d="M278.56 663.027L278.48 662.627V662.467L276.4 664.947" stroke="black" stroke-width="1.92" stroke-miterlimit="10" stroke-linecap="round" stroke-linejoin="round"/>
<path d="M278.48 679.508V679.188L278.56 678.628V663.028" stroke="black" stroke-width="1.92" stroke-miterlimit="10" stroke-linecap="round" stroke-linejoin="round"/>
<path d="M276.24 681.507L276.32 681.987L276.4 682.067L278.48 679.507" stroke="black" stroke-width="1.92" stroke-miterlimit="10" stroke-linecap="round" stroke-linejoin="round"/>
<path d="M276.4 664.948L276.32 665.268L276.24 665.828V681.508" stroke="black" stroke-width="1.92" stroke-miterlimit="10" stroke-linecap="round" stroke-linejoin="round"/>
<path d="M278.64 662.707V678.707V679.507L278.56 680.067L278.48 680.387L276.32 683.107L276.24 683.027L276.16 682.547V681.907V665.667V664.947L276.24 664.387L276.32 664.067L278.48 661.507L278.56 661.587L278.64 661.987V662.707Z" stroke="black" stroke-width="1.92" stroke-miterlimit="10" stroke-linecap="round" stroke-linejoin="round"/>
<path d="M100.081 645.587L74.7207 663.667" stroke="black" stroke-width="1.92" stroke-miterlimit="10" stroke-linecap="round" stroke-linejoin="round"/>
<path d="M97.5214 683.107L95.4414 684.707" stroke="black" stroke-width="1.92" stroke-miterlimit="10" stroke-linecap="round" stroke-linejoin="round"/>
<path d="M100.08 661.428H134.96" stroke="black" stroke-width="1.92" stroke-miterlimit="10" stroke-linecap="round" stroke-linejoin="round"/>
<path d="M159.92 661.428H278.48" stroke="black" stroke-width="1.92" stroke-miterlimit="10" stroke-linecap="round" stroke-linejoin="round"/>
<path d="M96.5605 683.107H276.321" stroke="black" stroke-width="1.92" stroke-miterlimit="10" stroke-linecap="round" stroke-linejoin="round"/>
<path d="M938.48 673.827L938.56 673.107L939.04 672.467L939.6 672.067L940.32 671.907L941.12 672.067L941.68 672.467L942.08 673.107L942.24 673.827L942.08 674.547L941.68 675.107L941.12 675.587L940.32 675.667L939.6 675.587L939.04 675.107L938.56 674.547L938.48 673.827Z" stroke="black" stroke-width="1.92" stroke-miterlimit="10" stroke-linecap="round" stroke-linejoin="round"/>
<path d="M938.881 675.028L939.521 675.428L940.241 675.588L940.961 675.428L941.521 675.028L941.921 674.388L942.081 673.748L942.001 673.028L941.601 672.388" stroke="black" stroke-width="1.92" stroke-miterlimit="10" stroke-linecap="round" stroke-linejoin="round"/>
<path d="M1039.6 662.787V662.627L1039.92 662.547L1040.48 662.467H1041.12H1041.92L1042.56 662.547L1043.12 662.627L1043.44 662.787V662.867L1043.12 662.947L1042.64 663.027H1041.92H1041.2L1040.48 662.947L1039.92 662.867L1039.6 662.787Z" stroke="black" stroke-width="1.92" stroke-miterlimit="10" stroke-linecap="round" stroke-linejoin="round"/>
<path d="M936.961 662.787V662.627L937.281 662.547L937.841 662.467H938.561H939.281L940.001 662.547L940.481 662.627L940.721 662.787V662.867L940.401 662.947L939.841 663.027H939.121H938.401L937.681 662.947L937.201 662.867L936.961 662.787Z" stroke="black" stroke-width="1.92" stroke-miterlimit="10" stroke-linecap="round" stroke-linejoin="round"/>
<path d="M1063.84 654.228V654.148L1064.08 653.988H1064.56L1065.28 653.908L1066 653.988H1066.72L1067.2 654.148L1067.52 654.228V654.308L1067.28 654.388L1066.72 654.468L1066.08 654.548L1065.36 654.468L1064.64 654.388L1064.08 654.308L1063.84 654.228Z" stroke="black" stroke-width="1.92" stroke-miterlimit="10" stroke-linecap="round" stroke-linejoin="round"/>
<path d="M1071.44 659.667V659.587L1071.68 659.507L1072.24 659.427H1072.88H1073.68L1074.32 659.507L1074.88 659.587L1075.2 659.667V659.827L1074.96 659.907L1074.4 659.987H1073.76H1072.96L1072.24 659.907L1071.76 659.827L1071.44 659.667Z" stroke="black" stroke-width="1.92" stroke-miterlimit="10" stroke-linecap="round" stroke-linejoin="round"/>
<path d="M1056.4 648.868V648.788L1056.72 648.708L1057.2 648.628H1057.84H1058.64L1059.28 648.708L1059.84 648.788L1060.08 648.868V649.028L1059.84 649.108L1059.36 649.188H1058.64H1057.92L1057.28 649.108L1056.72 649.028L1056.4 648.868Z" stroke="black" stroke-width="1.92" stroke-miterlimit="10" stroke-linecap="round" stroke-linejoin="round"/>
<path d="M1087.84 664.387H1069.28L1068.88 664.547L1068.8 664.867" stroke="black" stroke-width="1.92" stroke-miterlimit="10" stroke-linecap="round" stroke-linejoin="round"/>
<path d="M1068.8 664.867V683.507L1068.88 683.827L1069.28 683.987H1069.92" stroke="black" stroke-width="1.92" stroke-miterlimit="10" stroke-linecap="round" stroke-linejoin="round"/>
<path d="M1088.32 665.747V664.867L1088.16 664.547L1087.84 664.387" stroke="black" stroke-width="1.92" stroke-miterlimit="10" stroke-linecap="round" stroke-linejoin="round"/>
<path d="M1071.2 684.947H1068.8L1068.32 684.787L1067.92 684.467L1067.84 683.987" stroke="black" stroke-width="1.92" stroke-miterlimit="10" stroke-linecap="round" stroke-linejoin="round"/>
<path d="M1089.28 666.467V664.387L1089.12 663.907L1088.8 663.587L1088.32 663.427H1068.8L1068.32 663.587L1067.92 663.907L1067.84 664.387V683.987" stroke="black" stroke-width="1.92" stroke-miterlimit="10" stroke-linecap="round" stroke-linejoin="round"/>
<path d="M1056.08 655.827V656.067" stroke="black" stroke-width="1.92" stroke-miterlimit="10" stroke-linecap="round" stroke-linejoin="round"/>
<path d="M1043.28 661.428V658.548" stroke="black" stroke-width="1.92" stroke-miterlimit="10" stroke-linecap="round" stroke-linejoin="round"/>
<path d="M1043.28 653.747V646.387" stroke="black" stroke-width="1.92" stroke-miterlimit="10" stroke-linecap="round" stroke-linejoin="round"/>
<path d="M1063.44 661.427L1063.52 661.507L1066.96 664.067L1067.12 664.387L1067.28 664.947V665.667V681.907V682.547L1067.2 682.947L1067.04 683.107" stroke="black" stroke-width="1.92" stroke-miterlimit="10" stroke-linecap="round" stroke-linejoin="round"/>
<path d="M1063.28 645.588L1062.72 645.428H1044.16L1043.68 645.588L1043.36 645.908L1043.28 646.388" stroke="black" stroke-width="1.92" stroke-miterlimit="10" stroke-linecap="round" stroke-linejoin="round"/>
<path d="M1052.24 651.987L1056.32 655.027" stroke="black" stroke-width="1.92" stroke-miterlimit="10" stroke-linecap="round" stroke-linejoin="round"/>
<path d="M1016.32 683.107V683.907L1020 683.107" stroke="black" stroke-width="1.92" stroke-miterlimit="10" stroke-linecap="round" stroke-linejoin="round"/>
<path d="M996.16 683.107V683.907H1016.32" stroke="black" stroke-width="1.92" stroke-miterlimit="10" stroke-linecap="round" stroke-linejoin="round"/>
<path d="M1056.08 656.068L1028.48 661.508" stroke="black" stroke-width="1.92" stroke-miterlimit="10" stroke-linecap="round" stroke-linejoin="round"/>
<path d="M1028.48 661.507L1016.32 663.907V662.947L1056.32 655.027" stroke="black" stroke-width="1.92" stroke-miterlimit="10" stroke-linecap="round" stroke-linejoin="round"/>
<path d="M1016.32 663.907H996.16" stroke="black" stroke-width="1.92" stroke-miterlimit="10" stroke-linecap="round" stroke-linejoin="round"/>
<path d="M996.16 663.907V662.947H1016.32" stroke="black" stroke-width="1.92" stroke-miterlimit="10" stroke-linecap="round" stroke-linejoin="round"/>
<path d="M996.16 662.947L1052.24 651.987" stroke="black" stroke-width="1.92" stroke-miterlimit="10" stroke-linecap="round" stroke-linejoin="round"/>
<path d="M885.041 678.627V679.187L885.121 679.507L887.281 682.067" stroke="black" stroke-width="1.92" stroke-miterlimit="10" stroke-linecap="round" stroke-linejoin="round"/>
<path d="M885.121 662.467L885.041 662.627V663.027V678.627" stroke="black" stroke-width="1.92" stroke-miterlimit="10" stroke-linecap="round" stroke-linejoin="round"/>
<path d="M887.361 665.827V665.267L887.281 664.947L885.121 662.467" stroke="black" stroke-width="1.92" stroke-miterlimit="10" stroke-linecap="round" stroke-linejoin="round"/>
<path d="M887.281 682.067L887.361 681.987V681.507V665.827" stroke="black" stroke-width="1.92" stroke-miterlimit="10" stroke-linecap="round" stroke-linejoin="round"/>
<path d="M884.881 678.707V662.707L884.961 661.987V661.587L885.121 661.507L887.281 664.067L887.361 664.387L887.441 664.947L887.521 665.667V681.907L887.441 682.547L887.361 683.027L887.281 683.107L885.121 680.387L884.961 680.067V679.507L884.881 678.707Z" stroke="black" stroke-width="1.92" stroke-miterlimit="10" stroke-linecap="round" stroke-linejoin="round"/>
<path d="M1066.08 683.107L1068.16 684.707" stroke="black" stroke-width="1.92" stroke-miterlimit="10" stroke-linecap="round" stroke-linejoin="round"/>
<path d="M1063.28 645.587L1088.88 663.667" stroke="black" stroke-width="1.92" stroke-miterlimit="10" stroke-linecap="round" stroke-linejoin="round"/>
<path d="M1067.04 683.107H887.361" stroke="black" stroke-width="1.92" stroke-miterlimit="10" stroke-linecap="round" stroke-linejoin="round"/>
<path d="M1063.44 661.428H1028.56" stroke="black" stroke-width="1.92" stroke-miterlimit="10" stroke-linecap="round" stroke-linejoin="round"/>
<path d="M1003.68 661.428H885.041" stroke="black" stroke-width="1.92" stroke-miterlimit="10" stroke-linecap="round" stroke-linejoin="round"/>
<path d="M790.082 578.308V577.748L789.922 577.508L789.682 577.428" stroke="black" stroke-width="1.92" stroke-miterlimit="10" stroke-linecap="round" stroke-linejoin="round"/>
<path d="M789.681 577.427H775.601L775.361 577.507L775.201 577.747" stroke="black" stroke-width="1.92" stroke-miterlimit="10" stroke-linecap="round" stroke-linejoin="round"/>
<path d="M775.201 577.748V591.908L775.361 592.148L775.601 592.228H776.241" stroke="black" stroke-width="1.92" stroke-miterlimit="10" stroke-linecap="round" stroke-linejoin="round"/>
<path d="M774.48 577.428L774.56 577.028L774.88 576.788L775.2 576.708" stroke="black" stroke-width="1.92" stroke-miterlimit="10" stroke-linecap="round" stroke-linejoin="round"/>
<path d="M754.001 547.267L753.681 547.347L753.441 547.587L753.361 547.907" stroke="black" stroke-width="1.92" stroke-miterlimit="10" stroke-linecap="round" stroke-linejoin="round"/>
<path d="M772.801 582.387V581.907L772.881 581.427V581.187H772.961V581.347L773.041 581.667V582.227V582.787V583.267V583.747L772.961 583.987L772.881 583.827V583.507L772.801 582.947V582.387Z" stroke="black" stroke-width="1.92" stroke-miterlimit="10" stroke-linecap="round" stroke-linejoin="round"/>
<path d="M754.48 556.227V555.747L754.56 555.347V555.107V555.027L754.64 555.187V555.507L754.72 555.987V556.467V556.947L754.64 557.347V557.587L754.56 557.667V557.507V557.187L754.48 556.707V556.227Z" stroke="black" stroke-width="1.92" stroke-miterlimit="10" stroke-linecap="round" stroke-linejoin="round"/>
<path d="M753.361 561.188V547.908" stroke="black" stroke-width="1.92" stroke-miterlimit="10" stroke-linecap="round" stroke-linejoin="round"/>
<path d="M774.48 577.428V592.228" stroke="black" stroke-width="1.92" stroke-miterlimit="10" stroke-linecap="round" stroke-linejoin="round"/>
<path d="M754 547.268H767.2L767.52 547.348L767.68 547.508" stroke="black" stroke-width="1.92" stroke-miterlimit="10" stroke-linecap="round" stroke-linejoin="round"/>
<path d="M753.361 561.188L753.441 561.508" stroke="black" stroke-width="1.92" stroke-miterlimit="10" stroke-linecap="round" stroke-linejoin="round"/>
<path d="M790.08 576.708L790.4 576.788L790.64 577.028L790.8 577.428V579.268" stroke="black" stroke-width="1.92" stroke-miterlimit="10" stroke-linecap="round" stroke-linejoin="round"/>
<path d="M775.2 592.947L774.88 592.867L774.56 592.627L774.48 592.227" stroke="black" stroke-width="1.92" stroke-miterlimit="10" stroke-linecap="round" stroke-linejoin="round"/>
<path d="M790.081 576.707H775.201" stroke="black" stroke-width="1.92" stroke-miterlimit="10" stroke-linecap="round" stroke-linejoin="round"/>
<path d="M775.201 592.947H776.721" stroke="black" stroke-width="1.92" stroke-miterlimit="10" stroke-linecap="round" stroke-linejoin="round"/>
<path d="M767.682 547.507L790.642 576.947" stroke="black" stroke-width="1.92" stroke-miterlimit="10" stroke-linecap="round" stroke-linejoin="round"/>
<path d="M753.441 561.507L774.641 592.627" stroke="black" stroke-width="1.92" stroke-miterlimit="10" stroke-linecap="round" stroke-linejoin="round"/>
<path d="M366.961 577.427L366.721 577.507L366.641 577.747V578.787" stroke="black" stroke-width="1.92" stroke-miterlimit="10" stroke-linecap="round" stroke-linejoin="round"/>
<path d="M381.441 577.747L381.361 577.507L381.121 577.427H366.961" stroke="black" stroke-width="1.92" stroke-miterlimit="10" stroke-linecap="round" stroke-linejoin="round"/>
<path d="M380.801 592.228H381.121L381.361 592.148L381.441 591.908V577.748" stroke="black" stroke-width="1.92" stroke-miterlimit="10" stroke-linecap="round" stroke-linejoin="round"/>
<path d="M403.361 547.907L403.281 547.587L403.041 547.347L402.721 547.267" stroke="black" stroke-width="1.92" stroke-miterlimit="10" stroke-linecap="round" stroke-linejoin="round"/>
<path d="M381.441 576.708L381.841 576.788L382.081 577.028L382.161 577.428" stroke="black" stroke-width="1.92" stroke-miterlimit="10" stroke-linecap="round" stroke-linejoin="round"/>
<path d="M402 556.467V555.987L402.08 555.507V555.187V555.027L402.16 555.107V555.347L402.24 555.747V556.227V556.707L402.16 557.187V557.507L402.08 557.667V557.587V557.347L402 556.947V556.467Z" stroke="black" stroke-width="1.92" stroke-miterlimit="10" stroke-linecap="round" stroke-linejoin="round"/>
<path d="M383.602 582.787V582.227L383.682 581.667V581.347L383.762 581.187L383.842 581.427V581.907V582.387V582.947V583.507L383.762 583.827V583.987H383.682V583.747L383.602 583.267V582.787Z" stroke="black" stroke-width="1.92" stroke-miterlimit="10" stroke-linecap="round" stroke-linejoin="round"/>
<path d="M382.16 592.228V577.428" stroke="black" stroke-width="1.92" stroke-miterlimit="10" stroke-linecap="round" stroke-linejoin="round"/>
<path d="M403.361 547.908V561.188" stroke="black" stroke-width="1.92" stroke-miterlimit="10" stroke-linecap="round" stroke-linejoin="round"/>
<path d="M381.44 576.707H366.64L366.24 576.787L366 577.027L365.92 577.427V579.667" stroke="black" stroke-width="1.92" stroke-miterlimit="10" stroke-linecap="round" stroke-linejoin="round"/>
<path d="M380.32 592.947H381.44L381.84 592.867L382.08 592.627L382.16 592.227" stroke="black" stroke-width="1.92" stroke-miterlimit="10" stroke-linecap="round" stroke-linejoin="round"/>
<path d="M389.521 547.268L389.201 547.348L389.041 547.508" stroke="black" stroke-width="1.92" stroke-miterlimit="10" stroke-linecap="round" stroke-linejoin="round"/>
<path d="M403.281 561.508L403.361 561.188" stroke="black" stroke-width="1.92" stroke-miterlimit="10" stroke-linecap="round" stroke-linejoin="round"/>
<path d="M389.521 547.268H402.721" stroke="black" stroke-width="1.92" stroke-miterlimit="10" stroke-linecap="round" stroke-linejoin="round"/>
<path d="M366.08 576.947L389.04 547.507" stroke="black" stroke-width="1.92" stroke-miterlimit="10" stroke-linecap="round" stroke-linejoin="round"/>
<path d="M382.08 592.627L403.28 561.507" stroke="black" stroke-width="1.92" stroke-miterlimit="10" stroke-linecap="round" stroke-linejoin="round"/>
<path d="M828.4 649.987L828.08 650.067L827.92 650.387V659.987" stroke="black" stroke-width="1.92" stroke-miterlimit="10" stroke-linecap="round" stroke-linejoin="round"/>
<path d="M846.72 651.667V650.387L846.56 650.067L846.24 649.987H828.4" stroke="black" stroke-width="1.92" stroke-miterlimit="10" stroke-linecap="round" stroke-linejoin="round"/>
<path d="M811.681 603.588L811.441 603.348L811.121 603.268" stroke="black" stroke-width="1.92" stroke-miterlimit="10" stroke-linecap="round" stroke-linejoin="round"/>
<path d="M827.041 659.987V649.987L827.201 649.507L827.521 649.187L827.921 649.027H846.721L847.201 649.187L847.521 649.507L847.601 649.987V652.867" stroke="black" stroke-width="1.92" stroke-miterlimit="10" stroke-linecap="round" stroke-linejoin="round"/>
<path d="M794.8 603.267L794.4 603.347L794.16 603.667L794 604.067" stroke="black" stroke-width="1.92" stroke-miterlimit="10" stroke-linecap="round" stroke-linejoin="round"/>
<path d="M795.762 614.708V614.148L795.842 613.668L795.922 613.348L796.002 613.508L796.082 613.988V614.548V615.188V615.748V616.228L796.002 616.468L795.922 616.548V616.308L795.842 615.908L795.762 615.348V614.708Z" stroke="black" stroke-width="1.92" stroke-miterlimit="10" stroke-linecap="round" stroke-linejoin="round"/>
<path d="M824.32 655.508L824.4 654.788V654.308L824.48 653.988H824.56L824.64 654.228L824.72 654.708V655.348V656.068V656.708V657.268L824.64 657.588H824.56L824.48 657.348L824.4 656.868V656.228L824.32 655.508Z" stroke="black" stroke-width="1.92" stroke-miterlimit="10" stroke-linecap="round" stroke-linejoin="round"/>
<path d="M794.16 620.787L794 620.307V604.067" stroke="black" stroke-width="1.92" stroke-miterlimit="10" stroke-linecap="round" stroke-linejoin="round"/>
<path d="M794.801 603.268H811.121" stroke="black" stroke-width="1.92" stroke-miterlimit="10" stroke-linecap="round" stroke-linejoin="round"/>
<path d="M847.442 649.428L811.682 603.588" stroke="black" stroke-width="1.92" stroke-miterlimit="10" stroke-linecap="round" stroke-linejoin="round"/>
<path d="M820.88 659.987L794.16 620.787" stroke="black" stroke-width="1.92" stroke-miterlimit="10" stroke-linecap="round" stroke-linejoin="round"/>
<path d="M310.8 649.987L310.48 650.067L310.32 650.387V651.667" stroke="black" stroke-width="1.92" stroke-miterlimit="10" stroke-linecap="round" stroke-linejoin="round"/>
<path d="M329.121 659.987V650.387L328.961 650.067L328.641 649.987H310.801" stroke="black" stroke-width="1.92" stroke-miterlimit="10" stroke-linecap="round" stroke-linejoin="round"/>
<path d="M363.04 604.067L362.88 603.667L362.64 603.347L362.24 603.267" stroke="black" stroke-width="1.92" stroke-miterlimit="10" stroke-linecap="round" stroke-linejoin="round"/>
<path d="M329.121 649.027L329.521 649.187L329.841 649.507L330.001 649.987" stroke="black" stroke-width="1.92" stroke-miterlimit="10" stroke-linecap="round" stroke-linejoin="round"/>
<path d="M360.961 615.188V614.548V613.988L361.041 613.508L361.121 613.348L361.201 613.668L361.281 614.148V614.708V615.348L361.201 615.908L361.121 616.308V616.548L361.041 616.468L360.961 616.228V615.748V615.188Z" stroke="black" stroke-width="1.92" stroke-miterlimit="10" stroke-linecap="round" stroke-linejoin="round"/>
<path d="M332.32 656.068V655.348V654.708L332.4 654.228L332.48 653.988H332.56L332.64 654.308V654.788L332.72 655.508L332.64 656.228V656.868L332.56 657.348L332.48 657.588H332.4L332.32 657.268V656.708V656.068Z" stroke="black" stroke-width="1.92" stroke-miterlimit="10" stroke-linecap="round" stroke-linejoin="round"/>
<path d="M330 659.987V649.987" stroke="black" stroke-width="1.92" stroke-miterlimit="10" stroke-linecap="round" stroke-linejoin="round"/>
<path d="M363.041 604.068V620.308" stroke="black" stroke-width="1.92" stroke-miterlimit="10" stroke-linecap="round" stroke-linejoin="round"/>
<path d="M329.121 649.027H310.321L309.841 649.187L309.521 649.507L309.441 649.987V652.867" stroke="black" stroke-width="1.92" stroke-miterlimit="10" stroke-linecap="round" stroke-linejoin="round"/>
<path d="M345.921 603.268L345.601 603.348L345.361 603.588" stroke="black" stroke-width="1.92" stroke-miterlimit="10" stroke-linecap="round" stroke-linejoin="round"/>
<path d="M362.881 620.787L363.041 620.307" stroke="black" stroke-width="1.92" stroke-miterlimit="10" stroke-linecap="round" stroke-linejoin="round"/>
<path d="M345.92 603.268H362.24" stroke="black" stroke-width="1.92" stroke-miterlimit="10" stroke-linecap="round" stroke-linejoin="round"/>
<path d="M309.602 649.428L345.362 603.588" stroke="black" stroke-width="1.92" stroke-miterlimit="10" stroke-linecap="round" stroke-linejoin="round"/>
<path d="M336.16 659.987L362.88 620.787" stroke="black" stroke-width="1.92" stroke-miterlimit="10" stroke-linecap="round" stroke-linejoin="round"/>
<path d="M337.84 381.588H338.16H338.32L339.44 381.268H339.36L339.04 381.188" stroke="black" stroke-width="1.92" stroke-miterlimit="10" stroke-linecap="round" stroke-linejoin="round"/>
<path d="M331.361 603.988L331.441 604.468L331.681 604.868L332.161 605.188L332.641 605.268L333.121 605.188L333.521 604.868" stroke="black" stroke-width="1.92" stroke-miterlimit="10" stroke-linecap="round" stroke-linejoin="round"/>
<path d="M332.161 396.228L331.761 396.468L331.441 396.868L331.361 397.348L331.441 397.828L331.681 398.228L332.081 398.548L332.561 398.628L333.041 398.548" stroke="black" stroke-width="1.92" stroke-miterlimit="10" stroke-linecap="round" stroke-linejoin="round"/>
<path d="M337.841 381.588H327.361H327.041H326.961L328.161 381.268H328.321L328.641 381.188H339.041" stroke="black" stroke-width="1.92" stroke-miterlimit="10" stroke-linecap="round" stroke-linejoin="round"/>
<path d="M333.521 603.747L333.121 603.507L332.801 603.267" stroke="black" stroke-width="1.92" stroke-miterlimit="10" stroke-linecap="round" stroke-linejoin="round"/>
<path d="M333.601 398.147L333.121 397.907L332.801 397.587L332.561 397.107L332.641 396.627L332.801 396.147" stroke="black" stroke-width="1.92" stroke-miterlimit="10" stroke-linecap="round" stroke-linejoin="round"/>
<path d="M339.2 381.187H339.68H340L340.08 381.267L338.96 381.587H338.8L338.4 381.667H337.92" stroke="black" stroke-width="1.92" stroke-miterlimit="10" stroke-linecap="round" stroke-linejoin="round"/>
<path d="M333.041 603.348L333.361 603.588" stroke="black" stroke-width="1.92" stroke-miterlimit="10" stroke-linecap="round" stroke-linejoin="round"/>
<path d="M332.881 396.227L332.641 396.627V397.107L332.801 397.587L333.121 397.907L333.601 398.147" stroke="black" stroke-width="1.92" stroke-miterlimit="10" stroke-linecap="round" stroke-linejoin="round"/>
<path d="M339.2 381.187H328.56H328.08H327.68L327.52 381.267L326.32 381.587H326.4L326.72 381.667H327.2" stroke="black" stroke-width="1.92" stroke-miterlimit="10" stroke-linecap="round" stroke-linejoin="round"/>
<path d="M331.281 397.427L331.361 396.947L331.681 396.547L332.081 396.227L332.561 396.147L333.041 396.227L333.441 396.547L333.681 396.947L333.761 397.427L333.681 397.907L333.441 398.307L333.041 398.547L332.561 398.707L332.081 398.547L331.681 398.307L331.361 397.907L331.281 397.427Z" stroke="black" stroke-width="1.92" stroke-miterlimit="10" stroke-linecap="round" stroke-linejoin="round"/>
<path d="M333.761 604.548L333.521 604.948L333.121 605.268L332.641 605.348L332.161 605.268L331.761 605.108L331.441 604.708L331.281 604.228" stroke="black" stroke-width="1.92" stroke-miterlimit="10" stroke-linecap="round" stroke-linejoin="round"/>
<path d="M327.201 381.667H337.921" stroke="black" stroke-width="1.92" stroke-miterlimit="10" stroke-linecap="round" stroke-linejoin="round"/>
<path d="M340.08 540.228V381.268" stroke="black" stroke-width="1.92" stroke-miterlimit="10" stroke-linecap="round" stroke-linejoin="round"/>
<path d="M326.32 541.268V381.588" stroke="black" stroke-width="1.92" stroke-miterlimit="10" stroke-linecap="round" stroke-linejoin="round"/>
<path d="M829.68 381.667H830L830.16 381.587L828.96 381.267H828.8H828.48" stroke="black" stroke-width="1.92" stroke-miterlimit="10" stroke-linecap="round" stroke-linejoin="round"/>
<path d="M823.602 604.948L824.002 605.268L824.482 605.348L824.962 605.268L825.442 604.948L825.682 604.548L825.762 604.068" stroke="black" stroke-width="1.92" stroke-miterlimit="10" stroke-linecap="round" stroke-linejoin="round"/>
<path d="M824.08 398.627L824.56 398.707L825.04 398.547L825.44 398.307L825.68 397.827L825.76 397.347L825.68 396.867L825.36 396.467L824.96 396.227" stroke="black" stroke-width="1.92" stroke-miterlimit="10" stroke-linecap="round" stroke-linejoin="round"/>
<path d="M829.682 381.667H819.282H818.962L818.802 381.587L817.682 381.267H817.762H818.082H828.482" stroke="black" stroke-width="1.92" stroke-miterlimit="10" stroke-linecap="round" stroke-linejoin="round"/>
<path d="M824.322 603.347L824.002 603.587L823.602 603.827" stroke="black" stroke-width="1.92" stroke-miterlimit="10" stroke-linecap="round" stroke-linejoin="round"/>
<path d="M824.321 396.227L824.481 396.627V397.187L824.321 397.587L824.001 397.987L823.521 398.147" stroke="black" stroke-width="1.92" stroke-miterlimit="10" stroke-linecap="round" stroke-linejoin="round"/>
<path d="M828.561 381.187L829.041 381.267H829.441H829.601L830.801 381.587L830.721 381.667H830.401H829.921" stroke="black" stroke-width="1.92" stroke-miterlimit="10" stroke-linecap="round" stroke-linejoin="round"/>
<path d="M823.762 603.667L824.082 603.427" stroke="black" stroke-width="1.92" stroke-miterlimit="10" stroke-linecap="round" stroke-linejoin="round"/>
<path d="M823.521 398.147L823.921 397.907L824.241 397.587L824.481 397.107L824.401 396.627L824.241 396.227" stroke="black" stroke-width="1.92" stroke-miterlimit="10" stroke-linecap="round" stroke-linejoin="round"/>
<path d="M828.561 381.187H817.841L817.441 381.267H817.121H817.041L818.161 381.587L818.321 381.667H818.721H819.201" stroke="black" stroke-width="1.92" stroke-miterlimit="10" stroke-linecap="round" stroke-linejoin="round"/>
<path d="M823.281 397.427L823.441 396.947L823.681 396.547L824.081 396.307L824.561 396.147L825.041 396.307L825.441 396.547L825.761 396.947L825.841 397.427L825.761 397.907L825.441 398.307L825.041 398.627L824.561 398.707L824.081 398.627L823.681 398.307L823.441 397.907L823.281 397.427Z" stroke="black" stroke-width="1.92" stroke-miterlimit="10" stroke-linecap="round" stroke-linejoin="round"/>
<path d="M825.841 604.308L825.681 604.788L825.361 605.188L824.961 605.428H824.481L824.001 605.348L823.601 605.028L823.361 604.628" stroke="black" stroke-width="1.92" stroke-miterlimit="10" stroke-linecap="round" stroke-linejoin="round"/>
<path d="M819.201 381.667H829.921" stroke="black" stroke-width="1.92" stroke-miterlimit="10" stroke-linecap="round" stroke-linejoin="round"/>
<path d="M830.801 541.348V381.588" stroke="black" stroke-width="1.92" stroke-miterlimit="10" stroke-linecap="round" stroke-linejoin="round"/>
<path d="M817.041 540.228V381.268" stroke="black" stroke-width="1.92" stroke-miterlimit="10" stroke-linecap="round" stroke-linejoin="round"/>
<path d="M474 548.708L473.92 549.188L474 549.668L474.32 550.068L474.72 550.308L475.12 550.388L475.6 550.308L476 550.068L476.32 549.668" stroke="black" stroke-width="1.92" stroke-miterlimit="10" stroke-linecap="round" stroke-linejoin="round"/>
<path d="M680.721 549.668L681.041 550.068L681.441 550.308L681.921 550.388L682.321 550.308L682.721 550.068L683.041 549.668L683.121 549.188L683.041 548.708" stroke="black" stroke-width="1.92" stroke-miterlimit="10" stroke-linecap="round" stroke-linejoin="round"/>
<path d="M476.32 549.027L475.92 549.107H475.44L475.04 548.947L474.64 548.627L474.48 548.227" stroke="black" stroke-width="1.92" stroke-miterlimit="10" stroke-linecap="round" stroke-linejoin="round"/>
<path d="M682.561 548.227L682.401 548.627L682.001 548.947L681.601 549.107H681.121L680.721 549.027" stroke="black" stroke-width="1.92" stroke-miterlimit="10" stroke-linecap="round" stroke-linejoin="round"/>
<path d="M474.48 548.147L474.72 548.547L475.04 548.867L475.44 549.027L475.92 549.107L476.32 548.947" stroke="black" stroke-width="1.92" stroke-miterlimit="10" stroke-linecap="round" stroke-linejoin="round"/>
<path d="M680.721 548.947L681.121 549.107L681.601 549.027L682.001 548.867L682.321 548.547L682.561 548.147" stroke="black" stroke-width="1.92" stroke-miterlimit="10" stroke-linecap="round" stroke-linejoin="round"/>
<path d="M683.041 548.788L683.121 549.268L683.041 549.668L682.801 550.068L682.401 550.388L681.921 550.468L681.441 550.388L681.041 550.148L680.721 549.748" stroke="black" stroke-width="1.92" stroke-miterlimit="10" stroke-linecap="round" stroke-linejoin="round"/>
<path d="M476.32 549.748L476 550.148L475.6 550.388L475.12 550.468L474.64 550.388L474.24 550.068L474 549.668L473.92 549.268L474 548.788" stroke="black" stroke-width="1.92" stroke-miterlimit="10" stroke-linecap="round" stroke-linejoin="round"/>
<path d="M526.4 555.428H630.64" stroke="black" stroke-width="1.92" stroke-miterlimit="10" stroke-linecap="round" stroke-linejoin="round"/>
<path d="M526.641 541.667H630.401" stroke="black" stroke-width="1.92" stroke-miterlimit="10" stroke-linecap="round" stroke-linejoin="round"/>
<path d="M1093.44 700.548H1109.92L1110.48 700.308L1110.64 699.748V683.348L1110.48 682.788L1109.92 682.548H1093.44L1092.96 682.788L1092.72 683.348V699.748L1092.96 700.308L1093.44 700.548Z" stroke="black" stroke-width="1.92" stroke-miterlimit="10" stroke-linecap="round" stroke-linejoin="round"/>
<path d="M1094 696.228V696.068L1094.24 695.988L1094.8 695.908L1095.52 695.828L1096.32 695.908L1097.04 695.988L1097.6 696.068L1097.92 696.228L1098 696.308L1097.68 696.468L1097.12 696.548H1096.4H1095.6L1094.88 696.468L1094.32 696.308L1094 696.228Z" stroke="black" stroke-width="1.92" stroke-miterlimit="10" stroke-linecap="round" stroke-linejoin="round"/>
<path d="M1091.68 683.107L1091.92 682.307L1092.48 681.747L1093.2 681.587" stroke="black" stroke-width="1.92" stroke-miterlimit="10" stroke-linecap="round" stroke-linejoin="round"/>
<path d="M1019.6 627.588L1018.96 627.748L1018.48 628.228L1018.24 628.868V643.428" stroke="black" stroke-width="1.92" stroke-miterlimit="10" stroke-linecap="round" stroke-linejoin="round"/>
<path d="M1091.68 683.107V700.067" stroke="black" stroke-width="1.92" stroke-miterlimit="10" stroke-linecap="round" stroke-linejoin="round"/>
<path d="M1019.6 627.587H1034.08L1034.8 627.827" stroke="black" stroke-width="1.92" stroke-miterlimit="10" stroke-linecap="round" stroke-linejoin="round"/>
<path d="M1018.24 643.428L1018.4 643.988L1018.8 644.468" stroke="black" stroke-width="1.92" stroke-miterlimit="10" stroke-linecap="round" stroke-linejoin="round"/>
<path d="M1110.16 681.588L1110.96 681.748L1111.44 682.308L1111.68 683.108V700.068L1111.44 700.788L1110.96 701.348L1110.16 701.508H1093.2L1092.48 701.348L1091.92 700.788L1091.68 700.068" stroke="black" stroke-width="1.92" stroke-miterlimit="10" stroke-linecap="round" stroke-linejoin="round"/>
<path d="M1094 677.427V677.347L1094.24 677.187H1094.8L1095.52 677.107L1096.32 677.187H1097.04L1097.6 677.347L1097.92 677.427L1098 677.587L1097.68 677.667L1097.12 677.747H1096.4H1095.6L1094.88 677.667L1094.32 677.587L1094 677.427Z" stroke="black" stroke-width="1.92" stroke-miterlimit="10" stroke-linecap="round" stroke-linejoin="round"/>
<path d="M1029.36 630.707V630.627L1029.68 630.547L1030.16 630.467H1030.8H1031.44L1032.08 630.547L1032.56 630.627L1032.88 630.707V630.787L1032.56 630.867L1032.08 630.947H1031.44H1030.8L1030.16 630.867L1029.68 630.787L1029.36 630.707Z" stroke="black" stroke-width="1.92" stroke-miterlimit="10" stroke-linecap="round" stroke-linejoin="round"/>
<path d="M1110.16 681.588H1093.2" stroke="black" stroke-width="1.92" stroke-miterlimit="10" stroke-linecap="round" stroke-linejoin="round"/>
<path d="M1018.8 644.467L1033.36 655.667" stroke="black" stroke-width="1.92" stroke-miterlimit="10" stroke-linecap="round" stroke-linejoin="round"/>
<path d="M1038.32 659.508L1040.8 661.428" stroke="black" stroke-width="1.92" stroke-miterlimit="10" stroke-linecap="round" stroke-linejoin="round"/>
<path d="M1068.8 683.028L1092.32 701.188" stroke="black" stroke-width="1.92" stroke-miterlimit="10" stroke-linecap="round" stroke-linejoin="round"/>
<path d="M1034.8 627.828L1059.68 645.428" stroke="black" stroke-width="1.92" stroke-miterlimit="10" stroke-linecap="round" stroke-linejoin="round"/>
<path d="M1086.4 664.387L1111.04 681.827" stroke="black" stroke-width="1.92" stroke-miterlimit="10" stroke-linecap="round" stroke-linejoin="round"/>
<path d="M54.0012 700.548H70.4812L71.0412 700.308L71.2012 699.748V683.348L71.0412 682.788L70.4812 682.548H54.0012L53.5212 682.788L53.2812 683.348V699.748L53.5212 700.308L54.0012 700.548Z" stroke="black" stroke-width="1.92" stroke-miterlimit="10" stroke-linecap="round" stroke-linejoin="round"/>
<path d="M65.9199 696.228L66.2399 696.068L66.7999 695.988L67.5199 695.908L68.3199 695.828L69.0399 695.908L69.5999 695.988L69.9199 696.068L69.8399 696.228L69.5199 696.308L68.9599 696.468L68.2399 696.548H67.4399H66.7199L66.1599 696.468L65.9199 696.308V696.228Z" stroke="black" stroke-width="1.92" stroke-miterlimit="10" stroke-linecap="round" stroke-linejoin="round"/>
<path d="M52.2402 683.107L52.4802 682.307L53.0402 681.747L53.7602 681.587" stroke="black" stroke-width="1.92" stroke-miterlimit="10" stroke-linecap="round" stroke-linejoin="round"/>
<path d="M128.88 627.587L128.08 627.827" stroke="black" stroke-width="1.92" stroke-miterlimit="10" stroke-linecap="round" stroke-linejoin="round"/>
<path d="M52.2402 683.107V700.067" stroke="black" stroke-width="1.92" stroke-miterlimit="10" stroke-linecap="round" stroke-linejoin="round"/>
<path d="M128.881 627.588H143.361L144.001 627.748L144.481 628.228L144.641 628.868V643.428L144.561 643.988L144.161 644.468" stroke="black" stroke-width="1.92" stroke-miterlimit="10" stroke-linecap="round" stroke-linejoin="round"/>
<path d="M70.7202 681.588L71.4402 681.748L72.0002 682.308L72.2402 683.108V700.068L72.0002 700.788L71.4402 701.348L70.7202 701.508H53.7602L53.0402 701.348L52.4802 700.788L52.2402 700.068" stroke="black" stroke-width="1.92" stroke-miterlimit="10" stroke-linecap="round" stroke-linejoin="round"/>
<path d="M65.9199 677.427L66.2399 677.347L66.7999 677.187H67.5199L68.3199 677.107L69.0399 677.187H69.5999L69.9199 677.347L69.8399 677.427L69.5199 677.587L68.9599 677.667L68.2399 677.747H67.4399H66.7199L66.1599 677.667L65.9199 677.587V677.427Z" stroke="black" stroke-width="1.92" stroke-miterlimit="10" stroke-linecap="round" stroke-linejoin="round"/>
<path d="M130.16 630.707L130.4 630.627L130.88 630.547L131.52 630.467H132.24H132.88L133.36 630.547L133.6 630.627V630.707L133.36 630.787L132.88 630.867L132.24 630.947H131.52H130.88L130.4 630.867L130.16 630.787V630.707Z" stroke="black" stroke-width="1.92" stroke-miterlimit="10" stroke-linecap="round" stroke-linejoin="round"/>
<path d="M70.7217 681.588H53.7617" stroke="black" stroke-width="1.92" stroke-miterlimit="10" stroke-linecap="round" stroke-linejoin="round"/>
<path d="M128.082 627.828L103.602 645.428" stroke="black" stroke-width="1.92" stroke-miterlimit="10" stroke-linecap="round" stroke-linejoin="round"/>
<path d="M77.2009 664.387L52.8809 681.827" stroke="black" stroke-width="1.92" stroke-miterlimit="10" stroke-linecap="round" stroke-linejoin="round"/>
<path d="M144.16 644.467L129.84 655.667" stroke="black" stroke-width="1.92" stroke-miterlimit="10" stroke-linecap="round" stroke-linejoin="round"/>
<path d="M124.96 659.508L122.4 661.428" stroke="black" stroke-width="1.92" stroke-miterlimit="10" stroke-linecap="round" stroke-linejoin="round"/>
<path d="M94.8816 683.028L71.6816 701.188" stroke="black" stroke-width="1.92" stroke-miterlimit="10" stroke-linecap="round" stroke-linejoin="round"/>
<path d="M734.721 672.067L734.001 672.627L733.121 672.707" stroke="black" stroke-width="1.92" stroke-miterlimit="10" stroke-linecap="round" stroke-linejoin="round"/>
<path d="M423.92 672.707L423.04 672.627L422.32 672.067" stroke="black" stroke-width="1.92" stroke-miterlimit="10" stroke-linecap="round" stroke-linejoin="round"/>
<path d="M732.801 674.548L733.201 675.108L733.841 675.428L734.481 675.588L735.201 675.428L735.761 675.028L736.161 674.468L736.321 673.748L736.241 673.028" stroke="black" stroke-width="1.92" stroke-miterlimit="10" stroke-linecap="round" stroke-linejoin="round"/>
<path d="M420.801 673.028L420.721 673.748L420.881 674.468L421.281 675.028L421.841 675.428L422.561 675.588L423.201 675.428L423.841 675.108L424.241 674.548" stroke="black" stroke-width="1.92" stroke-miterlimit="10" stroke-linecap="round" stroke-linejoin="round"/>
<path d="M736.321 673.107L736.401 673.827L736.241 674.547L735.841 675.187L735.281 675.587L734.561 675.667L733.841 675.587L733.201 675.187L732.801 674.627" stroke="black" stroke-width="1.92" stroke-miterlimit="10" stroke-linecap="round" stroke-linejoin="round"/>
<path d="M424.241 674.627L423.841 675.187L423.201 675.587L422.481 675.667L421.761 675.587L421.201 675.187L420.801 674.547L420.641 673.827L420.721 673.107" stroke="black" stroke-width="1.92" stroke-miterlimit="10" stroke-linecap="round" stroke-linejoin="round"/>
<path d="M422.48 672.067L423.12 672.467L423.76 672.627" stroke="black" stroke-width="1.92" stroke-miterlimit="10" stroke-linecap="round" stroke-linejoin="round"/>
<path d="M733.281 672.627L733.921 672.467L734.561 672.067" stroke="black" stroke-width="1.92" stroke-miterlimit="10" stroke-linecap="round" stroke-linejoin="round"/>
<path d="M657.12 683.107H499.92" stroke="black" stroke-width="1.92" stroke-miterlimit="10" stroke-linecap="round" stroke-linejoin="round"/>
<path d="M656.56 661.428H500.48" stroke="black" stroke-width="1.92" stroke-miterlimit="10" stroke-linecap="round" stroke-linejoin="round"/>
<path d="M381.441 591.267L363.041 618.147" stroke="black" stroke-width="1.92" stroke-miterlimit="10" stroke-linecap="round" stroke-linejoin="round"/>
<path d="M367.682 577.428L347.682 603.268" stroke="black" stroke-width="1.92" stroke-miterlimit="10" stroke-linecap="round" stroke-linejoin="round"/>
<path d="M775.201 590.787L794.001 618.147" stroke="black" stroke-width="1.92" stroke-miterlimit="10" stroke-linecap="round" stroke-linejoin="round"/>
<path d="M789.361 577.428L809.361 603.268" stroke="black" stroke-width="1.92" stroke-miterlimit="10" stroke-linecap="round" stroke-linejoin="round"/>
<path d="M731.682 541.428H731.762L732.002 541.348H732.322H732.802H733.282H733.762L734.082 541.428H734.162L734.082 541.508H733.842L733.442 541.588H733.042H732.482L732.082 541.508H731.762L731.682 541.428Z" stroke="black" stroke-width="1.92" stroke-miterlimit="10" stroke-linecap="round" stroke-linejoin="round"/>
<path d="M732.16 549.268L732.24 548.788L732.48 548.388L732.96 548.148L733.44 548.068L733.92 548.148L734.32 548.388L734.56 548.788L734.64 549.268L734.56 549.748L734.32 550.228L733.92 550.468L733.44 550.548L732.96 550.468L732.48 550.228L732.24 549.748L732.16 549.268Z" stroke="black" stroke-width="1.92" stroke-miterlimit="10" stroke-linecap="round" stroke-linejoin="round"/>
<path d="M732.32 549.908L732.64 550.308L733.12 550.468H733.6L734 550.308L734.4 549.988L734.56 549.508L734.64 549.028L734.48 548.628" stroke="black" stroke-width="1.92" stroke-miterlimit="10" stroke-linecap="round" stroke-linejoin="round"/>
<path d="M733.12 548.867L733.52 548.547L733.68 548.067L733.44 548.467L733.12 548.867ZM733.12 548.867L732.64 549.107L732.16 549.027H732.64L733.12 548.867Z" stroke="black" stroke-width="1.92" stroke-miterlimit="10" stroke-linecap="round" stroke-linejoin="round"/>
<path d="M680.641 549.268L680.801 548.788L681.041 548.388L681.441 548.148L681.921 548.068L682.401 548.148L682.801 548.388L683.121 548.788L683.201 549.268L683.121 549.748L682.801 550.228L682.401 550.468L681.921 550.548L681.441 550.468L681.041 550.228L680.801 549.748L680.641 549.268Z" stroke="black" stroke-width="1.92" stroke-miterlimit="10" stroke-linecap="round" stroke-linejoin="round"/>
<path d="M680.721 549.748L681.041 550.148L681.441 550.388L681.921 550.468L682.401 550.388L682.801 550.148L683.041 549.748L683.201 549.268L683.041 548.788" stroke="black" stroke-width="1.92" stroke-miterlimit="10" stroke-linecap="round" stroke-linejoin="round"/>
<path d="M682.561 548.147L682.321 548.547L682.001 548.867L681.601 549.027L681.121 549.107L680.721 548.947" stroke="black" stroke-width="1.92" stroke-miterlimit="10" stroke-linecap="round" stroke-linejoin="round"/>
<path d="M680.721 548.867L681.281 549.027L681.761 548.947L682.241 548.627L682.481 548.147" stroke="black" stroke-width="1.92" stroke-miterlimit="10" stroke-linecap="round" stroke-linejoin="round"/>
<path d="M630.32 541.427V541.507V541.667" stroke="black" stroke-width="1.92" stroke-miterlimit="10" stroke-linecap="round" stroke-linejoin="round"/>
<path d="M630.64 543.107V542.867L630.56 542.707L630.32 541.427" stroke="black" stroke-width="1.92" stroke-miterlimit="10" stroke-linecap="round" stroke-linejoin="round"/>
<path d="M630.561 555.427V555.667L630.641 555.587V555.427V543.107" stroke="black" stroke-width="1.92" stroke-miterlimit="10" stroke-linecap="round" stroke-linejoin="round"/>
<path d="M630.4 555.428L630.64 556.308" stroke="black" stroke-width="1.92" stroke-miterlimit="10" stroke-linecap="round" stroke-linejoin="round"/>
<path d="M764.802 545.667V542.867V542.467V542.227V542.147L763.682 540.787" stroke="black" stroke-width="1.92" stroke-miterlimit="10" stroke-linecap="round" stroke-linejoin="round"/>
<path d="M630.641 555.748V556.068V556.308" stroke="black" stroke-width="1.92" stroke-miterlimit="10" stroke-linecap="round" stroke-linejoin="round"/>
<path d="M751.602 542.948H762.322L762.722 543.108L763.042 543.348" stroke="black" stroke-width="1.92" stroke-miterlimit="10" stroke-linecap="round" stroke-linejoin="round"/>
<path d="M750.801 555.188L750.641 554.708V543.908L750.721 543.428L751.121 543.108L751.601 542.948" stroke="black" stroke-width="1.92" stroke-miterlimit="10" stroke-linecap="round" stroke-linejoin="round"/>
<path d="M630.64 555.747V542.867V542.467V542.227V542.147L630.32 540.787V541.027V541.347V541.667" stroke="black" stroke-width="1.92" stroke-miterlimit="10" stroke-linecap="round" stroke-linejoin="round"/>
<path d="M630.641 556.308H751.521" stroke="black" stroke-width="1.92" stroke-miterlimit="10" stroke-linecap="round" stroke-linejoin="round"/>
<path d="M630.32 540.787H763.68" stroke="black" stroke-width="1.92" stroke-miterlimit="10" stroke-linecap="round" stroke-linejoin="round"/>
<path d="M750.801 555.187L753.361 558.947" stroke="black" stroke-width="1.92" stroke-miterlimit="10" stroke-linecap="round" stroke-linejoin="round"/>
<path d="M763.041 543.348L766.081 547.268" stroke="black" stroke-width="1.92" stroke-miterlimit="10" stroke-linecap="round" stroke-linejoin="round"/>
<path d="M422.881 541.428H422.961L423.281 541.348H423.761H424.241H424.721H425.041L425.281 541.428H425.361L425.281 541.508H424.961L424.561 541.588H424.001H423.601L423.201 541.508H422.961L422.881 541.428Z" stroke="black" stroke-width="1.92" stroke-miterlimit="10" stroke-linecap="round" stroke-linejoin="round"/>
<path d="M422.4 549.268L422.48 548.788L422.72 548.388L423.12 548.148L423.6 548.068L424.08 548.148L424.56 548.388L424.8 548.788L424.88 549.268L424.8 549.748L424.56 550.228L424.08 550.468L423.6 550.548L423.12 550.468L422.72 550.228L422.48 549.748L422.4 549.268Z" stroke="black" stroke-width="1.92" stroke-miterlimit="10" stroke-linecap="round" stroke-linejoin="round"/>
<path d="M422.56 548.628L422.4 549.028L422.48 549.508L422.64 549.988L423.04 550.308L423.44 550.468H423.92L424.4 550.308L424.72 549.908" stroke="black" stroke-width="1.92" stroke-miterlimit="10" stroke-linecap="round" stroke-linejoin="round"/>
<path d="M423.921 548.867L424.401 549.107L424.881 549.027H424.401L423.921 548.867ZM423.921 548.867L423.521 548.547L423.361 548.067L423.601 548.467L423.921 548.867Z" stroke="black" stroke-width="1.92" stroke-miterlimit="10" stroke-linecap="round" stroke-linejoin="round"/>
<path d="M473.84 549.268L473.92 548.788L474.24 548.388L474.64 548.148L475.12 548.068L475.6 548.148L476 548.388L476.24 548.788L476.4 549.268L476.24 549.748L476 550.228L475.6 550.468L475.12 550.548L474.64 550.468L474.24 550.228L473.92 549.748L473.84 549.268Z" stroke="black" stroke-width="1.92" stroke-miterlimit="10" stroke-linecap="round" stroke-linejoin="round"/>
<path d="M474 548.788L473.84 549.268L474 549.748L474.24 550.148L474.64 550.388L475.12 550.468L475.6 550.388L476 550.148L476.32 549.748" stroke="black" stroke-width="1.92" stroke-miterlimit="10" stroke-linecap="round" stroke-linejoin="round"/>
<path d="M476.32 548.947L475.92 549.107L475.44 549.027L475.04 548.867L474.72 548.547L474.48 548.147" stroke="black" stroke-width="1.92" stroke-miterlimit="10" stroke-linecap="round" stroke-linejoin="round"/>
<path d="M474.561 548.147L474.801 548.627L475.281 548.947L475.761 549.027L476.321 548.867" stroke="black" stroke-width="1.92" stroke-miterlimit="10" stroke-linecap="round" stroke-linejoin="round"/>
<path d="M526.4 555.427V555.587L526.48 555.667V555.427" stroke="black" stroke-width="1.92" stroke-miterlimit="10" stroke-linecap="round" stroke-linejoin="round"/>
<path d="M526.48 542.708L526.4 542.868V543.108V555.428" stroke="black" stroke-width="1.92" stroke-miterlimit="10" stroke-linecap="round" stroke-linejoin="round"/>
<path d="M526.72 541.667V541.507V541.427L526.48 542.707" stroke="black" stroke-width="1.92" stroke-miterlimit="10" stroke-linecap="round" stroke-linejoin="round"/>
<path d="M526.721 540.788V541.028V541.348" stroke="black" stroke-width="1.92" stroke-miterlimit="10" stroke-linecap="round" stroke-linejoin="round"/>
<path d="M392.24 542.147L393.36 540.787" stroke="black" stroke-width="1.92" stroke-miterlimit="10" stroke-linecap="round" stroke-linejoin="round"/>
<path d="M526.72 540.787L526.4 542.147" stroke="black" stroke-width="1.92" stroke-miterlimit="10" stroke-linecap="round" stroke-linejoin="round"/>
<path d="M392.24 545.667V542.867V542.467V542.227V542.147" stroke="black" stroke-width="1.92" stroke-miterlimit="10" stroke-linecap="round" stroke-linejoin="round"/>
<path d="M526.4 542.867V542.467V542.227V542.147" stroke="black" stroke-width="1.92" stroke-miterlimit="10" stroke-linecap="round" stroke-linejoin="round"/>
<path d="M394 543.348L394.32 543.108L394.72 542.948H405.44L405.92 543.108L406.32 543.428L406.4 543.908V554.708L406.24 555.188" stroke="black" stroke-width="1.92" stroke-miterlimit="10" stroke-linecap="round" stroke-linejoin="round"/>
<path d="M526.4 542.868V555.748V556.068V556.308L526.64 555.428" stroke="black" stroke-width="1.92" stroke-miterlimit="10" stroke-linecap="round" stroke-linejoin="round"/>
<path d="M526.721 541.667V541.347" stroke="black" stroke-width="1.92" stroke-miterlimit="10" stroke-linecap="round" stroke-linejoin="round"/>
<path d="M526.721 540.787H393.361" stroke="black" stroke-width="1.92" stroke-miterlimit="10" stroke-linecap="round" stroke-linejoin="round"/>
<path d="M526.401 556.308H405.521" stroke="black" stroke-width="1.92" stroke-miterlimit="10" stroke-linecap="round" stroke-linejoin="round"/>
<path d="M394.001 543.348L390.961 547.268" stroke="black" stroke-width="1.92" stroke-miterlimit="10" stroke-linecap="round" stroke-linejoin="round"/>
<path d="M406.241 555.188L403.361 559.428" stroke="black" stroke-width="1.92" stroke-miterlimit="10" stroke-linecap="round" stroke-linejoin="round"/>
<path d="M809.281 661.507L809.361 661.427L809.681 661.347L810.241 661.267H810.961H811.681L812.321 661.347L812.801 661.427L813.041 661.507L812.961 661.667L812.641 661.747L812.081 661.827H811.361H810.641L809.921 661.747L809.441 661.667L809.281 661.507Z" stroke="black" stroke-width="1.92" stroke-miterlimit="10" stroke-linecap="round" stroke-linejoin="round"/>
<path d="M810.561 674.867L811.121 675.427L811.761 675.667H812.481L813.201 675.427L813.681 674.947L814.001 674.227L814.081 673.507L813.841 672.867" stroke="black" stroke-width="1.92" stroke-miterlimit="10" stroke-linecap="round" stroke-linejoin="round"/>
<path d="M810.32 673.987L810.48 673.187L810.88 672.627L811.52 672.227L812.24 672.067L812.96 672.227L813.6 672.627L814 673.187L814.16 673.987L814 674.707L813.6 675.267L812.96 675.747L812.24 675.827L811.52 675.747L810.88 675.267L810.48 674.707L810.32 673.987Z" stroke="black" stroke-width="1.92" stroke-miterlimit="10" stroke-linecap="round" stroke-linejoin="round"/>
<path d="M733.682 672.308L734.002 672.148" stroke="black" stroke-width="1.92" stroke-miterlimit="10" stroke-linecap="round" stroke-linejoin="round"/>
<path d="M734.401 672.068L733.921 672.388L733.361 672.548" stroke="black" stroke-width="1.92" stroke-miterlimit="10" stroke-linecap="round" stroke-linejoin="round"/>
<path d="M732.801 674.627L733.201 675.187L733.841 675.587L734.561 675.667L735.281 675.587L735.841 675.187L736.241 674.547L736.401 673.827L736.321 673.107" stroke="black" stroke-width="1.92" stroke-miterlimit="10" stroke-linecap="round" stroke-linejoin="round"/>
<path d="M732.641 673.987L732.801 673.187L733.201 672.627L733.841 672.227L734.561 672.067L735.281 672.227L735.921 672.627L736.321 673.187L736.481 673.987L736.321 674.707L735.921 675.267L735.281 675.747L734.561 675.827L733.841 675.747L733.201 675.267L732.801 674.707L732.641 673.987Z" stroke="black" stroke-width="1.92" stroke-miterlimit="10" stroke-linecap="round" stroke-linejoin="round"/>
<path d="M657.041 683.108L657.121 683.508V683.428V683.108V664.548" stroke="black" stroke-width="1.92" stroke-miterlimit="10" stroke-linecap="round" stroke-linejoin="round"/>
<path d="M656.48 661.028V661.108V661.428" stroke="black" stroke-width="1.92" stroke-miterlimit="10" stroke-linecap="round" stroke-linejoin="round"/>
<path d="M657.12 664.548V664.148V663.988L656.48 661.028" stroke="black" stroke-width="1.92" stroke-miterlimit="10" stroke-linecap="round" stroke-linejoin="round"/>
<path d="M859.681 664.147V663.667L859.601 663.267L859.521 663.107" stroke="black" stroke-width="1.92" stroke-miterlimit="10" stroke-linecap="round" stroke-linejoin="round"/>
<path d="M657.121 663.107V663.267V663.667V664.147" stroke="black" stroke-width="1.92" stroke-miterlimit="10" stroke-linecap="round" stroke-linejoin="round"/>
<path d="M857.121 659.987L859.521 663.107" stroke="black" stroke-width="1.92" stroke-miterlimit="10" stroke-linecap="round" stroke-linejoin="round"/>
<path d="M657.12 663.107L656.48 659.987" stroke="black" stroke-width="1.92" stroke-miterlimit="10" stroke-linecap="round" stroke-linejoin="round"/>
<path d="M859.682 664.148V683.748V684.148L859.602 684.388V684.548" stroke="black" stroke-width="1.92" stroke-miterlimit="10" stroke-linecap="round" stroke-linejoin="round"/>
<path d="M656.4 661.428V660.788V660.388V660.068L656.48 659.988" stroke="black" stroke-width="1.92" stroke-miterlimit="10" stroke-linecap="round" stroke-linejoin="round"/>
<path d="M656.801 683.108L657.121 684.548V684.468V684.148V683.748V664.148" stroke="black" stroke-width="1.92" stroke-miterlimit="10" stroke-linecap="round" stroke-linejoin="round"/>
<path d="M656.4 659.987H857.12" stroke="black" stroke-width="1.92" stroke-miterlimit="10" stroke-linecap="round" stroke-linejoin="round"/>
<path d="M657.121 684.548H859.601" stroke="black" stroke-width="1.92" stroke-miterlimit="10" stroke-linecap="round" stroke-linejoin="round"/>
<path d="M853.121 659.987L845.361 649.987" stroke="black" stroke-width="1.92" stroke-miterlimit="10" stroke-linecap="round" stroke-linejoin="round"/>
<path d="M344 661.507L344.24 661.427L344.72 661.347L345.36 661.267H346.08H346.8L347.36 661.347L347.68 661.427L347.76 661.507L347.6 661.667L347.12 661.747L346.4 661.827H345.68H344.96L344.4 661.747L344.08 661.667L344 661.507Z" stroke="black" stroke-width="1.92" stroke-miterlimit="10" stroke-linecap="round" stroke-linejoin="round"/>
<path d="M343.201 672.867L342.961 673.507L343.041 674.227L343.361 674.947L343.841 675.427L344.561 675.667H345.281L345.921 675.427L346.481 674.867" stroke="black" stroke-width="1.92" stroke-miterlimit="10" stroke-linecap="round" stroke-linejoin="round"/>
<path d="M342.881 673.987L343.041 673.187L343.441 672.627L344.081 672.227L344.801 672.067L345.521 672.227L346.161 672.627L346.561 673.187L346.721 673.987L346.561 674.707L346.161 675.267L345.521 675.747L344.801 675.827L344.081 675.747L343.441 675.267L343.041 674.707L342.881 673.987Z" stroke="black" stroke-width="1.92" stroke-miterlimit="10" stroke-linecap="round" stroke-linejoin="round"/>
<path d="M423.041 672.148L423.361 672.308" stroke="black" stroke-width="1.92" stroke-miterlimit="10" stroke-linecap="round" stroke-linejoin="round"/>
<path d="M423.681 672.548L423.121 672.388L422.641 672.068" stroke="black" stroke-width="1.92" stroke-miterlimit="10" stroke-linecap="round" stroke-linejoin="round"/>
<path d="M420.721 673.107L420.641 673.827L420.801 674.547L421.201 675.187L421.761 675.587L422.481 675.667L423.201 675.587L423.841 675.187L424.241 674.627" stroke="black" stroke-width="1.92" stroke-miterlimit="10" stroke-linecap="round" stroke-linejoin="round"/>
<path d="M420.561 673.987L420.721 673.187L421.121 672.627L421.761 672.227L422.481 672.067L423.201 672.227L423.841 672.627L424.241 673.187L424.401 673.987L424.241 674.707L423.841 675.267L423.201 675.747L422.481 675.827L421.761 675.747L421.121 675.267L420.721 674.707L420.561 673.987Z" stroke="black" stroke-width="1.92" stroke-miterlimit="10" stroke-linecap="round" stroke-linejoin="round"/>
<path d="M499.92 663.987V664.147V664.547V683.107" stroke="black" stroke-width="1.92" stroke-miterlimit="10" stroke-linecap="round" stroke-linejoin="round"/>
<path d="M500.56 661.427V661.107V661.027L499.92 663.987" stroke="black" stroke-width="1.92" stroke-miterlimit="10" stroke-linecap="round" stroke-linejoin="round"/>
<path d="M499.92 683.108V683.428V683.508L500 683.108" stroke="black" stroke-width="1.92" stroke-miterlimit="10" stroke-linecap="round" stroke-linejoin="round"/>
<path d="M297.361 683.748V684.148L297.441 684.388V684.548" stroke="black" stroke-width="1.92" stroke-miterlimit="10" stroke-linecap="round" stroke-linejoin="round"/>
<path d="M500.24 683.108L499.92 684.548V684.468V684.148V683.748" stroke="black" stroke-width="1.92" stroke-miterlimit="10" stroke-linecap="round" stroke-linejoin="round"/>
<path d="M297.361 683.747V664.147V663.667L297.441 663.267L297.521 663.107L299.921 659.987" stroke="black" stroke-width="1.92" stroke-miterlimit="10" stroke-linecap="round" stroke-linejoin="round"/>
<path d="M500.64 661.427V660.787V660.387V660.067L500.56 659.987L499.92 663.107V663.267V663.667V664.147V683.747" stroke="black" stroke-width="1.92" stroke-miterlimit="10" stroke-linecap="round" stroke-linejoin="round"/>
<path d="M499.921 684.548H297.441" stroke="black" stroke-width="1.92" stroke-miterlimit="10" stroke-linecap="round" stroke-linejoin="round"/>
<path d="M500.64 659.987H299.92" stroke="black" stroke-width="1.92" stroke-miterlimit="10" stroke-linecap="round" stroke-linejoin="round"/>
<path d="M303.92 659.987L311.68 649.987" stroke="black" stroke-width="1.92" stroke-miterlimit="10" stroke-linecap="round" stroke-linejoin="round"/>
</g>
<defs>
<clipPath id="clip0_499_61958">
<rect width="1120" height="792" fill="white"/>
</clipPath>
</defs>
</svg>
