<svg width="1120" height="900" viewBox="0 0 1120 900" fill="none" xmlns="http://www.w3.org/2000/svg">
<g clip-path="url(#clip0_499_63129)">
<path d="M782.4 603.101L782.88 603.021L783.28 602.781L783.52 602.381L783.68 601.901" stroke="black" stroke-width="1.92" stroke-miterlimit="10" stroke-linecap="round" stroke-linejoin="round"/>
<path d="M783.76 601.901L783.6 602.381L783.36 602.861L782.88 603.101L782.4 603.181" stroke="black" stroke-width="1.92" stroke-miterlimit="10" stroke-linecap="round" stroke-linejoin="round"/>
<path d="M782.721 603.981L783.121 604.301L783.601 604.381L784.081 604.301L784.481 604.061L784.721 603.661L784.881 603.181L784.801 602.701L784.561 602.301" stroke="black" stroke-width="1.92" stroke-miterlimit="10" stroke-linecap="round" stroke-linejoin="round"/>
<path d="M782.4 603.181L782.48 602.701L782.8 602.301L783.2 602.061L783.68 601.901L784.16 602.061L784.56 602.301L784.88 602.701L784.96 603.181L784.88 603.661L784.56 604.061L784.16 604.381L783.68 604.461L783.2 604.381L782.8 604.061L782.48 603.661L782.4 603.181Z" stroke="black" stroke-width="1.92" stroke-miterlimit="10" stroke-linecap="round" stroke-linejoin="round"/>
<path d="M714.16 603.021L714.64 603.101L715.12 602.861L715.52 602.541L715.68 602.061" stroke="black" stroke-width="1.92" stroke-miterlimit="10" stroke-linecap="round" stroke-linejoin="round"/>
<path d="M715.76 602.061L715.6 602.621L715.2 602.941L714.72 603.181L714.16 603.101" stroke="black" stroke-width="1.92" stroke-miterlimit="10" stroke-linecap="round" stroke-linejoin="round"/>
<path d="M714.32 603.901L714.64 604.221M714.64 604.221L715.04 604.381H715.52L716 604.221M714.64 604.221L715.12 604.461H715.6L716 604.221M716 604.221L716.32 603.901L716.48 603.421L716.56 602.941L716.4 602.541L716.56 603.021V603.501L716.4 603.901L716 604.221Z" stroke="black" stroke-width="1.92" stroke-miterlimit="10" stroke-linecap="round" stroke-linejoin="round"/>
<path d="M805.361 634.861L805.441 634.381L805.761 633.981L806.161 633.661L806.641 633.581L807.121 633.661L807.521 633.981L807.841 634.381L807.921 634.861L807.841 635.341L807.521 635.741L807.121 635.981L806.641 636.141L806.161 635.981L805.761 635.741L805.441 635.341L805.361 634.861Z" stroke="black" stroke-width="1.92" stroke-miterlimit="10" stroke-linecap="round" stroke-linejoin="round"/>
<path d="M805.682 635.662L806.082 635.902L806.562 636.062L807.042 635.982L807.442 635.742L807.682 635.342L807.842 634.862L807.762 634.382L807.522 633.982" stroke="black" stroke-width="1.92" stroke-miterlimit="10" stroke-linecap="round" stroke-linejoin="round"/>
<path d="M805.361 611.181L805.441 610.701L805.761 610.301L806.161 609.981L806.641 609.901L807.121 609.981L807.521 610.301L807.841 610.701L807.921 611.181L807.841 611.661L807.521 612.061L807.121 612.301L806.641 612.461L806.161 612.301L805.761 612.061L805.441 611.661L805.361 611.181Z" stroke="black" stroke-width="1.92" stroke-miterlimit="10" stroke-linecap="round" stroke-linejoin="round"/>
<path d="M805.682 611.981L806.082 612.301L806.562 612.381L807.042 612.301L807.442 611.981L807.762 611.581L807.842 611.101L807.762 610.701L807.522 610.221" stroke="black" stroke-width="1.92" stroke-miterlimit="10" stroke-linecap="round" stroke-linejoin="round"/>
<path d="M805.361 658.541L805.441 658.061L805.761 657.661L806.161 657.341L806.641 657.261L807.121 657.341L807.521 657.661L807.841 658.061L807.921 658.541L807.841 659.021L807.521 659.421L807.121 659.661L806.641 659.821L806.161 659.661L805.761 659.421L805.441 659.021L805.361 658.541Z" stroke="black" stroke-width="1.92" stroke-miterlimit="10" stroke-linecap="round" stroke-linejoin="round"/>
<path d="M805.602 659.261L806.002 659.581L806.482 659.741L806.962 659.661L807.362 659.421L807.682 659.021L807.842 658.621L807.762 658.141L807.602 657.661" stroke="black" stroke-width="1.92" stroke-miterlimit="10" stroke-linecap="round" stroke-linejoin="round"/>
<path d="M799.041 593.981H798.801" stroke="black" stroke-width="1.92" stroke-miterlimit="10" stroke-linecap="round" stroke-linejoin="round"/>
<path d="M798.801 593.981L800.081 595.261L800.161 595.341H800.401" stroke="black" stroke-width="1.92" stroke-miterlimit="10" stroke-linecap="round" stroke-linejoin="round"/>
<path d="M800.4 595.341H812.72H812.96L813.04 595.261L812.8 595.101" stroke="black" stroke-width="1.92" stroke-miterlimit="10" stroke-linecap="round" stroke-linejoin="round"/>
<path d="M799.761 645.581V632.221L799.681 632.141L799.601 632.061L799.521 631.981H799.441" stroke="black" stroke-width="1.92" stroke-miterlimit="10" stroke-linecap="round" stroke-linejoin="round"/>
<path d="M812.801 594.461L813.681 595.341H813.601H813.441L813.121 595.421H800.161L799.841 595.341H799.601H799.441" stroke="black" stroke-width="1.92" stroke-miterlimit="10" stroke-linecap="round" stroke-linejoin="round"/>
<path d="M799.04 593.901H798.64H798.4H798.16L798.08 593.981L799.44 595.341" stroke="black" stroke-width="1.92" stroke-miterlimit="10" stroke-linecap="round" stroke-linejoin="round"/>
<path d="M813.121 674.301H806.801" stroke="black" stroke-width="1.92" stroke-miterlimit="10" stroke-linecap="round" stroke-linejoin="round"/>
<path d="M798.08 630.381H798.16V630.621" stroke="black" stroke-width="1.92" stroke-miterlimit="10" stroke-linecap="round" stroke-linejoin="round"/>
<path d="M799.441 631.901V631.981" stroke="black" stroke-width="1.92" stroke-miterlimit="10" stroke-linecap="round" stroke-linejoin="round"/>
<path d="M799.36 609.421L799.44 609.261V609.021V608.541V597.821V597.341V596.941L799.36 596.781L798.24 595.661" stroke="black" stroke-width="1.92" stroke-miterlimit="10" stroke-linecap="round" stroke-linejoin="round"/>
<path d="M813.121 674.301H813.441H813.601L813.681 674.221" stroke="black" stroke-width="1.92" stroke-miterlimit="10" stroke-linecap="round" stroke-linejoin="round"/>
<path d="M799.76 632.221L766 598.541V598.461L776.08 608.541L799.44 631.901" stroke="black" stroke-width="1.92" stroke-miterlimit="10" stroke-linecap="round" stroke-linejoin="round"/>
<path d="M766.001 598.461H752.561L752.641 598.541L799.761 645.581" stroke="black" stroke-width="1.92" stroke-miterlimit="10" stroke-linecap="round" stroke-linejoin="round"/>
<path d="M766.001 598.541H752.641" stroke="black" stroke-width="1.92" stroke-miterlimit="10" stroke-linecap="round" stroke-linejoin="round"/>
<path d="M798.161 630.381L777.121 609.421L798.081 630.381" stroke="black" stroke-width="1.92" stroke-miterlimit="10" stroke-linecap="round" stroke-linejoin="round"/>
<path d="M813.682 674.221V595.341" stroke="black" stroke-width="1.92" stroke-miterlimit="10" stroke-linecap="round" stroke-linejoin="round"/>
<path d="M798.08 663.181V643.981" stroke="black" stroke-width="1.92" stroke-miterlimit="10" stroke-linecap="round" stroke-linejoin="round"/>
<path d="M798.08 630.381V609.421" stroke="black" stroke-width="1.92" stroke-miterlimit="10" stroke-linecap="round" stroke-linejoin="round"/>
<path d="M798.08 595.661V593.981" stroke="black" stroke-width="1.92" stroke-miterlimit="10" stroke-linecap="round" stroke-linejoin="round"/>
<path d="M799.361 609.421H776.961" stroke="black" stroke-width="1.92" stroke-miterlimit="10" stroke-linecap="round" stroke-linejoin="round"/>
<path d="M763.52 609.421H755.84" stroke="black" stroke-width="1.92" stroke-miterlimit="10" stroke-linecap="round" stroke-linejoin="round"/>
<path d="M798.24 595.661H746.4" stroke="black" stroke-width="1.92" stroke-miterlimit="10" stroke-linecap="round" stroke-linejoin="round"/>
<path d="M336.16 603.101L336.24 602.621L336.56 602.221L336.96 601.981L337.44 601.901L337.92 601.981L338.32 602.221L338.56 602.621L338.72 603.101L338.56 603.581L338.32 603.981L337.92 604.301L337.44 604.381L336.96 604.301L336.56 603.981L336.24 603.581L336.16 603.101Z" stroke="black" stroke-width="1.92" stroke-miterlimit="10" stroke-linecap="round" stroke-linejoin="round"/>
<path d="M336.56 602.221L336.32 602.621L336.24 603.101L336.32 603.581L336.64 603.981L337.04 604.221L337.52 604.301L338 604.221L338.4 603.901" stroke="black" stroke-width="1.92" stroke-miterlimit="10" stroke-linecap="round" stroke-linejoin="round"/>
<path d="M338.721 603.101L338.161 603.021L337.761 602.781L337.441 602.381L337.361 601.901" stroke="black" stroke-width="1.92" stroke-miterlimit="10" stroke-linecap="round" stroke-linejoin="round"/>
<path d="M337.441 601.901L337.521 602.301L337.841 602.701L338.241 602.941L338.721 603.021" stroke="black" stroke-width="1.92" stroke-miterlimit="10" stroke-linecap="round" stroke-linejoin="round"/>
<path d="M406.72 603.901L406.4 604.221L406 604.381H405.52L405.04 604.221L404.72 603.901L404.56 603.421L404.48 602.941L404.64 602.541" stroke="black" stroke-width="1.92" stroke-miterlimit="10" stroke-linecap="round" stroke-linejoin="round"/>
<path d="M404.641 602.461L404.561 603.021L404.641 603.501L404.881 603.981L405.361 604.221L405.841 604.301L406.401 604.141L406.801 603.821" stroke="black" stroke-width="1.92" stroke-miterlimit="10" stroke-linecap="round" stroke-linejoin="round"/>
<path d="M405.921 602.861L406.401 603.101L406.881 603.021H406.401L405.921 602.861ZM405.921 602.861L405.521 602.541L405.361 602.061L405.601 602.461L405.921 602.861Z" stroke="black" stroke-width="1.92" stroke-miterlimit="10" stroke-linecap="round" stroke-linejoin="round"/>
<path d="M313.601 633.901L313.361 634.301L313.281 634.781L313.441 635.261L313.681 635.661L314.081 635.901L314.561 635.981L315.041 635.821L315.441 635.581" stroke="black" stroke-width="1.92" stroke-miterlimit="10" stroke-linecap="round" stroke-linejoin="round"/>
<path d="M313.201 634.782L313.281 634.302L313.601 633.902L314.001 633.582L314.481 633.502L314.961 633.582L315.361 633.902L315.601 634.302L315.761 634.782L315.601 635.262L315.361 635.662L314.961 635.902L314.481 636.062L314.001 635.902L313.601 635.662L313.281 635.262L313.201 634.782Z" stroke="black" stroke-width="1.92" stroke-miterlimit="10" stroke-linecap="round" stroke-linejoin="round"/>
<path d="M313.601 610.221L313.361 610.621L313.281 611.101L313.361 611.501L313.681 611.901L314.081 612.221L314.561 612.301L315.041 612.221L315.441 611.981" stroke="black" stroke-width="1.92" stroke-miterlimit="10" stroke-linecap="round" stroke-linejoin="round"/>
<path d="M313.201 611.101L313.281 610.621L313.601 610.221L314.001 609.901L314.481 609.821L314.961 609.901L315.361 610.221L315.601 610.621L315.761 611.101L315.601 611.581L315.361 611.981L314.961 612.301L314.481 612.381L314.001 612.301L313.601 611.981L313.281 611.581L313.201 611.101Z" stroke="black" stroke-width="1.92" stroke-miterlimit="10" stroke-linecap="round" stroke-linejoin="round"/>
<path d="M313.521 657.581L313.281 658.061V658.541L313.441 658.941L313.761 659.341L314.161 659.581L314.641 659.661L315.121 659.501L315.441 659.181" stroke="black" stroke-width="1.92" stroke-miterlimit="10" stroke-linecap="round" stroke-linejoin="round"/>
<path d="M313.201 658.461L313.281 657.981L313.601 657.581L314.001 657.261L314.481 657.181L314.961 657.261L315.361 657.581L315.601 657.981L315.761 658.461L315.601 658.941L315.361 659.341L314.961 659.581L314.481 659.741L314.001 659.581L313.601 659.341L313.281 658.941L313.201 658.461Z" stroke="black" stroke-width="1.92" stroke-miterlimit="10" stroke-linecap="round" stroke-linejoin="round"/>
<path d="M308.4 595.261H320.72H320.96L321.04 595.181" stroke="black" stroke-width="1.92" stroke-miterlimit="10" stroke-linecap="round" stroke-linejoin="round"/>
<path d="M321.041 595.181L322.321 593.901H322.241H322.081" stroke="black" stroke-width="1.92" stroke-miterlimit="10" stroke-linecap="round" stroke-linejoin="round"/>
<path d="M308.32 595.021L308.08 595.181L308.16 595.261H308.4" stroke="black" stroke-width="1.92" stroke-miterlimit="10" stroke-linecap="round" stroke-linejoin="round"/>
<path d="M323.041 630.301H322.961" stroke="black" stroke-width="1.92" stroke-miterlimit="10" stroke-linecap="round" stroke-linejoin="round"/>
<path d="M322.08 593.821H322.4H322.72L322.96 593.901" stroke="black" stroke-width="1.92" stroke-miterlimit="10" stroke-linecap="round" stroke-linejoin="round"/>
<path d="M308.321 594.381L307.441 595.261H307.521L307.681 595.341H308.001H320.961H321.281L321.521 595.261H321.601L322.961 593.901" stroke="black" stroke-width="1.92" stroke-miterlimit="10" stroke-linecap="round" stroke-linejoin="round"/>
<path d="M321.602 631.901L321.682 631.821" stroke="black" stroke-width="1.92" stroke-miterlimit="10" stroke-linecap="round" stroke-linejoin="round"/>
<path d="M322.961 630.541V630.301" stroke="black" stroke-width="1.92" stroke-miterlimit="10" stroke-linecap="round" stroke-linejoin="round"/>
<path d="M321.762 609.341L321.682 609.261V608.941V608.461V597.741V597.261V596.861L321.762 596.701L322.882 595.581" stroke="black" stroke-width="1.92" stroke-miterlimit="10" stroke-linecap="round" stroke-linejoin="round"/>
<path d="M314.321 674.221H308.001H307.681H307.521L307.441 674.141" stroke="black" stroke-width="1.92" stroke-miterlimit="10" stroke-linecap="round" stroke-linejoin="round"/>
<path d="M321.361 645.501V632.141L321.441 632.061L321.521 631.981L321.601 631.901" stroke="black" stroke-width="1.92" stroke-miterlimit="10" stroke-linecap="round" stroke-linejoin="round"/>
<path d="M322.961 630.301L344.001 609.341L323.041 630.301" stroke="black" stroke-width="1.92" stroke-miterlimit="10" stroke-linecap="round" stroke-linejoin="round"/>
<path d="M321.682 631.821L345.042 608.461" stroke="black" stroke-width="1.92" stroke-miterlimit="10" stroke-linecap="round" stroke-linejoin="round"/>
<path d="M345.041 608.461L355.121 598.381L355.041 598.461L321.361 632.141" stroke="black" stroke-width="1.92" stroke-miterlimit="10" stroke-linecap="round" stroke-linejoin="round"/>
<path d="M355.121 598.381H368.481" stroke="black" stroke-width="1.92" stroke-miterlimit="10" stroke-linecap="round" stroke-linejoin="round"/>
<path d="M368.481 598.381V598.461H355.041" stroke="black" stroke-width="1.92" stroke-miterlimit="10" stroke-linecap="round" stroke-linejoin="round"/>
<path d="M368.481 598.461L321.361 645.501" stroke="black" stroke-width="1.92" stroke-miterlimit="10" stroke-linecap="round" stroke-linejoin="round"/>
<path d="M323.041 663.101V643.901" stroke="black" stroke-width="1.92" stroke-miterlimit="10" stroke-linecap="round" stroke-linejoin="round"/>
<path d="M323.041 630.301V609.341" stroke="black" stroke-width="1.92" stroke-miterlimit="10" stroke-linecap="round" stroke-linejoin="round"/>
<path d="M323.041 595.581V593.901" stroke="black" stroke-width="1.92" stroke-miterlimit="10" stroke-linecap="round" stroke-linejoin="round"/>
<path d="M307.441 674.141V595.261" stroke="black" stroke-width="1.92" stroke-miterlimit="10" stroke-linecap="round" stroke-linejoin="round"/>
<path d="M322.881 595.581H374.721" stroke="black" stroke-width="1.92" stroke-miterlimit="10" stroke-linecap="round" stroke-linejoin="round"/>
<path d="M321.762 609.341H344.162" stroke="black" stroke-width="1.92" stroke-miterlimit="10" stroke-linecap="round" stroke-linejoin="round"/>
<path d="M357.602 609.341H364.962" stroke="black" stroke-width="1.92" stroke-miterlimit="10" stroke-linecap="round" stroke-linejoin="round"/>
<path d="M203.361 727.821L203.521 727.101L203.921 726.461L204.561 726.061L205.281 725.901L206.001 726.061L206.641 726.461L207.041 727.101L207.201 727.821L207.041 728.541L206.641 729.101L206.001 729.581L205.281 729.661L204.561 729.581L203.921 729.101L203.521 728.541L203.361 727.821Z" stroke="black" stroke-width="1.92" stroke-miterlimit="10" stroke-linecap="round" stroke-linejoin="round"/>
<path d="M204.001 726.381L203.601 727.021L203.521 727.741L203.681 728.461L204.081 729.021L204.721 729.421L205.441 729.581L206.081 729.421L206.721 729.021" stroke="black" stroke-width="1.92" stroke-miterlimit="10" stroke-linecap="round" stroke-linejoin="round"/>
<path d="M102.16 716.781L102.48 716.621L102.96 716.541L103.68 716.461H104.48H105.12L105.68 716.541L106 716.621V716.781L105.68 716.861L105.12 716.941L104.4 717.021H103.68H102.96L102.48 716.941L102.16 716.861V716.781Z" stroke="black" stroke-width="1.92" stroke-miterlimit="10" stroke-linecap="round" stroke-linejoin="round"/>
<path d="M204.881 716.781L205.121 716.621L205.601 716.541L206.321 716.461H207.041H207.761L208.321 716.541L208.641 716.621V716.781L208.401 716.861L207.921 716.941L207.201 717.021H206.481H205.761L205.201 716.941L204.881 716.861V716.781Z" stroke="black" stroke-width="1.92" stroke-miterlimit="10" stroke-linecap="round" stroke-linejoin="round"/>
<path d="M77.9199 708.221L78.2399 708.141L78.7199 707.981H79.4399L80.1599 707.901L80.8799 707.981H81.3599L81.6799 708.141V708.221L81.3599 708.301L80.7999 708.381L80.1599 708.461L79.3599 708.541L78.7199 708.461L78.1599 708.381L77.9199 708.301V708.221Z" stroke="black" stroke-width="1.92" stroke-miterlimit="10" stroke-linecap="round" stroke-linejoin="round"/>
<path d="M70.3203 713.661L70.6403 713.581L71.2003 713.501L71.9203 713.421H72.6403H73.3603L73.8403 713.501L74.1603 713.581V713.661L73.8403 713.821L73.2803 713.901L72.5603 713.981H71.8403H71.1203L70.6403 713.901L70.3203 713.821V713.661Z" stroke="black" stroke-width="1.92" stroke-miterlimit="10" stroke-linecap="round" stroke-linejoin="round"/>
<path d="M85.2812 702.861L85.5212 702.781L86.0812 702.701L86.7212 702.621H87.5212H88.1612L88.6412 702.701L88.9612 702.781V702.861L88.6412 703.021L88.1612 703.101L87.4412 703.181H86.7212H86.0812L85.5212 703.101L85.2812 703.021V702.861Z" stroke="black" stroke-width="1.92" stroke-miterlimit="10" stroke-linecap="round" stroke-linejoin="round"/>
<path d="M75.3613 737.981H76.4013L76.7213 737.821L76.8813 737.501" stroke="black" stroke-width="1.92" stroke-miterlimit="10" stroke-linecap="round" stroke-linejoin="round"/>
<path d="M58.8017 737.981H57.7617" stroke="black" stroke-width="1.92" stroke-miterlimit="10" stroke-linecap="round" stroke-linejoin="round"/>
<path d="M76.8804 737.501V718.861L76.7204 718.541L76.4004 718.381" stroke="black" stroke-width="1.92" stroke-miterlimit="10" stroke-linecap="round" stroke-linejoin="round"/>
<path d="M76.4013 718.381H57.7613L57.4413 718.541L57.2812 718.861" stroke="black" stroke-width="1.92" stroke-miterlimit="10" stroke-linecap="round" stroke-linejoin="round"/>
<path d="M57.2812 718.861V737.501L57.4412 737.821L57.7612 737.981" stroke="black" stroke-width="1.92" stroke-miterlimit="10" stroke-linecap="round" stroke-linejoin="round"/>
<path d="M89.1211 709.021L93.2011 705.981" stroke="black" stroke-width="1.92" stroke-miterlimit="10" stroke-linecap="round" stroke-linejoin="round"/>
<path d="M102.081 700.381L101.921 699.901L101.601 699.581L101.121 699.421" stroke="black" stroke-width="1.92" stroke-miterlimit="10" stroke-linecap="round" stroke-linejoin="round"/>
<path d="M77.8403 718.381V737.981L77.6803 738.461L77.3603 738.781L76.8803 738.941H57.2803L56.8003 738.781L56.4803 738.461L56.3203 737.981V718.381L56.4803 717.901L56.8003 717.581L57.2803 717.421H76.8803L77.3603 717.581L77.6803 717.901L77.8403 718.381Z" stroke="black" stroke-width="1.92" stroke-miterlimit="10" stroke-linecap="round" stroke-linejoin="round"/>
<path d="M82.5605 699.421H101.121" stroke="black" stroke-width="1.92" stroke-miterlimit="10" stroke-linecap="round" stroke-linejoin="round"/>
<path d="M102.08 700.381V707.741" stroke="black" stroke-width="1.92" stroke-miterlimit="10" stroke-linecap="round" stroke-linejoin="round"/>
<path d="M102.08 712.541V715.421" stroke="black" stroke-width="1.92" stroke-miterlimit="10" stroke-linecap="round" stroke-linejoin="round"/>
<path d="M89.3613 710.062V709.822" stroke="black" stroke-width="1.92" stroke-miterlimit="10" stroke-linecap="round" stroke-linejoin="round"/>
<path d="M78.5603 737.101L78.4803 736.941L78.3203 736.541V735.901V719.661L78.4003 718.941L78.4803 718.381L78.6403 718.061L82.0803 715.501V715.421" stroke="black" stroke-width="1.92" stroke-miterlimit="10" stroke-linecap="round" stroke-linejoin="round"/>
<path d="M82.5601 699.421L82.0801 699.581" stroke="black" stroke-width="1.92" stroke-miterlimit="10" stroke-linecap="round" stroke-linejoin="round"/>
<path d="M89.1211 709.021L129.281 716.941V717.901L117.041 715.501L89.3611 710.061" stroke="black" stroke-width="1.92" stroke-miterlimit="10" stroke-linecap="round" stroke-linejoin="round"/>
<path d="M129.281 717.901H149.521V716.941L93.2012 705.981" stroke="black" stroke-width="1.92" stroke-miterlimit="10" stroke-linecap="round" stroke-linejoin="round"/>
<path d="M129.281 716.941H149.521" stroke="black" stroke-width="1.92" stroke-miterlimit="10" stroke-linecap="round" stroke-linejoin="round"/>
<path d="M129.282 737.101V737.901L125.602 737.101" stroke="black" stroke-width="1.92" stroke-miterlimit="10" stroke-linecap="round" stroke-linejoin="round"/>
<path d="M149.521 737.101V737.901H129.281" stroke="black" stroke-width="1.92" stroke-miterlimit="10" stroke-linecap="round" stroke-linejoin="round"/>
<path d="M260.56 717.021L260.48 716.621V716.461L258.4 718.941" stroke="black" stroke-width="1.92" stroke-miterlimit="10" stroke-linecap="round" stroke-linejoin="round"/>
<path d="M260.48 733.501V733.181L260.56 732.621V717.021" stroke="black" stroke-width="1.92" stroke-miterlimit="10" stroke-linecap="round" stroke-linejoin="round"/>
<path d="M258.24 735.502L258.32 735.982L258.4 736.062L260.48 733.502" stroke="black" stroke-width="1.92" stroke-miterlimit="10" stroke-linecap="round" stroke-linejoin="round"/>
<path d="M258.4 718.941L258.32 719.261L258.24 719.821V735.501" stroke="black" stroke-width="1.92" stroke-miterlimit="10" stroke-linecap="round" stroke-linejoin="round"/>
<path d="M260.64 716.701V732.701V733.501L260.56 734.061L260.48 734.381L258.32 737.101L258.24 737.021L258.16 736.541V735.901V719.661V718.941L258.24 718.381L258.32 718.061L260.48 715.501L260.56 715.581L260.64 715.981V716.701Z" stroke="black" stroke-width="1.92" stroke-miterlimit="10" stroke-linecap="round" stroke-linejoin="round"/>
<path d="M82.0807 699.581L56.7207 717.661" stroke="black" stroke-width="1.92" stroke-miterlimit="10" stroke-linecap="round" stroke-linejoin="round"/>
<path d="M79.5214 737.101L77.4414 738.701" stroke="black" stroke-width="1.92" stroke-miterlimit="10" stroke-linecap="round" stroke-linejoin="round"/>
<path d="M82.0801 715.421H116.96" stroke="black" stroke-width="1.92" stroke-miterlimit="10" stroke-linecap="round" stroke-linejoin="round"/>
<path d="M141.92 715.421H260.48" stroke="black" stroke-width="1.92" stroke-miterlimit="10" stroke-linecap="round" stroke-linejoin="round"/>
<path d="M78.5605 737.101H258.321" stroke="black" stroke-width="1.92" stroke-miterlimit="10" stroke-linecap="round" stroke-linejoin="round"/>
<path d="M920.48 727.821L920.56 727.101L921.04 726.461L921.6 726.061L922.32 725.901L923.12 726.061L923.68 726.461L924.08 727.101L924.24 727.821L924.08 728.541L923.68 729.101L923.12 729.581L922.32 729.661L921.6 729.581L921.04 729.101L920.56 728.541L920.48 727.821Z" stroke="black" stroke-width="1.92" stroke-miterlimit="10" stroke-linecap="round" stroke-linejoin="round"/>
<path d="M920.881 729.021L921.521 729.421L922.241 729.581L922.961 729.421L923.521 729.021L923.921 728.381L924.081 727.741L924.001 727.021L923.601 726.381" stroke="black" stroke-width="1.92" stroke-miterlimit="10" stroke-linecap="round" stroke-linejoin="round"/>
<path d="M1021.6 716.781V716.621L1021.92 716.541L1022.48 716.461H1023.12H1023.92L1024.56 716.541L1025.12 716.621L1025.44 716.781V716.861L1025.12 716.941L1024.64 717.021H1023.92H1023.2L1022.48 716.941L1021.92 716.861L1021.6 716.781Z" stroke="black" stroke-width="1.92" stroke-miterlimit="10" stroke-linecap="round" stroke-linejoin="round"/>
<path d="M918.961 716.781V716.621L919.281 716.541L919.841 716.461H920.561H921.281L922.001 716.541L922.481 716.621L922.721 716.781V716.861L922.401 716.941L921.841 717.021H921.121H920.401L919.681 716.941L919.201 716.861L918.961 716.781Z" stroke="black" stroke-width="1.92" stroke-miterlimit="10" stroke-linecap="round" stroke-linejoin="round"/>
<path d="M1045.84 708.221V708.141L1046.08 707.981H1046.56L1047.28 707.901L1048 707.981H1048.72L1049.2 708.141L1049.52 708.221V708.301L1049.28 708.381L1048.72 708.461L1048.08 708.541L1047.36 708.461L1046.64 708.381L1046.08 708.301L1045.84 708.221Z" stroke="black" stroke-width="1.92" stroke-miterlimit="10" stroke-linecap="round" stroke-linejoin="round"/>
<path d="M1053.44 713.661V713.581L1053.68 713.501L1054.24 713.421H1054.88H1055.68L1056.32 713.501L1056.88 713.581L1057.2 713.661V713.821L1056.96 713.901L1056.4 713.981H1055.76H1054.96L1054.24 713.901L1053.76 713.821L1053.44 713.661Z" stroke="black" stroke-width="1.92" stroke-miterlimit="10" stroke-linecap="round" stroke-linejoin="round"/>
<path d="M1038.4 702.861V702.781L1038.72 702.701L1039.2 702.621H1039.84H1040.64L1041.28 702.701L1041.84 702.781L1042.08 702.861V703.021L1041.84 703.101L1041.36 703.181H1040.64H1039.92L1039.28 703.101L1038.72 703.021L1038.4 702.861Z" stroke="black" stroke-width="1.92" stroke-miterlimit="10" stroke-linecap="round" stroke-linejoin="round"/>
<path d="M1069.84 718.381H1051.28L1050.88 718.541L1050.8 718.861" stroke="black" stroke-width="1.92" stroke-miterlimit="10" stroke-linecap="round" stroke-linejoin="round"/>
<path d="M1050.8 718.861V737.501L1050.88 737.821L1051.28 737.981" stroke="black" stroke-width="1.92" stroke-miterlimit="10" stroke-linecap="round" stroke-linejoin="round"/>
<path d="M1068.88 737.981H1069.84L1070.16 737.821L1070.32 737.501" stroke="black" stroke-width="1.92" stroke-miterlimit="10" stroke-linecap="round" stroke-linejoin="round"/>
<path d="M1052.24 737.981H1051.28" stroke="black" stroke-width="1.92" stroke-miterlimit="10" stroke-linecap="round" stroke-linejoin="round"/>
<path d="M1070.32 737.501V718.861L1070.16 718.541L1069.84 718.381" stroke="black" stroke-width="1.92" stroke-miterlimit="10" stroke-linecap="round" stroke-linejoin="round"/>
<path d="M1049.84 737.981V718.381L1049.92 717.901L1050.32 717.581L1050.8 717.421H1070.32L1070.8 717.581L1071.12 717.901L1071.28 718.381V737.981L1071.12 738.461L1070.8 738.781L1070.32 738.941H1050.8L1050.32 738.781L1049.92 738.461L1049.84 737.981Z" stroke="black" stroke-width="1.92" stroke-miterlimit="10" stroke-linecap="round" stroke-linejoin="round"/>
<path d="M1038.08 709.822V710.062" stroke="black" stroke-width="1.92" stroke-miterlimit="10" stroke-linecap="round" stroke-linejoin="round"/>
<path d="M1025.28 715.421V712.541" stroke="black" stroke-width="1.92" stroke-miterlimit="10" stroke-linecap="round" stroke-linejoin="round"/>
<path d="M1025.28 707.741V700.381" stroke="black" stroke-width="1.92" stroke-miterlimit="10" stroke-linecap="round" stroke-linejoin="round"/>
<path d="M1045.44 715.421L1045.52 715.501L1048.96 718.061L1049.12 718.381L1049.28 718.941V719.661V735.901V736.541L1049.2 736.941L1049.04 737.101" stroke="black" stroke-width="1.92" stroke-miterlimit="10" stroke-linecap="round" stroke-linejoin="round"/>
<path d="M1045.28 699.581L1044.72 699.421H1026.16L1025.68 699.581L1025.36 699.901L1025.28 700.381" stroke="black" stroke-width="1.92" stroke-miterlimit="10" stroke-linecap="round" stroke-linejoin="round"/>
<path d="M1034.24 705.981L1038.32 709.021" stroke="black" stroke-width="1.92" stroke-miterlimit="10" stroke-linecap="round" stroke-linejoin="round"/>
<path d="M998.32 737.101V737.901L1002 737.101" stroke="black" stroke-width="1.92" stroke-miterlimit="10" stroke-linecap="round" stroke-linejoin="round"/>
<path d="M978.16 737.101V737.901H998.32" stroke="black" stroke-width="1.92" stroke-miterlimit="10" stroke-linecap="round" stroke-linejoin="round"/>
<path d="M1038.08 710.061L1010.48 715.501" stroke="black" stroke-width="1.92" stroke-miterlimit="10" stroke-linecap="round" stroke-linejoin="round"/>
<path d="M1010.48 715.501L998.32 717.901V716.941L1038.32 709.021" stroke="black" stroke-width="1.92" stroke-miterlimit="10" stroke-linecap="round" stroke-linejoin="round"/>
<path d="M998.32 717.901H978.16" stroke="black" stroke-width="1.92" stroke-miterlimit="10" stroke-linecap="round" stroke-linejoin="round"/>
<path d="M978.16 717.901V716.941H998.32" stroke="black" stroke-width="1.92" stroke-miterlimit="10" stroke-linecap="round" stroke-linejoin="round"/>
<path d="M978.16 716.941L1034.24 705.981" stroke="black" stroke-width="1.92" stroke-miterlimit="10" stroke-linecap="round" stroke-linejoin="round"/>
<path d="M867.041 732.622V733.182L867.121 733.502L869.281 736.062" stroke="black" stroke-width="1.92" stroke-miterlimit="10" stroke-linecap="round" stroke-linejoin="round"/>
<path d="M867.121 716.461L867.041 716.621V717.021V732.621" stroke="black" stroke-width="1.92" stroke-miterlimit="10" stroke-linecap="round" stroke-linejoin="round"/>
<path d="M869.361 719.821V719.261L869.281 718.941L867.121 716.461" stroke="black" stroke-width="1.92" stroke-miterlimit="10" stroke-linecap="round" stroke-linejoin="round"/>
<path d="M869.281 736.062L869.361 735.982V735.502V719.822" stroke="black" stroke-width="1.92" stroke-miterlimit="10" stroke-linecap="round" stroke-linejoin="round"/>
<path d="M866.881 732.701V716.701L866.961 715.981V715.581L867.121 715.501L869.281 718.061L869.361 718.381L869.441 718.941L869.521 719.661V735.901L869.441 736.541L869.361 737.021L869.281 737.101L867.121 734.381L866.961 734.061V733.501L866.881 732.701Z" stroke="black" stroke-width="1.92" stroke-miterlimit="10" stroke-linecap="round" stroke-linejoin="round"/>
<path d="M1048.08 737.101L1050.16 738.701" stroke="black" stroke-width="1.92" stroke-miterlimit="10" stroke-linecap="round" stroke-linejoin="round"/>
<path d="M1045.28 699.581L1070.88 717.661" stroke="black" stroke-width="1.92" stroke-miterlimit="10" stroke-linecap="round" stroke-linejoin="round"/>
<path d="M1049.04 737.101H869.361" stroke="black" stroke-width="1.92" stroke-miterlimit="10" stroke-linecap="round" stroke-linejoin="round"/>
<path d="M1045.44 715.421H1010.56" stroke="black" stroke-width="1.92" stroke-miterlimit="10" stroke-linecap="round" stroke-linejoin="round"/>
<path d="M985.681 715.421H867.041" stroke="black" stroke-width="1.92" stroke-miterlimit="10" stroke-linecap="round" stroke-linejoin="round"/>
<path d="M772.082 632.301V631.741L771.922 631.501L771.682 631.421" stroke="black" stroke-width="1.92" stroke-miterlimit="10" stroke-linecap="round" stroke-linejoin="round"/>
<path d="M771.681 631.421H757.601L757.361 631.501L757.201 631.741" stroke="black" stroke-width="1.92" stroke-miterlimit="10" stroke-linecap="round" stroke-linejoin="round"/>
<path d="M757.201 631.741V645.901L757.361 646.141L757.601 646.221H758.241" stroke="black" stroke-width="1.92" stroke-miterlimit="10" stroke-linecap="round" stroke-linejoin="round"/>
<path d="M756.48 631.421L756.56 631.021L756.88 630.781L757.2 630.701" stroke="black" stroke-width="1.92" stroke-miterlimit="10" stroke-linecap="round" stroke-linejoin="round"/>
<path d="M736.001 601.261L735.681 601.341L735.441 601.581L735.361 601.901" stroke="black" stroke-width="1.92" stroke-miterlimit="10" stroke-linecap="round" stroke-linejoin="round"/>
<path d="M754.801 636.381V635.901L754.881 635.421V635.181H754.961V635.341L755.041 635.661V636.221V636.781V637.261V637.741L754.961 637.981L754.881 637.821V637.501L754.801 636.941V636.381Z" stroke="black" stroke-width="1.92" stroke-miterlimit="10" stroke-linecap="round" stroke-linejoin="round"/>
<path d="M736.48 610.221V609.741L736.56 609.341V609.101V609.021L736.64 609.181V609.501L736.72 609.981V610.461V610.941L736.64 611.341V611.581L736.56 611.661V611.501V611.181L736.48 610.701V610.221Z" stroke="black" stroke-width="1.92" stroke-miterlimit="10" stroke-linecap="round" stroke-linejoin="round"/>
<path d="M735.361 615.181V601.901" stroke="black" stroke-width="1.92" stroke-miterlimit="10" stroke-linecap="round" stroke-linejoin="round"/>
<path d="M756.48 631.421V646.221" stroke="black" stroke-width="1.92" stroke-miterlimit="10" stroke-linecap="round" stroke-linejoin="round"/>
<path d="M736 601.261H749.2L749.52 601.341L749.68 601.501" stroke="black" stroke-width="1.92" stroke-miterlimit="10" stroke-linecap="round" stroke-linejoin="round"/>
<path d="M735.361 615.181L735.441 615.501" stroke="black" stroke-width="1.92" stroke-miterlimit="10" stroke-linecap="round" stroke-linejoin="round"/>
<path d="M772.08 630.701L772.4 630.781L772.64 631.021L772.8 631.421V633.261" stroke="black" stroke-width="1.92" stroke-miterlimit="10" stroke-linecap="round" stroke-linejoin="round"/>
<path d="M757.2 646.941L756.88 646.861L756.56 646.621L756.48 646.221" stroke="black" stroke-width="1.92" stroke-miterlimit="10" stroke-linecap="round" stroke-linejoin="round"/>
<path d="M772.081 630.701H757.201" stroke="black" stroke-width="1.92" stroke-miterlimit="10" stroke-linecap="round" stroke-linejoin="round"/>
<path d="M757.201 646.941H758.721" stroke="black" stroke-width="1.92" stroke-miterlimit="10" stroke-linecap="round" stroke-linejoin="round"/>
<path d="M749.682 601.501L772.642 630.941" stroke="black" stroke-width="1.92" stroke-miterlimit="10" stroke-linecap="round" stroke-linejoin="round"/>
<path d="M735.441 615.501L756.641 646.621" stroke="black" stroke-width="1.92" stroke-miterlimit="10" stroke-linecap="round" stroke-linejoin="round"/>
<path d="M348.961 631.421L348.721 631.501L348.641 631.741V632.781" stroke="black" stroke-width="1.92" stroke-miterlimit="10" stroke-linecap="round" stroke-linejoin="round"/>
<path d="M363.441 631.741L363.361 631.501L363.121 631.421H348.961" stroke="black" stroke-width="1.92" stroke-miterlimit="10" stroke-linecap="round" stroke-linejoin="round"/>
<path d="M362.801 646.221H363.121L363.361 646.141L363.441 645.901V631.741" stroke="black" stroke-width="1.92" stroke-miterlimit="10" stroke-linecap="round" stroke-linejoin="round"/>
<path d="M385.361 601.901L385.281 601.581L385.041 601.341L384.721 601.261" stroke="black" stroke-width="1.92" stroke-miterlimit="10" stroke-linecap="round" stroke-linejoin="round"/>
<path d="M363.441 630.701L363.841 630.781L364.081 631.021L364.161 631.421" stroke="black" stroke-width="1.92" stroke-miterlimit="10" stroke-linecap="round" stroke-linejoin="round"/>
<path d="M384 610.461V609.981L384.08 609.501V609.181V609.021L384.16 609.101V609.341L384.24 609.741V610.221V610.701L384.16 611.181V611.501L384.08 611.661V611.581V611.341L384 610.941V610.461Z" stroke="black" stroke-width="1.92" stroke-miterlimit="10" stroke-linecap="round" stroke-linejoin="round"/>
<path d="M365.602 636.781V636.221L365.682 635.661V635.341L365.762 635.181L365.842 635.421V635.901V636.381V636.941V637.501L365.762 637.821V637.981H365.682V637.741L365.602 637.261V636.781Z" stroke="black" stroke-width="1.92" stroke-miterlimit="10" stroke-linecap="round" stroke-linejoin="round"/>
<path d="M364.16 646.221V631.421" stroke="black" stroke-width="1.92" stroke-miterlimit="10" stroke-linecap="round" stroke-linejoin="round"/>
<path d="M385.361 601.901V615.181" stroke="black" stroke-width="1.92" stroke-miterlimit="10" stroke-linecap="round" stroke-linejoin="round"/>
<path d="M363.44 630.701H348.64L348.24 630.781L348 631.021L347.92 631.421V633.661" stroke="black" stroke-width="1.92" stroke-miterlimit="10" stroke-linecap="round" stroke-linejoin="round"/>
<path d="M362.32 646.941H363.44L363.84 646.861L364.08 646.621L364.16 646.221" stroke="black" stroke-width="1.92" stroke-miterlimit="10" stroke-linecap="round" stroke-linejoin="round"/>
<path d="M371.521 601.261L371.201 601.341L371.041 601.501" stroke="black" stroke-width="1.92" stroke-miterlimit="10" stroke-linecap="round" stroke-linejoin="round"/>
<path d="M385.281 615.501L385.361 615.181" stroke="black" stroke-width="1.92" stroke-miterlimit="10" stroke-linecap="round" stroke-linejoin="round"/>
<path d="M371.521 601.261H384.721" stroke="black" stroke-width="1.92" stroke-miterlimit="10" stroke-linecap="round" stroke-linejoin="round"/>
<path d="M348.08 630.941L371.04 601.501" stroke="black" stroke-width="1.92" stroke-miterlimit="10" stroke-linecap="round" stroke-linejoin="round"/>
<path d="M364.08 646.621L385.28 615.501" stroke="black" stroke-width="1.92" stroke-miterlimit="10" stroke-linecap="round" stroke-linejoin="round"/>
<path d="M810.4 703.981L810.08 704.061L809.92 704.381V713.981" stroke="black" stroke-width="1.92" stroke-miterlimit="10" stroke-linecap="round" stroke-linejoin="round"/>
<path d="M828.72 705.661V704.381L828.56 704.061L828.24 703.981H810.4" stroke="black" stroke-width="1.92" stroke-miterlimit="10" stroke-linecap="round" stroke-linejoin="round"/>
<path d="M793.681 657.581L793.441 657.341L793.121 657.261" stroke="black" stroke-width="1.92" stroke-miterlimit="10" stroke-linecap="round" stroke-linejoin="round"/>
<path d="M809.041 713.981V703.981L809.201 703.501L809.521 703.181L809.921 703.021H828.721L829.201 703.181L829.521 703.501L829.601 703.981V706.861" stroke="black" stroke-width="1.92" stroke-miterlimit="10" stroke-linecap="round" stroke-linejoin="round"/>
<path d="M776.8 657.262L776.4 657.342L776.16 657.662L776 658.062" stroke="black" stroke-width="1.92" stroke-miterlimit="10" stroke-linecap="round" stroke-linejoin="round"/>
<path d="M777.762 668.701V668.141L777.842 667.661L777.922 667.341L778.002 667.501L778.082 667.981V668.541V669.181V669.741V670.221L778.002 670.461L777.922 670.541V670.301L777.842 669.901L777.762 669.341V668.701Z" stroke="black" stroke-width="1.92" stroke-miterlimit="10" stroke-linecap="round" stroke-linejoin="round"/>
<path d="M806.32 709.501L806.4 708.781V708.301L806.48 707.981H806.56L806.64 708.221L806.72 708.701V709.341V710.061V710.701V711.261L806.64 711.581H806.56L806.48 711.341L806.4 710.861V710.221L806.32 709.501Z" stroke="black" stroke-width="1.92" stroke-miterlimit="10" stroke-linecap="round" stroke-linejoin="round"/>
<path d="M776.16 674.781L776 674.301V658.061" stroke="black" stroke-width="1.92" stroke-miterlimit="10" stroke-linecap="round" stroke-linejoin="round"/>
<path d="M776.801 657.261H793.121" stroke="black" stroke-width="1.92" stroke-miterlimit="10" stroke-linecap="round" stroke-linejoin="round"/>
<path d="M829.442 703.421L793.682 657.581" stroke="black" stroke-width="1.92" stroke-miterlimit="10" stroke-linecap="round" stroke-linejoin="round"/>
<path d="M802.88 713.981L776.16 674.781" stroke="black" stroke-width="1.92" stroke-miterlimit="10" stroke-linecap="round" stroke-linejoin="round"/>
<path d="M292.8 703.981L292.48 704.061L292.32 704.381V705.661" stroke="black" stroke-width="1.92" stroke-miterlimit="10" stroke-linecap="round" stroke-linejoin="round"/>
<path d="M311.121 713.981V704.381L310.961 704.061L310.641 703.981H292.801" stroke="black" stroke-width="1.92" stroke-miterlimit="10" stroke-linecap="round" stroke-linejoin="round"/>
<path d="M345.04 658.062L344.88 657.662L344.64 657.342L344.24 657.262" stroke="black" stroke-width="1.92" stroke-miterlimit="10" stroke-linecap="round" stroke-linejoin="round"/>
<path d="M311.121 703.021L311.521 703.181L311.841 703.501L312.001 703.981" stroke="black" stroke-width="1.92" stroke-miterlimit="10" stroke-linecap="round" stroke-linejoin="round"/>
<path d="M342.961 669.181V668.541V667.981L343.041 667.501L343.121 667.341L343.201 667.661L343.281 668.141V668.701V669.341L343.201 669.901L343.121 670.301V670.541L343.041 670.461L342.961 670.221V669.741V669.181Z" stroke="black" stroke-width="1.92" stroke-miterlimit="10" stroke-linecap="round" stroke-linejoin="round"/>
<path d="M314.32 710.061V709.341V708.701L314.4 708.221L314.48 707.981H314.56L314.64 708.301V708.781L314.72 709.501L314.64 710.221V710.861L314.56 711.341L314.48 711.581H314.4L314.32 711.261V710.701V710.061Z" stroke="black" stroke-width="1.92" stroke-miterlimit="10" stroke-linecap="round" stroke-linejoin="round"/>
<path d="M312 713.981V703.981" stroke="black" stroke-width="1.92" stroke-miterlimit="10" stroke-linecap="round" stroke-linejoin="round"/>
<path d="M345.041 658.061V674.301" stroke="black" stroke-width="1.92" stroke-miterlimit="10" stroke-linecap="round" stroke-linejoin="round"/>
<path d="M311.121 703.021H292.321L291.841 703.181L291.521 703.501L291.441 703.981V706.861" stroke="black" stroke-width="1.92" stroke-miterlimit="10" stroke-linecap="round" stroke-linejoin="round"/>
<path d="M327.921 657.261L327.601 657.341L327.361 657.581" stroke="black" stroke-width="1.92" stroke-miterlimit="10" stroke-linecap="round" stroke-linejoin="round"/>
<path d="M344.881 674.781L345.041 674.301" stroke="black" stroke-width="1.92" stroke-miterlimit="10" stroke-linecap="round" stroke-linejoin="round"/>
<path d="M327.92 657.261H344.24" stroke="black" stroke-width="1.92" stroke-miterlimit="10" stroke-linecap="round" stroke-linejoin="round"/>
<path d="M291.602 703.421L327.362 657.581" stroke="black" stroke-width="1.92" stroke-miterlimit="10" stroke-linecap="round" stroke-linejoin="round"/>
<path d="M318.16 713.981L344.88 674.781" stroke="black" stroke-width="1.92" stroke-miterlimit="10" stroke-linecap="round" stroke-linejoin="round"/>
<path d="M319.84 435.581H320.16H320.32L321.44 435.261H321.36L321.04 435.181" stroke="black" stroke-width="1.92" stroke-miterlimit="10" stroke-linecap="round" stroke-linejoin="round"/>
<path d="M313.361 657.981L313.441 658.461L313.681 658.861L314.161 659.181L314.641 659.261L315.121 659.181L315.521 658.861" stroke="black" stroke-width="1.92" stroke-miterlimit="10" stroke-linecap="round" stroke-linejoin="round"/>
<path d="M314.161 450.221L313.761 450.461L313.441 450.861L313.361 451.341L313.441 451.821L313.681 452.221L314.081 452.541L314.561 452.621L315.041 452.541" stroke="black" stroke-width="1.92" stroke-miterlimit="10" stroke-linecap="round" stroke-linejoin="round"/>
<path d="M319.841 435.581H309.361H309.041H308.961L310.161 435.261H310.321L310.641 435.181H321.041" stroke="black" stroke-width="1.92" stroke-miterlimit="10" stroke-linecap="round" stroke-linejoin="round"/>
<path d="M315.521 657.741L315.121 657.501L314.801 657.261" stroke="black" stroke-width="1.92" stroke-miterlimit="10" stroke-linecap="round" stroke-linejoin="round"/>
<path d="M315.601 452.142L315.121 451.902L314.801 451.582L314.561 451.102L314.641 450.622L314.801 450.142" stroke="black" stroke-width="1.92" stroke-miterlimit="10" stroke-linecap="round" stroke-linejoin="round"/>
<path d="M321.2 435.181H321.68H322L322.08 435.261L320.96 435.581H320.8L320.4 435.661H319.92" stroke="black" stroke-width="1.92" stroke-miterlimit="10" stroke-linecap="round" stroke-linejoin="round"/>
<path d="M315.041 657.341L315.361 657.581" stroke="black" stroke-width="1.92" stroke-miterlimit="10" stroke-linecap="round" stroke-linejoin="round"/>
<path d="M314.881 450.222L314.641 450.622V451.102L314.801 451.582L315.121 451.902L315.601 452.142" stroke="black" stroke-width="1.92" stroke-miterlimit="10" stroke-linecap="round" stroke-linejoin="round"/>
<path d="M321.2 435.181H310.56H310.08H309.68L309.52 435.261L308.32 435.581H308.4L308.72 435.661H309.2" stroke="black" stroke-width="1.92" stroke-miterlimit="10" stroke-linecap="round" stroke-linejoin="round"/>
<path d="M313.281 451.421L313.361 450.941L313.681 450.541L314.081 450.221L314.561 450.141L315.041 450.221L315.441 450.541L315.681 450.941L315.761 451.421L315.681 451.901L315.441 452.301L315.041 452.541L314.561 452.701L314.081 452.541L313.681 452.301L313.361 451.901L313.281 451.421Z" stroke="black" stroke-width="1.92" stroke-miterlimit="10" stroke-linecap="round" stroke-linejoin="round"/>
<path d="M315.761 658.541L315.521 658.941L315.121 659.261L314.641 659.341L314.161 659.261L313.761 659.101L313.441 658.701L313.281 658.221" stroke="black" stroke-width="1.92" stroke-miterlimit="10" stroke-linecap="round" stroke-linejoin="round"/>
<path d="M309.201 435.661H319.921" stroke="black" stroke-width="1.92" stroke-miterlimit="10" stroke-linecap="round" stroke-linejoin="round"/>
<path d="M322.08 594.221V435.261" stroke="black" stroke-width="1.92" stroke-miterlimit="10" stroke-linecap="round" stroke-linejoin="round"/>
<path d="M308.32 595.261V435.581" stroke="black" stroke-width="1.92" stroke-miterlimit="10" stroke-linecap="round" stroke-linejoin="round"/>
<path d="M811.68 435.661H812L812.16 435.581L810.96 435.261H810.8H810.48" stroke="black" stroke-width="1.92" stroke-miterlimit="10" stroke-linecap="round" stroke-linejoin="round"/>
<path d="M805.602 658.941L806.002 659.261L806.482 659.341L806.962 659.261L807.442 658.941L807.682 658.541L807.762 658.061" stroke="black" stroke-width="1.92" stroke-miterlimit="10" stroke-linecap="round" stroke-linejoin="round"/>
<path d="M806.08 452.621L806.56 452.701L807.04 452.541L807.44 452.301L807.68 451.821L807.76 451.341L807.68 450.861L807.36 450.461L806.96 450.221" stroke="black" stroke-width="1.92" stroke-miterlimit="10" stroke-linecap="round" stroke-linejoin="round"/>
<path d="M811.682 435.661H801.282H800.962L800.802 435.581L799.682 435.261H799.762H800.082H810.482" stroke="black" stroke-width="1.92" stroke-miterlimit="10" stroke-linecap="round" stroke-linejoin="round"/>
<path d="M806.322 657.341L806.002 657.581L805.602 657.821" stroke="black" stroke-width="1.92" stroke-miterlimit="10" stroke-linecap="round" stroke-linejoin="round"/>
<path d="M806.321 450.222L806.481 450.622V451.182L806.321 451.582L806.001 451.982L805.521 452.142" stroke="black" stroke-width="1.92" stroke-miterlimit="10" stroke-linecap="round" stroke-linejoin="round"/>
<path d="M810.561 435.181L811.041 435.261H811.441H811.601L812.801 435.581L812.721 435.661H812.401H811.921" stroke="black" stroke-width="1.92" stroke-miterlimit="10" stroke-linecap="round" stroke-linejoin="round"/>
<path d="M805.762 657.661L806.082 657.421" stroke="black" stroke-width="1.92" stroke-miterlimit="10" stroke-linecap="round" stroke-linejoin="round"/>
<path d="M805.521 452.142L805.921 451.902L806.241 451.582L806.481 451.102L806.401 450.622L806.241 450.222" stroke="black" stroke-width="1.92" stroke-miterlimit="10" stroke-linecap="round" stroke-linejoin="round"/>
<path d="M810.561 435.181H799.841L799.441 435.261H799.121H799.041L800.161 435.581L800.321 435.661H800.721H801.201" stroke="black" stroke-width="1.92" stroke-miterlimit="10" stroke-linecap="round" stroke-linejoin="round"/>
<path d="M805.281 451.421L805.441 450.941L805.681 450.541L806.081 450.301L806.561 450.141L807.041 450.301L807.441 450.541L807.761 450.941L807.841 451.421L807.761 451.901L807.441 452.301L807.041 452.621L806.561 452.701L806.081 452.621L805.681 452.301L805.441 451.901L805.281 451.421Z" stroke="black" stroke-width="1.92" stroke-miterlimit="10" stroke-linecap="round" stroke-linejoin="round"/>
<path d="M807.841 658.301L807.681 658.781L807.361 659.181L806.961 659.421H806.481L806.001 659.341L805.601 659.021L805.361 658.621" stroke="black" stroke-width="1.92" stroke-miterlimit="10" stroke-linecap="round" stroke-linejoin="round"/>
<path d="M801.201 435.661H811.921" stroke="black" stroke-width="1.92" stroke-miterlimit="10" stroke-linecap="round" stroke-linejoin="round"/>
<path d="M812.801 595.341V435.581" stroke="black" stroke-width="1.92" stroke-miterlimit="10" stroke-linecap="round" stroke-linejoin="round"/>
<path d="M799.041 594.221V435.261" stroke="black" stroke-width="1.92" stroke-miterlimit="10" stroke-linecap="round" stroke-linejoin="round"/>
<path d="M456 602.701L455.92 603.181L456 603.661L456.32 604.061L456.72 604.301L457.12 604.381L457.6 604.301L458 604.061L458.32 603.661" stroke="black" stroke-width="1.92" stroke-miterlimit="10" stroke-linecap="round" stroke-linejoin="round"/>
<path d="M662.721 603.661L663.041 604.061L663.441 604.301L663.921 604.381L664.321 604.301L664.721 604.061L665.041 603.661L665.121 603.181L665.041 602.701" stroke="black" stroke-width="1.92" stroke-miterlimit="10" stroke-linecap="round" stroke-linejoin="round"/>
<path d="M458.32 603.021L457.92 603.101H457.44L457.04 602.941L456.64 602.621L456.48 602.221" stroke="black" stroke-width="1.92" stroke-miterlimit="10" stroke-linecap="round" stroke-linejoin="round"/>
<path d="M664.561 602.221L664.401 602.621L664.001 602.941L663.601 603.101H663.121L662.721 603.021" stroke="black" stroke-width="1.92" stroke-miterlimit="10" stroke-linecap="round" stroke-linejoin="round"/>
<path d="M456.48 602.141L456.72 602.541L457.04 602.861L457.44 603.021L457.92 603.101L458.32 602.941" stroke="black" stroke-width="1.92" stroke-miterlimit="10" stroke-linecap="round" stroke-linejoin="round"/>
<path d="M662.721 602.941L663.121 603.101L663.601 603.021L664.001 602.861L664.321 602.541L664.561 602.141" stroke="black" stroke-width="1.92" stroke-miterlimit="10" stroke-linecap="round" stroke-linejoin="round"/>
<path d="M665.041 602.781L665.121 603.261L665.041 603.661L664.801 604.061L664.401 604.381L663.921 604.461L663.441 604.381L663.041 604.141L662.721 603.741" stroke="black" stroke-width="1.92" stroke-miterlimit="10" stroke-linecap="round" stroke-linejoin="round"/>
<path d="M458.32 603.741L458 604.141L457.6 604.381L457.12 604.461L456.64 604.381L456.24 604.061L456 603.661L455.92 603.261L456 602.781" stroke="black" stroke-width="1.92" stroke-miterlimit="10" stroke-linecap="round" stroke-linejoin="round"/>
<path d="M508.4 609.421H612.64" stroke="black" stroke-width="1.92" stroke-miterlimit="10" stroke-linecap="round" stroke-linejoin="round"/>
<path d="M508.641 595.661H612.401" stroke="black" stroke-width="1.92" stroke-miterlimit="10" stroke-linecap="round" stroke-linejoin="round"/>
<path d="M1052.72 719.821L1052.16 720.061L1052 720.541V736.301L1052.16 736.781L1052.72 737.021" stroke="black" stroke-width="1.92" stroke-miterlimit="10" stroke-linecap="round" stroke-linejoin="round"/>
<path d="M1053.44 733.021V732.941L1053.68 732.861L1054.24 732.781H1054.88H1055.68L1056.4 732.861L1056.88 732.941L1057.2 733.021V733.181L1056.96 733.261L1056.4 733.341H1055.76H1054.96L1054.32 733.261L1053.76 733.181L1053.44 733.021Z" stroke="black" stroke-width="1.92" stroke-miterlimit="10" stroke-linecap="round" stroke-linejoin="round"/>
<path d="M1052.72 737.021H1068.4L1068.96 736.781L1069.12 736.301V720.541L1068.96 720.061L1068.4 719.821H1052.72" stroke="black" stroke-width="1.92" stroke-miterlimit="10" stroke-linecap="round" stroke-linejoin="round"/>
<path d="M983.521 684.541L983.601 685.021L984.001 685.501" stroke="black" stroke-width="1.92" stroke-miterlimit="10" stroke-linecap="round" stroke-linejoin="round"/>
<path d="M1052.48 737.981L1051.76 737.741L1051.2 737.261L1051.04 736.541V720.301" stroke="black" stroke-width="1.92" stroke-miterlimit="10" stroke-linecap="round" stroke-linejoin="round"/>
<path d="M983.521 684.541V670.541" stroke="black" stroke-width="1.92" stroke-miterlimit="10" stroke-linecap="round" stroke-linejoin="round"/>
<path d="M1052.48 737.981H1068.64L1069.36 737.741L1069.92 737.261L1070.08 736.541V720.301L1069.92 719.581L1069.36 719.101L1068.64 718.861H1052.48L1051.76 719.101L1051.2 719.581L1051.04 720.301" stroke="black" stroke-width="1.92" stroke-miterlimit="10" stroke-linecap="round" stroke-linejoin="round"/>
<path d="M984.721 669.261L984.161 669.421L983.681 669.901L983.521 670.541" stroke="black" stroke-width="1.92" stroke-miterlimit="10" stroke-linecap="round" stroke-linejoin="round"/>
<path d="M994.08 672.141V672.061L994.32 671.981L994.8 671.901H995.36H996.08L996.64 671.981L997.12 672.061L997.36 672.141V672.221L997.12 672.301L996.64 672.381H996H995.36L994.72 672.301L994.32 672.221L994.08 672.141Z" stroke="black" stroke-width="1.92" stroke-miterlimit="10" stroke-linecap="round" stroke-linejoin="round"/>
<path d="M984.721 669.261H998.721L999.441 669.501" stroke="black" stroke-width="1.92" stroke-miterlimit="10" stroke-linecap="round" stroke-linejoin="round"/>
<path d="M1051.6 737.661L1050.8 737.021" stroke="black" stroke-width="1.92" stroke-miterlimit="10" stroke-linecap="round" stroke-linejoin="round"/>
<path d="M1022.8 715.421L1020.32 713.501" stroke="black" stroke-width="1.92" stroke-miterlimit="10" stroke-linecap="round" stroke-linejoin="round"/>
<path d="M1015.36 709.661L984 685.501" stroke="black" stroke-width="1.92" stroke-miterlimit="10" stroke-linecap="round" stroke-linejoin="round"/>
<path d="M1069.52 719.181L1068.4 718.381" stroke="black" stroke-width="1.92" stroke-miterlimit="10" stroke-linecap="round" stroke-linejoin="round"/>
<path d="M1041.68 699.421L999.441 669.501" stroke="black" stroke-width="1.92" stroke-miterlimit="10" stroke-linecap="round" stroke-linejoin="round"/>
<path d="M59.2005 719.821L58.7205 720.061L58.4805 720.541V736.301L58.7205 736.781L59.2005 737.021" stroke="black" stroke-width="1.92" stroke-miterlimit="10" stroke-linecap="round" stroke-linejoin="round"/>
<path d="M70.3203 733.021L70.6403 732.941L71.2003 732.861L71.9203 732.781H72.6403H73.3603L73.8403 732.861L74.1603 732.941L74.0803 733.021L73.8403 733.181L73.2803 733.261L72.5603 733.341H71.8403H71.1203L70.6403 733.261L70.3203 733.181V733.021Z" stroke="black" stroke-width="1.92" stroke-miterlimit="10" stroke-linecap="round" stroke-linejoin="round"/>
<path d="M59.2012 737.021H74.9612L75.4412 736.781L75.6812 736.301V720.541L75.4412 720.061L74.9612 719.821H59.2012" stroke="black" stroke-width="1.92" stroke-miterlimit="10" stroke-linecap="round" stroke-linejoin="round"/>
<path d="M58.9615 718.861H75.2015L75.9215 719.101L76.4015 719.581L76.6415 720.301V736.541L76.4015 737.261L75.9215 737.741L75.2015 737.981H58.9615L58.2415 737.741L57.7615 737.261L57.5215 736.541V720.301L57.7615 719.581L58.2415 719.101L58.9615 718.861Z" stroke="black" stroke-width="1.92" stroke-miterlimit="10" stroke-linecap="round" stroke-linejoin="round"/>
<path d="M128.001 669.261L127.281 669.501" stroke="black" stroke-width="1.92" stroke-miterlimit="10" stroke-linecap="round" stroke-linejoin="round"/>
<path d="M129.441 672.141L129.681 672.061L130.161 671.981L130.721 671.901H131.361H132.001L132.481 671.981L132.721 672.061V672.141L132.481 672.221L132.001 672.301L131.441 672.381H130.721H130.161L129.681 672.301L129.441 672.221V672.141Z" stroke="black" stroke-width="1.92" stroke-miterlimit="10" stroke-linecap="round" stroke-linejoin="round"/>
<path d="M128 669.261H142L142.56 669.421L143.04 669.901L143.2 670.541V684.541L143.12 685.021L142.72 685.501" stroke="black" stroke-width="1.92" stroke-miterlimit="10" stroke-linecap="round" stroke-linejoin="round"/>
<path d="M58.1602 719.181L59.2002 718.381" stroke="black" stroke-width="1.92" stroke-miterlimit="10" stroke-linecap="round" stroke-linejoin="round"/>
<path d="M85.6016 699.421L127.282 669.501" stroke="black" stroke-width="1.92" stroke-miterlimit="10" stroke-linecap="round" stroke-linejoin="round"/>
<path d="M76.0801 737.661L76.8801 737.021" stroke="black" stroke-width="1.92" stroke-miterlimit="10" stroke-linecap="round" stroke-linejoin="round"/>
<path d="M104.4 715.421L106.96 713.501" stroke="black" stroke-width="1.92" stroke-miterlimit="10" stroke-linecap="round" stroke-linejoin="round"/>
<path d="M111.84 709.661L142.72 685.501" stroke="black" stroke-width="1.92" stroke-miterlimit="10" stroke-linecap="round" stroke-linejoin="round"/>
<path d="M716.721 726.061L716.001 726.621L715.121 726.701" stroke="black" stroke-width="1.92" stroke-miterlimit="10" stroke-linecap="round" stroke-linejoin="round"/>
<path d="M405.92 726.701L405.04 726.621L404.32 726.061" stroke="black" stroke-width="1.92" stroke-miterlimit="10" stroke-linecap="round" stroke-linejoin="round"/>
<path d="M714.801 728.541L715.201 729.101L715.841 729.421L716.481 729.581L717.201 729.421L717.761 729.021L718.161 728.461L718.321 727.741L718.241 727.021" stroke="black" stroke-width="1.92" stroke-miterlimit="10" stroke-linecap="round" stroke-linejoin="round"/>
<path d="M402.801 727.021L402.721 727.741L402.881 728.461L403.281 729.021L403.841 729.421L404.561 729.581L405.201 729.421L405.841 729.101L406.241 728.541" stroke="black" stroke-width="1.92" stroke-miterlimit="10" stroke-linecap="round" stroke-linejoin="round"/>
<path d="M718.321 727.101L718.401 727.821L718.241 728.541L717.841 729.181L717.281 729.581L716.561 729.661L715.841 729.581L715.201 729.181L714.801 728.621" stroke="black" stroke-width="1.92" stroke-miterlimit="10" stroke-linecap="round" stroke-linejoin="round"/>
<path d="M406.241 728.621L405.841 729.181L405.201 729.581L404.481 729.661L403.761 729.581L403.201 729.181L402.801 728.541L402.641 727.821L402.721 727.101" stroke="black" stroke-width="1.92" stroke-miterlimit="10" stroke-linecap="round" stroke-linejoin="round"/>
<path d="M404.48 726.061L405.12 726.461L405.76 726.621" stroke="black" stroke-width="1.92" stroke-miterlimit="10" stroke-linecap="round" stroke-linejoin="round"/>
<path d="M715.281 726.621L715.921 726.461L716.561 726.061" stroke="black" stroke-width="1.92" stroke-miterlimit="10" stroke-linecap="round" stroke-linejoin="round"/>
<path d="M639.12 737.101H481.92" stroke="black" stroke-width="1.92" stroke-miterlimit="10" stroke-linecap="round" stroke-linejoin="round"/>
<path d="M638.56 715.421H482.48" stroke="black" stroke-width="1.92" stroke-miterlimit="10" stroke-linecap="round" stroke-linejoin="round"/>
<path d="M363.441 645.261L345.041 672.141" stroke="black" stroke-width="1.92" stroke-miterlimit="10" stroke-linecap="round" stroke-linejoin="round"/>
<path d="M349.682 631.421L329.682 657.261" stroke="black" stroke-width="1.92" stroke-miterlimit="10" stroke-linecap="round" stroke-linejoin="round"/>
<path d="M757.201 644.781L776.001 672.141" stroke="black" stroke-width="1.92" stroke-miterlimit="10" stroke-linecap="round" stroke-linejoin="round"/>
<path d="M771.361 631.421L791.361 657.261" stroke="black" stroke-width="1.92" stroke-miterlimit="10" stroke-linecap="round" stroke-linejoin="round"/>
<path d="M713.682 595.421H713.762L714.002 595.341H714.322H714.802H715.282H715.762L716.082 595.421H716.162L716.082 595.501H715.842L715.442 595.581H715.042H714.482L714.082 595.501H713.762L713.682 595.421Z" stroke="black" stroke-width="1.92" stroke-miterlimit="10" stroke-linecap="round" stroke-linejoin="round"/>
<path d="M714.16 603.261L714.24 602.781L714.48 602.381L714.96 602.141L715.44 602.061L715.92 602.141L716.32 602.381L716.56 602.781L716.64 603.261L716.56 603.741L716.32 604.221L715.92 604.461L715.44 604.541L714.96 604.461L714.48 604.221L714.24 603.741L714.16 603.261Z" stroke="black" stroke-width="1.92" stroke-miterlimit="10" stroke-linecap="round" stroke-linejoin="round"/>
<path d="M714.32 603.901L714.64 604.301L715.12 604.461H715.6L716 604.301L716.4 603.981L716.56 603.501L716.64 603.021L716.48 602.621" stroke="black" stroke-width="1.92" stroke-miterlimit="10" stroke-linecap="round" stroke-linejoin="round"/>
<path d="M715.12 602.861L715.52 602.541L715.68 602.061L715.44 602.461L715.12 602.861ZM715.12 602.861L714.64 603.101L714.16 603.021H714.64L715.12 602.861Z" stroke="black" stroke-width="1.92" stroke-miterlimit="10" stroke-linecap="round" stroke-linejoin="round"/>
<path d="M662.641 603.261L662.801 602.781L663.041 602.381L663.441 602.141L663.921 602.061L664.401 602.141L664.801 602.381L665.121 602.781L665.201 603.261L665.121 603.741L664.801 604.221L664.401 604.461L663.921 604.541L663.441 604.461L663.041 604.221L662.801 603.741L662.641 603.261Z" stroke="black" stroke-width="1.92" stroke-miterlimit="10" stroke-linecap="round" stroke-linejoin="round"/>
<path d="M662.721 603.741L663.041 604.141L663.441 604.381L663.921 604.461L664.401 604.381L664.801 604.141L665.041 603.741L665.201 603.261L665.041 602.781" stroke="black" stroke-width="1.92" stroke-miterlimit="10" stroke-linecap="round" stroke-linejoin="round"/>
<path d="M664.561 602.141L664.321 602.541L664.001 602.861L663.601 603.021L663.121 603.101L662.721 602.941" stroke="black" stroke-width="1.92" stroke-miterlimit="10" stroke-linecap="round" stroke-linejoin="round"/>
<path d="M662.721 602.861L663.281 603.021L663.761 602.941L664.241 602.621L664.481 602.141" stroke="black" stroke-width="1.92" stroke-miterlimit="10" stroke-linecap="round" stroke-linejoin="round"/>
<path d="M612.32 595.421V595.501V595.661" stroke="black" stroke-width="1.92" stroke-miterlimit="10" stroke-linecap="round" stroke-linejoin="round"/>
<path d="M612.64 597.101V596.861L612.56 596.701L612.32 595.421" stroke="black" stroke-width="1.92" stroke-miterlimit="10" stroke-linecap="round" stroke-linejoin="round"/>
<path d="M612.561 609.421V609.661L612.641 609.581V609.421V597.101" stroke="black" stroke-width="1.92" stroke-miterlimit="10" stroke-linecap="round" stroke-linejoin="round"/>
<path d="M612.4 609.421L612.64 610.301" stroke="black" stroke-width="1.92" stroke-miterlimit="10" stroke-linecap="round" stroke-linejoin="round"/>
<path d="M746.802 599.661V596.861V596.461V596.221V596.141L745.682 594.781" stroke="black" stroke-width="1.92" stroke-miterlimit="10" stroke-linecap="round" stroke-linejoin="round"/>
<path d="M612.641 609.741V610.061V610.301" stroke="black" stroke-width="1.92" stroke-miterlimit="10" stroke-linecap="round" stroke-linejoin="round"/>
<path d="M733.602 596.941H744.322L744.722 597.101L745.042 597.341" stroke="black" stroke-width="1.92" stroke-miterlimit="10" stroke-linecap="round" stroke-linejoin="round"/>
<path d="M732.801 609.181L732.641 608.701V597.901L732.721 597.421L733.121 597.101L733.601 596.941" stroke="black" stroke-width="1.92" stroke-miterlimit="10" stroke-linecap="round" stroke-linejoin="round"/>
<path d="M612.64 609.741V596.861V596.461V596.221V596.141L612.32 594.781V595.021V595.341V595.661" stroke="black" stroke-width="1.92" stroke-miterlimit="10" stroke-linecap="round" stroke-linejoin="round"/>
<path d="M612.641 610.301H733.521" stroke="black" stroke-width="1.92" stroke-miterlimit="10" stroke-linecap="round" stroke-linejoin="round"/>
<path d="M612.32 594.781H745.68" stroke="black" stroke-width="1.92" stroke-miterlimit="10" stroke-linecap="round" stroke-linejoin="round"/>
<path d="M732.801 609.181L735.361 612.941" stroke="black" stroke-width="1.92" stroke-miterlimit="10" stroke-linecap="round" stroke-linejoin="round"/>
<path d="M745.041 597.341L748.081 601.261" stroke="black" stroke-width="1.92" stroke-miterlimit="10" stroke-linecap="round" stroke-linejoin="round"/>
<path d="M404.881 595.421H404.961L405.281 595.341H405.761H406.241H406.721H407.041L407.281 595.421H407.361L407.281 595.501H406.961L406.561 595.581H406.001H405.601L405.201 595.501H404.961L404.881 595.421Z" stroke="black" stroke-width="1.92" stroke-miterlimit="10" stroke-linecap="round" stroke-linejoin="round"/>
<path d="M404.4 603.261L404.48 602.781L404.72 602.381L405.12 602.141L405.6 602.061L406.08 602.141L406.56 602.381L406.8 602.781L406.88 603.261L406.8 603.741L406.56 604.221L406.08 604.461L405.6 604.541L405.12 604.461L404.72 604.221L404.48 603.741L404.4 603.261Z" stroke="black" stroke-width="1.92" stroke-miterlimit="10" stroke-linecap="round" stroke-linejoin="round"/>
<path d="M404.56 602.621L404.4 603.021L404.48 603.501L404.64 603.981L405.04 604.301L405.44 604.461H405.92L406.4 604.301L406.72 603.901" stroke="black" stroke-width="1.92" stroke-miterlimit="10" stroke-linecap="round" stroke-linejoin="round"/>
<path d="M405.921 602.861L406.401 603.101L406.881 603.021H406.401L405.921 602.861ZM405.921 602.861L405.521 602.541L405.361 602.061L405.601 602.461L405.921 602.861Z" stroke="black" stroke-width="1.92" stroke-miterlimit="10" stroke-linecap="round" stroke-linejoin="round"/>
<path d="M455.84 603.261L455.92 602.781L456.24 602.381L456.64 602.141L457.12 602.061L457.6 602.141L458 602.381L458.24 602.781L458.4 603.261L458.24 603.741L458 604.221L457.6 604.461L457.12 604.541L456.64 604.461L456.24 604.221L455.92 603.741L455.84 603.261Z" stroke="black" stroke-width="1.92" stroke-miterlimit="10" stroke-linecap="round" stroke-linejoin="round"/>
<path d="M456 602.781L455.84 603.261L456 603.741L456.24 604.141L456.64 604.381L457.12 604.461L457.6 604.381L458 604.141L458.32 603.741" stroke="black" stroke-width="1.92" stroke-miterlimit="10" stroke-linecap="round" stroke-linejoin="round"/>
<path d="M458.32 602.941L457.92 603.101L457.44 603.021L457.04 602.861L456.72 602.541L456.48 602.141" stroke="black" stroke-width="1.92" stroke-miterlimit="10" stroke-linecap="round" stroke-linejoin="round"/>
<path d="M456.561 602.141L456.801 602.621L457.281 602.941L457.761 603.021L458.321 602.861" stroke="black" stroke-width="1.92" stroke-miterlimit="10" stroke-linecap="round" stroke-linejoin="round"/>
<path d="M508.4 609.421V609.581L508.48 609.661V609.421" stroke="black" stroke-width="1.92" stroke-miterlimit="10" stroke-linecap="round" stroke-linejoin="round"/>
<path d="M508.48 596.701L508.4 596.861V597.101V609.421" stroke="black" stroke-width="1.92" stroke-miterlimit="10" stroke-linecap="round" stroke-linejoin="round"/>
<path d="M508.72 595.661V595.501V595.421L508.48 596.701" stroke="black" stroke-width="1.92" stroke-miterlimit="10" stroke-linecap="round" stroke-linejoin="round"/>
<path d="M508.721 594.781V595.021V595.341" stroke="black" stroke-width="1.92" stroke-miterlimit="10" stroke-linecap="round" stroke-linejoin="round"/>
<path d="M374.24 596.141L375.36 594.781" stroke="black" stroke-width="1.92" stroke-miterlimit="10" stroke-linecap="round" stroke-linejoin="round"/>
<path d="M508.72 594.781L508.4 596.141" stroke="black" stroke-width="1.92" stroke-miterlimit="10" stroke-linecap="round" stroke-linejoin="round"/>
<path d="M374.24 599.661V596.861V596.461V596.221V596.141" stroke="black" stroke-width="1.92" stroke-miterlimit="10" stroke-linecap="round" stroke-linejoin="round"/>
<path d="M508.4 596.861V596.461V596.221V596.141" stroke="black" stroke-width="1.92" stroke-miterlimit="10" stroke-linecap="round" stroke-linejoin="round"/>
<path d="M376 597.341L376.32 597.101L376.72 596.941H387.44L387.92 597.101L388.32 597.421L388.4 597.901V608.701L388.24 609.181" stroke="black" stroke-width="1.92" stroke-miterlimit="10" stroke-linecap="round" stroke-linejoin="round"/>
<path d="M508.4 596.861V609.741V610.061V610.301L508.64 609.421" stroke="black" stroke-width="1.92" stroke-miterlimit="10" stroke-linecap="round" stroke-linejoin="round"/>
<path d="M508.721 595.661V595.341" stroke="black" stroke-width="1.92" stroke-miterlimit="10" stroke-linecap="round" stroke-linejoin="round"/>
<path d="M508.721 594.781H375.361" stroke="black" stroke-width="1.92" stroke-miterlimit="10" stroke-linecap="round" stroke-linejoin="round"/>
<path d="M508.401 610.301H387.521" stroke="black" stroke-width="1.92" stroke-miterlimit="10" stroke-linecap="round" stroke-linejoin="round"/>
<path d="M376.001 597.341L372.961 601.261" stroke="black" stroke-width="1.92" stroke-miterlimit="10" stroke-linecap="round" stroke-linejoin="round"/>
<path d="M388.241 609.181L385.361 613.421" stroke="black" stroke-width="1.92" stroke-miterlimit="10" stroke-linecap="round" stroke-linejoin="round"/>
<path d="M791.281 715.501L791.361 715.421L791.681 715.341L792.241 715.261H792.961H793.681L794.321 715.341L794.801 715.421L795.041 715.501L794.961 715.661L794.641 715.741L794.081 715.821H793.361H792.641L791.921 715.741L791.441 715.661L791.281 715.501Z" stroke="black" stroke-width="1.92" stroke-miterlimit="10" stroke-linecap="round" stroke-linejoin="round"/>
<path d="M792.561 728.861L793.121 729.421L793.761 729.661H794.481L795.201 729.421L795.681 728.941L796.001 728.221L796.081 727.501L795.841 726.861" stroke="black" stroke-width="1.92" stroke-miterlimit="10" stroke-linecap="round" stroke-linejoin="round"/>
<path d="M792.32 727.981L792.48 727.181L792.88 726.621L793.52 726.221L794.24 726.061L794.96 726.221L795.6 726.621L796 727.181L796.16 727.981L796 728.701L795.6 729.261L794.96 729.741L794.24 729.821L793.52 729.741L792.88 729.261L792.48 728.701L792.32 727.981Z" stroke="black" stroke-width="1.92" stroke-miterlimit="10" stroke-linecap="round" stroke-linejoin="round"/>
<path d="M715.682 726.301L716.002 726.141" stroke="black" stroke-width="1.92" stroke-miterlimit="10" stroke-linecap="round" stroke-linejoin="round"/>
<path d="M716.401 726.061L715.921 726.381L715.361 726.541" stroke="black" stroke-width="1.92" stroke-miterlimit="10" stroke-linecap="round" stroke-linejoin="round"/>
<path d="M714.801 728.621L715.201 729.181L715.841 729.581L716.561 729.661L717.281 729.581L717.841 729.181L718.241 728.541L718.401 727.821L718.321 727.101" stroke="black" stroke-width="1.92" stroke-miterlimit="10" stroke-linecap="round" stroke-linejoin="round"/>
<path d="M714.641 727.981L714.801 727.181L715.201 726.621L715.841 726.221L716.561 726.061L717.281 726.221L717.921 726.621L718.321 727.181L718.481 727.981L718.321 728.701L717.921 729.261L717.281 729.741L716.561 729.821L715.841 729.741L715.201 729.261L714.801 728.701L714.641 727.981Z" stroke="black" stroke-width="1.92" stroke-miterlimit="10" stroke-linecap="round" stroke-linejoin="round"/>
<path d="M639.041 737.101L639.121 737.501V737.421V737.101V718.541" stroke="black" stroke-width="1.92" stroke-miterlimit="10" stroke-linecap="round" stroke-linejoin="round"/>
<path d="M638.48 715.021V715.101V715.421" stroke="black" stroke-width="1.92" stroke-miterlimit="10" stroke-linecap="round" stroke-linejoin="round"/>
<path d="M639.12 718.541V718.141V717.981L638.48 715.021" stroke="black" stroke-width="1.92" stroke-miterlimit="10" stroke-linecap="round" stroke-linejoin="round"/>
<path d="M841.681 718.141V717.661L841.601 717.261L841.521 717.101" stroke="black" stroke-width="1.92" stroke-miterlimit="10" stroke-linecap="round" stroke-linejoin="round"/>
<path d="M639.121 717.101V717.261V717.661V718.141" stroke="black" stroke-width="1.92" stroke-miterlimit="10" stroke-linecap="round" stroke-linejoin="round"/>
<path d="M839.121 713.981L841.521 717.101" stroke="black" stroke-width="1.92" stroke-miterlimit="10" stroke-linecap="round" stroke-linejoin="round"/>
<path d="M639.12 717.101L638.48 713.981" stroke="black" stroke-width="1.92" stroke-miterlimit="10" stroke-linecap="round" stroke-linejoin="round"/>
<path d="M841.682 718.141V737.741V738.141L841.602 738.381V738.541" stroke="black" stroke-width="1.92" stroke-miterlimit="10" stroke-linecap="round" stroke-linejoin="round"/>
<path d="M638.4 715.421V714.781V714.381V714.061L638.48 713.981" stroke="black" stroke-width="1.92" stroke-miterlimit="10" stroke-linecap="round" stroke-linejoin="round"/>
<path d="M638.801 737.101L639.121 738.541V738.461V738.141V737.741V718.141" stroke="black" stroke-width="1.92" stroke-miterlimit="10" stroke-linecap="round" stroke-linejoin="round"/>
<path d="M638.4 713.981H839.12" stroke="black" stroke-width="1.92" stroke-miterlimit="10" stroke-linecap="round" stroke-linejoin="round"/>
<path d="M639.121 738.541H841.601" stroke="black" stroke-width="1.92" stroke-miterlimit="10" stroke-linecap="round" stroke-linejoin="round"/>
<path d="M835.121 713.981L827.361 703.981" stroke="black" stroke-width="1.92" stroke-miterlimit="10" stroke-linecap="round" stroke-linejoin="round"/>
<path d="M326 715.501L326.24 715.421L326.72 715.341L327.36 715.261H328.08H328.8L329.36 715.341L329.68 715.421L329.76 715.501L329.6 715.661L329.12 715.741L328.4 715.821H327.68H326.96L326.4 715.741L326.08 715.661L326 715.501Z" stroke="black" stroke-width="1.92" stroke-miterlimit="10" stroke-linecap="round" stroke-linejoin="round"/>
<path d="M325.201 726.861L324.961 727.501L325.041 728.221L325.361 728.941L325.841 729.421L326.561 729.661H327.281L327.921 729.421L328.481 728.861" stroke="black" stroke-width="1.92" stroke-miterlimit="10" stroke-linecap="round" stroke-linejoin="round"/>
<path d="M324.881 727.981L325.041 727.181L325.441 726.621L326.081 726.221L326.801 726.061L327.521 726.221L328.161 726.621L328.561 727.181L328.721 727.981L328.561 728.701L328.161 729.261L327.521 729.741L326.801 729.821L326.081 729.741L325.441 729.261L325.041 728.701L324.881 727.981Z" stroke="black" stroke-width="1.92" stroke-miterlimit="10" stroke-linecap="round" stroke-linejoin="round"/>
<path d="M405.041 726.141L405.361 726.301" stroke="black" stroke-width="1.92" stroke-miterlimit="10" stroke-linecap="round" stroke-linejoin="round"/>
<path d="M405.681 726.541L405.121 726.381L404.641 726.061" stroke="black" stroke-width="1.92" stroke-miterlimit="10" stroke-linecap="round" stroke-linejoin="round"/>
<path d="M402.721 727.101L402.641 727.821L402.801 728.541L403.201 729.181L403.761 729.581L404.481 729.661L405.201 729.581L405.841 729.181L406.241 728.621" stroke="black" stroke-width="1.92" stroke-miterlimit="10" stroke-linecap="round" stroke-linejoin="round"/>
<path d="M402.561 727.981L402.721 727.181L403.121 726.621L403.761 726.221L404.481 726.061L405.201 726.221L405.841 726.621L406.241 727.181L406.401 727.981L406.241 728.701L405.841 729.261L405.201 729.741L404.481 729.821L403.761 729.741L403.121 729.261L402.721 728.701L402.561 727.981Z" stroke="black" stroke-width="1.92" stroke-miterlimit="10" stroke-linecap="round" stroke-linejoin="round"/>
<path d="M481.92 717.981V718.141V718.541V737.101" stroke="black" stroke-width="1.92" stroke-miterlimit="10" stroke-linecap="round" stroke-linejoin="round"/>
<path d="M482.56 715.421V715.101V715.021L481.92 717.981" stroke="black" stroke-width="1.92" stroke-miterlimit="10" stroke-linecap="round" stroke-linejoin="round"/>
<path d="M481.92 737.101V737.421V737.501L482 737.101" stroke="black" stroke-width="1.92" stroke-miterlimit="10" stroke-linecap="round" stroke-linejoin="round"/>
<path d="M279.361 737.741V738.141L279.441 738.381V738.541" stroke="black" stroke-width="1.92" stroke-miterlimit="10" stroke-linecap="round" stroke-linejoin="round"/>
<path d="M482.24 737.101L481.92 738.541V738.461V738.141V737.741" stroke="black" stroke-width="1.92" stroke-miterlimit="10" stroke-linecap="round" stroke-linejoin="round"/>
<path d="M279.361 737.741V718.141V717.661L279.441 717.261L279.521 717.101L281.921 713.981" stroke="black" stroke-width="1.92" stroke-miterlimit="10" stroke-linecap="round" stroke-linejoin="round"/>
<path d="M482.64 715.421V714.781V714.381V714.061L482.56 713.981L481.92 717.101V717.261V717.661V718.141V737.741" stroke="black" stroke-width="1.92" stroke-miterlimit="10" stroke-linecap="round" stroke-linejoin="round"/>
<path d="M481.921 738.541H279.441" stroke="black" stroke-width="1.92" stroke-miterlimit="10" stroke-linecap="round" stroke-linejoin="round"/>
<path d="M482.64 713.981H281.92" stroke="black" stroke-width="1.92" stroke-miterlimit="10" stroke-linecap="round" stroke-linejoin="round"/>
<path d="M285.92 713.981L293.68 703.981" stroke="black" stroke-width="1.92" stroke-miterlimit="10" stroke-linecap="round" stroke-linejoin="round"/>
</g>
<defs>
<clipPath id="clip0_499_63129">
<rect width="1120" height="900" fill="white"/>
</clipPath>
</defs>
</svg>
